<svg xmlns="http://www.w3.org/2000/svg" width="32" height="32.003" viewBox="0 0 32 32.003">
  <path id="_003-home" data-name="003-home" d="M31.64,13.92l0,0L18.583.863a2.946,2.946,0,0,0-4.167,0L1.368,13.911l-.013.013a2.945,2.945,0,0,0,1.96,5.02c.03,0,.061,0,.091,0h.52v9.607A3.452,3.452,0,0,0,7.375,32h5.107a.938.938,0,0,0,.938-.938V23.534a1.575,1.575,0,0,1,1.573-1.573h3.013a1.575,1.575,0,0,1,1.573,1.573v7.532a.938.938,0,0,0,.938.938h5.107a3.452,3.452,0,0,0,3.448-3.448V18.948h.482A2.947,2.947,0,0,0,31.64,13.92Zm-1.328,2.839a1.064,1.064,0,0,1-.757.314h-1.42a.938.938,0,0,0-.938.938V28.555c0,.867-.706,1.573-5.743,1.573V23.534a3.452,3.452,0,0,0-3.448-3.448H14.993a3.452,3.452,0,0,0-3.449,3.448v6.594H7.375A1.575,1.575,0,0,1,5.8,28.555V18.011a.938.938,0,0,0-.938-.938h-1.4l-.044,0a1.07,1.07,0,0,1-.738-1.827h0L15.743,2.189a1.07,1.07,0,0,1,1.514,0L30.308,15.24l.006.006A1.073,1.073,0,0,1,30.312,16.759Zm0,0" transform="translate(-0.499)" fill="white" opacity="1"/>
</svg>
