<?xml version="1.0" encoding="iso-8859-1"?>
<!-- Generator: Adobe Illustrator 19.0.0, SVG Export Plug-In . SVG Version: 6.00 Build 0)  -->
<svg version="1.1" id="Capa_1" xmlns="http://www.w3.org/2000/svg" xmlns:xlink="http://www.w3.org/1999/xlink" x="0px" y="0px"
	 viewBox="0 0 512 512" style="enable-background:new 0 0 512 512;" xml:space="preserve">
<g>
	<g>
		<path d="M400,176h-32c-25.056,0-48.96-11.968-64-32l-38.4-51.2C244.576,64.736,211.072,48,176,48h-64C50.24,48,0,98.24,0,160v128
			v64c0,61.76,50.24,112,112,112h288c61.76,0,112-50.24,112-112v-64C512,226.24,461.76,176,400,176z M400,432H112
			c-38.72,0-71.04-27.648-78.4-64.224C53.824,387.648,81.472,400,112,400h288c30.528,0,58.176-12.352,78.4-32.224
			C471.04,404.352,438.72,432,400,432z M400,368H112c-44.096,0-80-35.904-80-80V160c0-44.096,35.904-80,80-80h64
			c25.056,0,48.96,11.968,64,32l38.4,51.2c21.024,28.064,54.528,44.8,89.6,44.8h32c44.096,0,80,35.904,80,80S444.096,368,400,368z"
			/>
	</g>
</g>
<g>
	<g>
		<path d="M271.744,286.816c-0.096-1.024-0.256-1.984-0.512-2.976c-0.288-0.992-0.64-1.92-1.088-2.848
			c-0.448-0.896-0.96-1.728-1.568-2.528c-0.64-0.864-1.376-1.6-2.208-2.336c-0.416-0.384-0.672-0.864-1.152-1.216
			C210.144,236.096,190.304,200.768,192,144.48c0.032-0.896-0.32-1.664-0.448-2.528c-0.128-1.088-0.192-2.176-0.544-3.168
			c-0.32-0.992-0.896-1.792-1.408-2.688c-0.512-0.896-0.96-1.792-1.632-2.56c-0.704-0.8-1.536-1.344-2.368-1.984
			c-0.8-0.608-1.504-1.28-2.432-1.728c-0.96-0.48-2.016-0.672-3.072-0.96c-0.832-0.256-1.568-0.704-2.464-0.8
			c-0.192,0-0.384,0.096-0.576,0.064c-0.192,0-0.384-0.128-0.576-0.128c-0.608,0.032-1.184,0.288-1.792,0.384
			c-5.632,0.544-10.56,3.808-12.992,8.864c-0.224,0.448-0.256,0.96-0.448,1.408c-0.448,1.216-1.024,2.368-1.184,3.712
			c-2.528,24.544-33.664,54.208-87.712,83.584c-0.704,0.384-1.152,0.992-1.76,1.472c-0.896,0.672-1.824,1.312-2.56,2.144
			c-0.704,0.8-1.152,1.696-1.664,2.592c-0.512,0.896-1.056,1.696-1.408,2.688c-0.352,1.088-0.448,2.208-0.576,3.328
			c-0.096,0.768-0.416,1.472-0.384,2.272c0,0.192,0.128,0.32,0.128,0.512c0.064,1.184,0.48,2.336,0.832,3.488
			c0.256,0.832,0.384,1.696,0.768,2.464c0.096,0.224,0.096,0.48,0.224,0.704c0.32,0.576,0.928,0.8,1.28,1.312
			c0.992,1.344,2.08,2.528,3.424,3.52c0.896,0.672,1.728,1.28,2.752,1.728c1.696,0.864,3.52,1.312,5.44,1.504
			C79.264,255.712,79.616,256,80,256c0.064,0,0.128-0.032,0.192-0.032c0.096,0,0.16,0.032,0.224,0.032
			c40.64-1.472,97.632,14.592,169.024,46.592c2.144,0.96,4.352,1.408,6.56,1.408c2.816,0,5.472-0.896,7.936-2.304
			c0.768-0.448,1.28-1.152,1.984-1.728c1.088-0.896,2.304-1.536,3.168-2.752c0.416-0.576,0.48-1.248,0.8-1.856
			c0.16-0.32,0.544-0.448,0.704-0.8c0.224-0.512,0.192-1.056,0.352-1.6c0.352-1.056,0.608-2.08,0.736-3.168
			C271.808,288.768,271.808,287.808,271.744,286.816z M128.448,228.96c15.136-10.656,27.52-21.376,37.28-32.096
			c4.48,17.12,11.712,32.864,22.112,47.712C166.496,237.536,146.592,232.224,128.448,228.96z"/>
	</g>
</g>
<g>
</g>
<g>
</g>
<g>
</g>
<g>
</g>
<g>
</g>
<g>
</g>
<g>
</g>
<g>
</g>
<g>
</g>
<g>
</g>
<g>
</g>
<g>
</g>
<g>
</g>
<g>
</g>
<g>
</g>
</svg>
