<svg xmlns="http://www.w3.org/2000/svg" width="32" height="32" viewBox="0 0 32 32">
  <g id="Groupe_104" data-name="Groupe 104" transform="translate(-1123 -420.5)">
    <g id="_004-compass" data-name="004-compass" transform="translate(1123 420.5)">
      <path id="Tracé_130" data-name="Tracé 130" d="M16,0A16,16,0,1,0,32,16,16.018,16.018,0,0,0,16,0Zm0,30.192A14.191,14.191,0,1,1,30.192,16,14.207,14.207,0,0,1,16,30.192Z" fill="#fff"/>
      <path id="Tracé_131" data-name="Tracé 131" d="M85.061,71.261a1.212,1.212,0,0,0-.446.089l-8.8,3.484a1.847,1.847,0,0,0-.977.977l-3.484,8.8a1.088,1.088,0,0,0,.087,1.027,1.015,1.015,0,0,0,.843.439,1.209,1.209,0,0,0,.446-.089l8.8-3.483a1.846,1.846,0,0,0,.978-.978l3.484-8.8A1.088,1.088,0,0,0,85.9,71.7,1.015,1.015,0,0,0,85.061,71.261ZM80.84,80.826l-.011.011L73.67,83.671,76.5,76.512l.011-.011,7.159-2.834Z" transform="translate(-62.672 -62.669)" fill="white" opacity="1"/>
    </g>
  </g>
</svg>
