<svg xmlns="http://www.w3.org/2000/svg" width="16.362" height="24" viewBox="0 0 16.362 24">
  <g id="big-brochure" transform="translate(-70.335)">
    <path id="Tracé_1404" data-name="Tracé 1404" d="M86.3,2.193,78.665.021l-.009,0L78.6.007l-.018,0a.556.556,0,0,0-.066,0h0a.54.54,0,0,0-.068,0l-.016,0a.539.539,0,0,0-.057.012l-.007,0-.012,0h0L70.729,2.193a.543.543,0,0,0-.394.522V23.457a.543.543,0,0,0,.691.522l7.49-2.13,7.489,2.13a.543.543,0,0,0,.691-.522V2.715A.543.543,0,0,0,86.3,2.193Zm-14.881.932,6.552-1.863V20.875l-6.552,1.863Zm14.19,19.613-6.552-1.863V1.262l6.552,1.863V22.738Z" fill="#f0f4fd"/>
    <path id="Tracé_1405" data-name="Tracé 1405" d="M251.395,62.439l3.294.937a.543.543,0,0,0,.3-1.045l-3.294-.937a.543.543,0,1,0-.3,1.045Z" transform="translate(-170.855 -58.041)" fill="#f0f4fd"/>
    <path id="Tracé_1406" data-name="Tracé 1406" d="M251.395,112.438l3.294.937a.543.543,0,0,0,.3-1.045l-3.294-.937a.543.543,0,1,0-.3,1.045Z" transform="translate(-170.855 -105.325)" fill="#f0f4fd"/>
    <path id="Tracé_1407" data-name="Tracé 1407" d="M251.395,162.438l3.294.937a.543.543,0,1,0,.3-1.045l-3.294-.937a.543.543,0,1,0-.3,1.045Z" transform="translate(-170.855 -152.61)" fill="#f0f4fd"/>
    <path id="Tracé_1408" data-name="Tracé 1408" d="M251.4,219.608l3.294.937a.543.543,0,0,0,.691-.522v-7.167a.543.543,0,0,0-.394-.522l-3.294-.937a.543.543,0,0,0-.691.522v7.167A.543.543,0,0,0,251.4,219.608Zm.691-6.971,2.208.628V219.3l-2.208-.628Z" transform="translate(-170.857 -199.897)" fill="#f0f4fd"/>
    <path id="Tracé_1409" data-name="Tracé 1409" d="M114.02,343.392l-3.294.937a.543.543,0,1,0,.3,1.045l3.294-.937a.543.543,0,0,0-.3-1.045Z" transform="translate(-37.824 -324.727)" fill="#f0f4fd"/>
    <path id="Tracé_1410" data-name="Tracé 1410" d="M110.873,63.395a.543.543,0,0,0,.149-.021l3.294-.937a.543.543,0,0,0-.3-1.045l-3.294.937a.543.543,0,0,0,.148,1.065Z" transform="translate(-37.823 -58.04)" fill="#f0f4fd"/>
    <path id="Tracé_1411" data-name="Tracé 1411" d="M114.02,111.392l-3.294.937a.543.543,0,1,0,.3,1.045l3.294-.937a.543.543,0,0,0-.3-1.045Z" transform="translate(-37.824 -105.324)" fill="#f0f4fd"/>
  </g>
</svg>
