<svg id="Remove" xmlns="http://www.w3.org/2000/svg" width="40.894" height="46.202" viewBox="0 0 40.894 46.202">
  <path id="Tracé_1401" data-name="Tracé 1401" d="M188.512,294.585h-18.69a5.493,5.493,0,0,1-5.42-5.121L161.785,265.8a1.862,1.862,0,0,1,3.7-.411l2.579,23.7a1.792,1.792,0,0,0,1.682,1.757h18.69a1.785,1.785,0,0,0,1.682-1.719l2.579-23.736a1.862,1.862,0,1,1,3.7.411l-2.579,23.7A5.334,5.334,0,0,1,188.512,294.585Zm9.2-33.567H160.589a1.869,1.869,0,1,1,0-3.738h37.156a1.851,1.851,0,0,1,1.869,1.869A1.883,1.883,0,0,1,197.707,261.018Z" transform="translate(-158.72 -248.384)" fill="#e4534b"/>
  <path id="Tracé_1402" data-name="Tracé 1402" d="M368.833,144.919a1.873,1.873,0,0,1-1.869-1.719l-1.607-20.3a1.875,1.875,0,1,1,3.738-.3l1.607,20.3a1.858,1.858,0,0,1-1.72,2.019Zm9.083,0h-.149a1.858,1.858,0,0,1-1.719-2.019l1.607-20.3a1.875,1.875,0,0,1,3.738.3l-1.607,20.3A1.9,1.9,0,0,1,377.917,144.919Zm.075-31.81a1.851,1.851,0,0,1-1.869-1.869,2.542,2.542,0,1,0-5.084,0,1.869,1.869,0,0,1-3.738,0,6.28,6.28,0,0,1,12.56,0A1.874,1.874,0,0,1,377.991,113.109Z" transform="translate(-353.283 -104.96)" fill="#e4534b"/>
</svg>
