<svg id="_x31_px" enable-background="new 0 0 24 24" height="512" viewBox="0 0 24 24" width="512" xmlns="http://www.w3.org/2000/svg"><path d="m7.5 17c-.035 0-.07-.004-.105-.011-4.285-.918-7.395-4.765-7.395-9.148v-4.768c0-.54.285-1.04.744-1.305 4.07-2.348 8.583-2.348 13.416 0 .51.249.84.78.84 1.354v4.719c0 4.382-3.11 8.229-7.395 9.147-.035.008-.07.012-.105.012zm-.333-16.009c-2.059 0-4.023.548-5.923 1.644-.148.085-.244.258-.244.438v4.768c0 3.878 2.727 7.287 6.5 8.146 3.773-.86 6.5-4.269 6.5-8.146v-4.719c0-.194-.109-.372-.277-.454-2.301-1.118-4.477-1.677-6.556-1.677z"/><path d="m5.5 6c-.257 0-.476-.196-.498-.457-.035-.4-.282-.543-.502-.543s-.467.143-.502.543c-.024.275-.263.481-.541.455-.275-.023-.479-.266-.455-.541.086-1.001.837-1.457 1.498-1.457s1.412.456 1.498 1.457c.024.275-.18.518-.455.541-.015.002-.029.002-.043.002z"/><path d="m11.5 6c-.257 0-.475-.196-.498-.457-.035-.4-.282-.543-.502-.543s-.467.143-.502.543c-.024.275-.264.481-.541.455-.275-.023-.479-.266-.455-.541.086-1.001.837-1.457 1.498-1.457s1.412.456 1.498 1.457c.024.275-.18.518-.455.541-.015.002-.029.002-.043.002z"/><path d="m7.5 13c-1.161 0-2.305-.74-3.4-2.2-.166-.221-.121-.534.1-.7.22-.167.534-.122.7.1 1.792 2.389 3.408 2.389 5.2 0 .166-.222.479-.266.7-.1s.266.479.1.7c-1.095 1.46-2.239 2.2-3.4 2.2z"/><path d="m16.5 24c-.035 0-.069-.003-.104-.011-2.806-.594-5.22-2.491-6.457-5.073-.12-.249-.014-.547.235-.667.248-.121.546-.014.667.235 1.089 2.272 3.199 3.949 5.659 4.504 3.773-.856 6.5-4.266 6.5-8.148v-4.72c0-.189-.111-.367-.284-.453-1.807-.884-3.58-1.419-5.267-1.59-.275-.028-.475-.273-.447-.548.028-.274.274-.467.548-.447 1.805.182 3.692.75 5.609 1.688.513.257.841.786.841 1.35v4.72c0 4.388-3.11 8.235-7.396 9.149-.034.007-.069.011-.104.011z"/><path d="m19.5 13c-.661 0-1.412-.456-1.498-1.457-.024-.275.18-.518.455-.541.277-.034.517.18.541.455.035.4.282.543.502.543s.467-.143.502-.543c.023-.275.254-.489.541-.455.275.023.479.266.455.541-.086 1.001-.837 1.457-1.498 1.457z"/><path d="m19.5 20c-.152 0-.302-.069-.4-.2-1.792-2.389-3.408-2.389-5.2 0-.166.222-.479.265-.7.1-.221-.166-.266-.479-.1-.7 2.189-2.92 4.61-2.92 6.8 0 .166.221.121.534-.1.7-.09.067-.195.1-.3.1z"/></svg>