<svg xmlns="http://www.w3.org/2000/svg" width="32" height="32" viewBox="0 0 35.968 32">
  <path id="heart" d="M17.984,32a2.109,2.109,0,0,1-1.39-.522c-1.453-1.271-2.854-2.465-4.09-3.518l-.006-.005a76.066,76.066,0,0,1-8.93-8.382C1.134,16.636,0,13.851,0,10.809A11.242,11.242,0,0,1,2.853,3.132,9.672,9.672,0,0,1,10.048,0,9.047,9.047,0,0,1,15.7,1.951a11.562,11.562,0,0,1,2.285,2.386,11.563,11.563,0,0,1,2.285-2.386A9.047,9.047,0,0,1,25.92,0a9.672,9.672,0,0,1,7.195,3.132,11.242,11.242,0,0,1,2.853,7.678c0,3.042-1.133,5.826-3.567,8.763a76.049,76.049,0,0,1-8.929,8.381c-1.238,1.055-2.641,2.251-4.1,3.524A2.111,2.111,0,0,1,17.984,32ZM10.048,2.107A7.588,7.588,0,0,0,4.4,4.56a9.145,9.145,0,0,0-2.3,6.25c0,2.558.951,4.846,3.083,7.419a74.853,74.853,0,0,0,8.674,8.123l.007.005c1.241,1.057,2.647,2.256,4.111,3.536,1.473-1.282,2.881-2.483,4.124-3.542a74.865,74.865,0,0,0,8.674-8.122c2.132-2.572,3.082-4.86,3.082-7.419a9.145,9.145,0,0,0-2.3-6.25A7.588,7.588,0,0,0,25.92,2.107a6.988,6.988,0,0,0-4.363,1.51,10.224,10.224,0,0,0-2.431,2.813,1.33,1.33,0,0,1-2.285,0A10.214,10.214,0,0,0,14.41,3.617,6.988,6.988,0,0,0,10.048,2.107Zm0,0" fill="white" opacity="1"/>
</svg>
