<svg xmlns="http://www.w3.org/2000/svg" width="24.005" height="24.606" viewBox="0 0 24.005 24.606">
  <path id="filter" d="M23.467,0H1.53a1.03,1.03,0,0,0-.918.56A1.045,1.045,0,0,0,.692,1.647L8.729,12.968l.008.011a2.3,2.3,0,0,1,.451,1.362v9.23a1.026,1.026,0,0,0,1.026,1.033,1.057,1.057,0,0,0,.4-.081L15.135,22.8a.978.978,0,0,0,.673-.965V14.342a2.3,2.3,0,0,1,.451-1.362l.008-.011L24.3,1.646A1.044,1.044,0,0,0,24.386.559,1.031,1.031,0,0,0,23.467,0ZM15.252,12.24a3.556,3.556,0,0,0-.693,2.1v7.343l-4.122,1.572V14.342a3.554,3.554,0,0,0-.693-2.1L1.942,1.249H23.055Zm0,0" transform="translate(-0.496 0)" fill="#f0f4fd"/>
</svg>
