<svg id="_x31_" enable-background="new 0 0 24 24" height="512" viewBox="0 0 24 24" width="512" xmlns="http://www.w3.org/2000/svg"><g><path d="m7.914 24c-4.437 0-7.914-3-7.914-6.83 0-1.433.473-2.81 1.368-3.983l.001.001c.021-.029.044-.058.063-.077l.003.004c1.931-2.705 1.986-4.811 1.986-5.045 0-2.253 2.016-4.07 4.493-4.07 2.479 0 4.494 1.817 4.494 4.05 0 .217.043 2.014 1.515 4.343.147.233.078.542-.155.69-.233.145-.542.079-.69-.156-1.589-2.514-1.669-4.487-1.669-4.857-.001-1.702-1.568-3.07-3.495-3.07-1.926 0-3.493 1.368-3.493 3.05 0 .291-.062 2.747-2.203 5.675-.009.013-.03.039-.048.061-.003.003-.005.006-.007.009-.761.996-1.163 2.164-1.163 3.375 0 3.269 3.037 5.83 6.914 5.83 1.574 0 3.053-.421 4.274-1.219.232-.149.542-.085.692.146s.086.541-.146.692c-1.383.903-3.05 1.381-4.82 1.381z"/></g><g><path d="m8 5c-.276 0-.5-.224-.5-.5 0-2.481 2.019-4.5 4.5-4.5h.5c.276 0 .5.224.5.5s-.224.5-.5.5h-.5c-1.93 0-3.5 1.57-3.5 3.5 0 .276-.224.5-.5.5z"/></g><g><path d="m17 13c-.276 0-.5-.224-.5-.5 0-2.481 2.019-4.5 4.5-4.5h.5c.276 0 .5.224.5.5s-.224.5-.5.5h-.5c-1.93 0-3.5 1.57-3.5 3.5 0 .276-.224.5-.5.5z"/></g><g><path d="m18.821 24c-.629 0-1.24-.128-1.822-.381-.579.253-1.19.381-1.82.381-2.869 0-5.179-3.977-5.179-7.27 0-2.962 1.936-4.73 5.179-4.73.629 0 1.24.128 1.821.381.581-.253 1.192-.381 1.821-.381 3.243 0 5.179 1.769 5.179 4.73 0 3.293-2.31 7.27-5.179 7.27zm-1.823-1.433c.076 0 .152.018.223.052.508.253 1.047.381 1.6.381 2.25 0 4.179-3.447 4.179-6.27 0-3.246-2.618-3.73-4.179-3.73-.554 0-1.092.128-1.599.38-.141.07-.305.07-.445 0-.506-.252-1.045-.38-1.598-.38-1.561 0-4.179.484-4.179 3.73 0 2.822 1.929 6.27 4.179 6.27.555 0 1.092-.128 1.596-.38.07-.035.147-.053.223-.053z"/></g></svg>