<svg xmlns="http://www.w3.org/2000/svg" xmlns:xlink="http://www.w3.org/1999/xlink" width="109.918" height="109.822" viewBox="0 0 109.918 109.822">
  <defs>
    <linearGradient id="linear-gradient" x1="1.128" y1="1.297" x2="0.237" y2="0.189" gradientUnits="objectBoundingBox">
      <stop offset="0" stop-color="#dae3fe"/>
      <stop offset="1" stop-color="#e9effd"/>
    </linearGradient>
    <linearGradient id="linear-gradient-2" x1="0.507" y1="0.876" x2="0.622" y2="-0.238" gradientUnits="objectBoundingBox">
      <stop offset="0" stop-color="#4042e2"/>
      <stop offset="1" stop-color="#4f52ff"/>
    </linearGradient>
    <linearGradient id="linear-gradient-3" x1="-0.267" y1="0.97" x2="0.005" y2="0.819" xlink:href="#linear-gradient-2"/>
    <linearGradient id="linear-gradient-4" x1="1.002" y1="0.225" x2="2.093" y2="-0.346" xlink:href="#linear-gradient-2"/>
    <linearGradient id="linear-gradient-5" x1="0.511" y1="0.838" x2="0.626" y2="-0.275" xlink:href="#linear-gradient-2"/>
    <linearGradient id="linear-gradient-6" x1="28.444" y1="0.596" x2="28.359" y2="-0.259" gradientUnits="objectBoundingBox">
      <stop offset="0" stop-color="#febbba"/>
      <stop offset="1" stop-color="#ff928e"/>
    </linearGradient>
    <linearGradient id="linear-gradient-7" x1="110.979" y1="-10.026" x2="112.022" y2="-10.026" gradientUnits="objectBoundingBox">
      <stop offset="0" stop-color="#09005d"/>
      <stop offset="1" stop-color="#1a0f91"/>
    </linearGradient>
    <linearGradient id="linear-gradient-8" x1="61.001" y1="0.125" x2="61.824" y2="-2.687" xlink:href="#linear-gradient-6"/>
    <linearGradient id="linear-gradient-9" x1="63.723" y1="-6.759" x2="64.692" y2="-6.759" xlink:href="#linear-gradient-7"/>
    <linearGradient id="linear-gradient-10" x1="39.949" y1="0.134" x2="40.487" y2="-2.675" xlink:href="#linear-gradient-6"/>
    <linearGradient id="linear-gradient-11" x1="1.274" y1="-0.348" x2="1.991" y2="-1.09" gradientUnits="objectBoundingBox">
      <stop offset="0" stop-color="#fe7062"/>
      <stop offset="1" stop-color="#ff928e"/>
    </linearGradient>
    <linearGradient id="linear-gradient-12" x1="-22.3" y1="-0.523" x2="-24.437" y2="0.706" xlink:href="#linear-gradient-7"/>
    <linearGradient id="linear-gradient-13" x1="112.021" y1="-3.334" x2="111.815" y2="-5.348" xlink:href="#linear-gradient-6"/>
    <linearGradient id="linear-gradient-14" x1="54.491" y1="-0.971" x2="54.222" y2="-1.907" xlink:href="#linear-gradient-6"/>
    <linearGradient id="linear-gradient-15" x1="56.205" y1="-4.357" x2="57.448" y2="-3.538" xlink:href="#linear-gradient-6"/>
    <linearGradient id="linear-gradient-16" x1="58.546" y1="-1.785" x2="55.503" y2="-3.457" xlink:href="#linear-gradient-7"/>
    <linearGradient id="linear-gradient-17" x1="200.382" y1="-16.569" x2="204.865" y2="-13.85" xlink:href="#linear-gradient-6"/>
    <linearGradient id="linear-gradient-18" x1="37.416" y1="-1.436" x2="35.449" y2="-2.545" xlink:href="#linear-gradient-7"/>
  </defs>
  <g id="Illustration" transform="translate(0 0)">
    <g id="Groupe_68" data-name="Groupe 68">
      <path id="Tracé_262" data-name="Tracé 262" d="M561.283,555.943a39.678,39.678,0,0,1-6.08,5.091c-19.834,14.152-43.3,10.027-48.291,9.02-7.365-1.487-21.6-4.363-31.9-16.4-15.573-18.212-13.148-46.9-1.068-65.846,2.209-3.465,13.881-22.694,37.6-25.777,14.356-1.866,31.091,1.9,43.209,11.995C580.2,495.219,578.387,538.036,561.283,555.943Z" transform="translate(-464.106 -461.569)" fill="url(#linear-gradient)"/>
      <g id="Groupe_60" data-name="Groupe 60" transform="translate(15.3 34.262)">
        <path id="Tracé_263" data-name="Tracé 263" d="M856.94,1331.846a.242.242,0,0,1,.4-.257,46.569,46.569,0,0,1,13.3,31.928,123.008,123.008,0,0,1-3.432,31.911,1.128,1.128,0,0,1-1.875.524c-3.671-3.556-13.43-14.049-12.7-24.506C853.49,1358.949,861.147,1343.464,856.94,1331.846Z" transform="translate(-852.584 -1331.518)" fill="#91b3fa"/>
        <path id="Tracé_264" data-name="Tracé 264" d="M1090.77,1672.12s7.348,12.264,4.32,49.929C1095.09,1722.049,1096.128,1684.035,1090.77,1672.12Z" transform="translate(-1081.389 -1658.705)" fill="#fff" opacity="0.5"/>
      </g>
      <g id="Groupe_61" data-name="Groupe 61" transform="translate(2.237 62.429)">
        <path id="Tracé_265" data-name="Tracé 265" d="M543.836,2091.855s-3.88-28.174-16.378-44.46a1.837,1.837,0,0,0-3.13.421C520.9,2056.368,513.279,2082.556,543.836,2091.855Z" transform="translate(-520.912 -2046.698)" fill="#bdd0fb"/>
        <path id="Tracé_266" data-name="Tracé 266" d="M671.328,2310.2c.063.072-.041.168-.113.1-2.68-2.327-12.812-13.492-14.8-34.137a.055.055,0,0,1,.108-.017C657.431,2280.98,661.348,2298.821,671.328,2310.2Z" transform="translate(-651.076 -2267.077)" fill="#fff" opacity="0.5"/>
      </g>
      <g id="Groupe_62" data-name="Groupe 62" transform="translate(16.091 17.112)">
        <path id="Tracé_267" data-name="Tracé 267" d="M1598.734,931.78c-.008-.2-.875-20.031-9.54-27.171a10.975,10.975,0,0,0-9.015-2.392c-7.186,1.112-12.156,6.4-14.772,15.712a52.106,52.106,0,0,0-1.78,13.827l-.661.02a52.82,52.82,0,0,1,1.8-14.012,27.919,27.919,0,0,1,5.02-10.262,16.2,16.2,0,0,1,10.291-5.939,11.612,11.612,0,0,1,9.537,2.536c3.742,3.084,6.526,8.681,8.273,16.636a70.627,70.627,0,0,1,1.507,11.02Z" transform="translate(-1535.774 -901.187)" fill="url(#linear-gradient-2)"/>
        <path id="Tracé_268" data-name="Tracé 268" d="M872.723,1615.369l8.783-57.9a1.145,1.145,0,0,1,1.114-.974l50.751-.839,10.978,65.361H877.044C874.189,1621.021,872.307,1618.193,872.723,1615.369Z" transform="translate(-872.666 -1529.682)" fill="url(#linear-gradient-3)"/>
        <path id="Tracé_269" data-name="Tracé 269" d="M2423.825,1556.493l-9.785-.833,10.978,65.361,10.837-.28a1.714,1.714,0,0,0,1.633-2.065l-12.906-61.561A.864.864,0,0,0,2423.825,1556.493Z" transform="translate(-2353.334 -1529.682)" fill="url(#linear-gradient-4)"/>
        <path id="Tracé_270" data-name="Tracé 270" d="M1320.944,926.44c-.008-.2-.875-20.031-9.54-27.171a10.976,10.976,0,0,0-9.015-2.392c-7.186,1.112-12.156,6.4-14.772,15.712a52.1,52.1,0,0,0-1.78,13.827l-.661.021a52.817,52.817,0,0,1,1.8-14.012,27.918,27.918,0,0,1,5.02-10.262,16.2,16.2,0,0,1,10.291-5.939,11.612,11.612,0,0,1,9.537,2.536c3.742,3.084,6.526,8.681,8.273,16.636a70.619,70.619,0,0,1,1.506,11.02Z" transform="translate(-1268.924 -896.058)" fill="url(#linear-gradient-5)"/>
      </g>
      <g id="Groupe_67" data-name="Groupe 67" transform="translate(74.948 50.531)">
        <g id="Groupe_63" data-name="Groupe 63" transform="translate(0 28.743)">
          <path id="Tracé_271" data-name="Tracé 271" d="M2375.5,2475.519l-6.095-1.127a.149.149,0,0,0-.175.127l-2.128,9.265a.168.168,0,0,0,.029.132.173.173,0,0,0,.116.071l8.272,1.231c.048.007.022-.007.059-.039s-.017-.078-.017-.127v-9.369C2375.561,2475.6,2375.58,2475.534,2375.5,2475.519Z" transform="translate(-2367.098 -2474.39)" fill="#91b3fa"/>
          <path id="Tracé_272" data-name="Tracé 272" d="M2456.339,2488.349a.219.219,0,1,1-.219-.219A.219.219,0,0,1,2456.339,2488.349Z" transform="translate(-2452.403 -2487.589)" fill="#7d97f4"/>
          <path id="Tracé_273" data-name="Tracé 273" d="M2533.139,2504.809a.219.219,0,1,1-.219-.219A.219.219,0,0,1,2533.139,2504.809Z" transform="translate(-2526.178 -2503.4)" fill="#7d97f4"/>
        </g>
        <path id="Tracé_274" data-name="Tracé 274" d="M2463.323,2410.954h0a.048.048,0,0,1-.048-.048c0-1.076-.169-3.886-.946-3.971-.926-.1-1.951,3.142-1.983,3.328a.046.046,0,0,1-.048.045.05.05,0,0,1-.048-.051,9.043,9.043,0,0,1,1.557-3.2.7.7,0,0,1,.532-.22c1.021.112,1.032,3.905,1.032,4.067A.048.048,0,0,1,2463.323,2410.954Z" transform="translate(-2456.581 -2380.755)" fill="#fff"/>
        <path id="Tracé_275" data-name="Tracé 275" d="M2486.206,2101.9s-3.357,7.66-8.13,8.846a11.071,11.071,0,0,0-2.494.4c-.551.343.119,1.267.387,1.967s.372.373.491.149-.382-.929.273-1.207.457.149.149.516a1.417,1.417,0,0,0-.278.963,7.415,7.415,0,0,0,.983-.437,1.631,1.631,0,0,0,.681-.846,11.783,11.783,0,0,0,9.375-7.26S2487.886,2098.821,2486.206,2101.9Z" transform="translate(-2471.106 -2087.002)" fill="url(#linear-gradient-6)"/>
        <path id="Tracé_276" data-name="Tracé 276" d="M3046.8,2505.662a.048.048,0,0,1-.047-.041c0-.025-.406-2.525-1.182-2.967a.436.436,0,0,0-.4-.029c-1.049.417-.521,2.783-.515,2.807a.048.048,0,0,1-.094.021c-.023-.1-.552-2.47.573-2.918a.534.534,0,0,1,.482.035c.816.465,1.213,2.93,1.229,3.035a.048.048,0,0,1-.041.055Z" transform="translate(-3017.744 -2472.645)" fill="#fff"/>
        <path id="Tracé_277" data-name="Tracé 277" d="M3013.546,2568.316l-3.964-.366-.882.49.756.946,3.621-.369Z" transform="translate(-2983.431 -2535.522)" fill="#7d97f4"/>
        <path id="Tracé_278" data-name="Tracé 278" d="M3117.2,3176.978l.066,1.516a.623.623,0,0,0,.5.585,9.622,9.622,0,0,0,2.008.188.533.533,0,0,0,.5-.655,5.489,5.489,0,0,0-.854-2.041l-1.667-.13A.515.515,0,0,0,3117.2,3176.978Z" transform="translate(-3087.655 -3120.048)" fill="url(#linear-gradient-7)"/>
        <path id="Tracé_279" data-name="Tracé 279" d="M2753.262,2717.43l-.41,1.633s.2,9.614.068,13.443a3,3,0,0,1-.575,1.665l-1.845,2.532,4.354-2.132.123-.5-.609-.99,1.726-10.618a3.293,3.293,0,0,0-.232-1.843l-.735-1.684Z" transform="translate(-2735.4 -2679.115)" fill="url(#linear-gradient-8)"/>
        <path id="Tracé_280" data-name="Tracé 280" d="M2734.86,3127.452l1.328.1a.8.8,0,0,0,.659-.261c.456-.506,1.4-1.489,1.808-1.484.555.006.331,1.964.331,1.964l.31.024.583-2.409a1.449,1.449,0,0,0-.64-1.569h0a2.046,2.046,0,0,1-.916,1.283c-.717.36-2.933,1.675-2.933,1.675a1.9,1.9,0,0,0-.541-.028A.352.352,0,0,0,2734.86,3127.452Z" transform="translate(-2720.064 -3069.5)" fill="url(#linear-gradient-9)"/>
        <path id="Tracé_281" data-name="Tracé 281" d="M2963.85,2734.25s4.7,10.9,5.393,13.356a23.015,23.015,0,0,1,.84,4.666c0,.3.34.608,1.352.687a.973.973,0,0,0,.935-.342.592.592,0,0,0,.067-.569c-.269-.671-1.121-2.814-1.423-3.78-.361-1.153-.929-6.294-1.32-8.1a9.371,9.371,0,0,0-3-5.7S2965.23,2732.8,2963.85,2734.25Z" transform="translate(-2940.347 -2694.705)" fill="url(#linear-gradient-10)"/>
        <path id="Tracé_282" data-name="Tracé 282" d="M2734.723,2001.67a10.061,10.061,0,0,1,2.919-9.273,13.425,13.425,0,0,0-4.248-2.9,3.4,3.4,0,0,0-3.654.512c-1.112.961-2.322,2.321-2.159,3.595.172,1.348,2.161,8.164,2.161,8.164A5.522,5.522,0,0,0,2734.723,2001.67Z" transform="translate(-2713.37 -1979.548)" fill="url(#linear-gradient-11)"/>
        <path id="Tracé_283" data-name="Tracé 283" d="M2778.465,2309.522c-.443-1.791-2.923-3.232-2.923-3.232a5.521,5.521,0,0,1-4.982.1,9.944,9.944,0,0,0-.459,3.819c.214,1.874,1.54,13.91,1.54,13.91,3.489.995,9.053-.021,9.053-.021C2778.749,2319.909,2778.909,2311.313,2778.465,2309.522Z" transform="translate(-2754.188 -2284.168)" fill="url(#linear-gradient-12)"/>
        <path id="Tracé_284" data-name="Tracé 284" d="M2814.644,1887.465l.752,5.289c.075.466-.336.359-.792.236-.747-.2-1.7-.573-1.981-1.188a.564.564,0,0,1-.044-.2l-.216-3.644a.65.65,0,0,1,.432-.651l.993-.35A.65.65,0,0,1,2814.644,1887.465Z" transform="translate(-2794.823 -1881.313)" fill="url(#linear-gradient-13)"/>
        <path id="Tracé_285" data-name="Tracé 285" d="M3114.508,2586.729l1.359-.781-3.272-8.7-.785.53Z" transform="translate(-3082.48 -2544.456)" fill="#bdd0fb"/>
        <path id="Tracé_286" data-name="Tracé 286" d="M3025.747,2514.55h0a.048.048,0,0,1-.044-.052c0-.025.177-2.559-.546-3.385a.688.688,0,0,0-.487-.253.654.654,0,0,0-.494.191c-.781.727-.826,3.235-.827,3.26a.048.048,0,0,1-.048.047h0a.048.048,0,0,1-.047-.049c0-.1.046-2.574.857-3.329a.747.747,0,0,1,.565-.217.776.776,0,0,1,.553.286c.76.87.571,3.43.569,3.456A.046.046,0,0,1,3025.747,2514.55Z" transform="translate(-2997.407 -2480.587)" fill="#fff"/>
        <path id="Tracé_287" data-name="Tracé 287" d="M2931.9,2073.243a20.623,20.623,0,0,1,3.983,7.672,22.524,22.524,0,0,1,.56,6.521s-.857.639-.549,1.093.227.761.621.85.882.212.822-.565.868-.934.714-1.4.9-13.087-4.183-16.51l-.073-.048C2931.65,2071.626,2931.589,2072.829,2931.9,2073.243Z" transform="translate(-2909.525 -2058.001)" fill="url(#linear-gradient-14)"/>
        <path id="Tracé_288" data-name="Tracé 288" d="M3008.64,2581.1l4.063.379,2.7,8.948-5.833.153Z" transform="translate(-2983.373 -2548.155)" fill="#91b3fa"/>
        <g id="Groupe_64" data-name="Groupe 64" transform="translate(30.258 34.616)">
          <path id="Tracé_289" data-name="Tracé 289" d="M3137.227,2631.026l-.014,0a.054.054,0,0,1-.039-.066l.261-.995-2.058-6.385a.054.054,0,0,1,.1-.034l2.063,6.4a.051.051,0,0,1,0,.03l-.265,1.01A.054.054,0,0,1,3137.227,2631.026Z" transform="translate(-3135.375 -2623.509)" fill="#fff"/>
        </g>
        <g id="Groupe_65" data-name="Groupe 65" transform="translate(32.532 41.065)">
          <path id="Tracé_290" data-name="Tracé 290" d="M3193.862,2787.714a.054.054,0,0,1-.023-.005l-.7-.336a.054.054,0,0,1-.026-.072.055.055,0,0,1,.072-.026l.7.336a.054.054,0,0,1,.026.072A.055.055,0,0,1,3193.862,2787.714Z" transform="translate(-3193.104 -2787.27)" fill="#fff"/>
        </g>
        <g id="Groupe_66" data-name="Groupe 66" transform="translate(15.288)">
          <path id="Tracé_291" data-name="Tracé 291" d="M2758.96,1793.36a5.748,5.748,0,0,0-2.941,2.5c-1.332,2.06-.7,3.18.256,3.45a4.585,4.585,0,0,0,4.134-.768C2762.137,1797.326,2761.042,1792.865,2758.96,1793.36Z" transform="translate(-2755.26 -1791.403)" fill="url(#linear-gradient-15)"/>
          <path id="Tracé_292" data-name="Tracé 292" d="M2810.757,1750.416s1.583-3.063-1.265-3.486l-.735.379s-.806-1.926,1.027-2.545a3.687,3.687,0,0,1,4.713,2.9c.419,2.414-.211,3.851-1.577,4.794s-1.7-.38-1.7-.38.8-.946.607-1.537-.907-.006-.907-.006Z" transform="translate(-2806.481 -1744.593)" fill="url(#linear-gradient-16)"/>
          <path id="Tracé_293" data-name="Tracé 293" d="M2870.73,1877.664s.8-1.579,1.49-.814-.836,1.446-1.424,1.654Z" transform="translate(-2866.182 -1871.44)" fill="url(#linear-gradient-17)"/>
          <path id="Tracé_294" data-name="Tracé 294" d="M2924.09,1804.835s5.531-1.7,6.441,4.068,1.539,7.619,2.91,6.624c0,0-.226,2.155-2.859,1.192C2923.748,1814.218,2927.908,1806.212,2924.09,1804.835Z" transform="translate(-2917.441 -1802.238)" fill="url(#linear-gradient-18)"/>
        </g>
      </g>
    </g>
  </g>
</svg>
