<svg xmlns="http://www.w3.org/2000/svg" viewBox="0 0 185.71 178.89">
    <defs>
        <style>.cls-1{fill:#e4534b;}.cls-2{fill:#feb3b1;}.cls-3{fill:#96b4f4;}.cls-4{fill:#020b5d;}</style>
    </defs>
    <g id="Calque_2" data-name="Calque 2">
        <g id="Calque_1-2" data-name="Calque 1">
            <path class="cls-1" d="M108.1,75.27S136.58,54.42,137.34,30,116,0,108.1,0Z"/>
            <path class="cls-1" d="M108.1,75.27S79.61,54.42,78.85,30,100.21,0,108.1,0Z"/>
            <circle class="cls-2" cx="108.1" cy="30.11" r="17.67"/>
            <path class="cls-3"
                  d="M0,56.74H42.55A18.05,18.05,0,0,1,60.6,74.79v0a0,0,0,0,1,0,0H18.05A18.05,18.05,0,0,1,0,56.74v0A0,0,0,0,1,0,56.74Z"/>
            <circle class="cls-4" cx="131.19" cy="169.22" r="9.67"/>
            <circle class="cls-4" cx="84.96" cy="169.22" r="9.67"/>
            <polygon class="cls-4" points="60.6 74.79 41.37 74.79 30.3 84.14 49.53 84.14 60.6 74.79"/>
            <path class="cls-3"
                  d="M177.75,84.14H30.34V94.23a8,8,0,0,0,8,8h79.13v-3l2.74,3h65.54V92.09A8,8,0,0,0,177.75,84.14Z"/>
            <polygon class="cls-4" points="120.17 102.19 128.73 111.54 134.09 111.54 185.67 102.19 120.17 102.19"/>
            <polygon class="cls-4" points="117.43 102.19 96.06 102.19 44.48 111.54 117.43 111.54 117.43 102.19"/>
            <path class="cls-3" d="M117.43,111.54H44.36v10.09a8,8,0,0,0,8,8h65.11Z"/>
            <polygon class="cls-3" points="125.9 127.82 123.98 129.59 126.62 129.59 125.9 127.82"/>
            <path class="cls-3"
                  d="M163.73,111.54h-35l14.21,15.51L131,126l1.56,3.58h39.13v-10.1A8,8,0,0,0,163.73,111.54Z"/>
            <polygon class="cls-4" points="136.06 137.6 171.49 129.59 132.56 129.59 136.06 137.6"/>
            <polygon class="cls-4"
                     points="126.62 129.59 123.98 129.59 117.43 135.61 117.43 129.59 99.67 129.59 58.34 138.94 130.16 138.94 130.43 138.87 126.62 129.59"/>
            <path class="cls-3"
                  d="M136.64,138.94l.24.56-5.27,2.25-1.15-2.81H58.38A18.05,18.05,0,0,0,76.43,157h63.18a18,18,0,0,0,18-18.05h-21Z"/>
        </g>
    </g>
</svg>
