<?xml version="1.0" encoding="utf-8"?>
<!-- Generator: Adobe Illustrator 25.0.0, SVG Export Plug-In . SVG Version: 6.00 Build 0)  -->
<svg version="1.1" id="Calque_1" xmlns="http://www.w3.org/2000/svg" xmlns:xlink="http://www.w3.org/1999/xlink" x="0px" y="0px"
	 viewBox="0 0 2475 1650" style="enable-background:new 0 0 2475 1650;" xml:space="preserve">
<style type="text/css">
	.st0{fill:url(#SVGID_1_);}
	.st1{fill:#91B3FA;}
	.st2{fill:#DCE5FE;}
	.st3{fill:#BDD0FB;}
	.st4{fill:url(#SVGID_2_);}
	.st5{fill:url(#SVGID_3_);}
	.st6{opacity:0.65;fill:#FFFFFF;enable-background:new    ;}
	.st7{fill:url(#SVGID_4_);}
	.st8{fill:url(#SVGID_5_);}
	.st9{fill:url(#SVGID_6_);}
	.st10{fill:url(#SVGID_7_);}
	.st11{fill:url(#SVGID_8_);}
	.st12{fill:#FFFFFF;}
	.st13{fill:url(#SVGID_9_);}
	.st14{fill:#7D97F4;}
	.st15{fill:url(#SVGID_10_);}
	.st16{fill:url(#SVGID_11_);}
	.st17{fill:url(#SVGID_12_);}
	.st18{fill:url(#SVGID_13_);}
	.st19{fill:url(#SVGID_14_);}
	.st20{fill:url(#SVGID_15_);}
	.st21{fill:url(#SVGID_16_);}
	.st22{fill:url(#SVGID_17_);}
	.st23{fill:url(#SVGID_18_);}
	.st24{fill:url(#SVGID_19_);}
	.st25{fill:url(#SVGID_20_);}
	.st26{fill:url(#SVGID_21_);}
	.st27{fill:url(#SVGID_22_);}
	.st28{fill:url(#SVGID_23_);}
	.st29{fill:url(#SVGID_24_);}
	.st30{fill:url(#SVGID_25_);}
	.st31{fill:url(#SVGID_26_);}
	.st32{fill:url(#SVGID_27_);}
	.st33{fill:url(#SVGID_28_);}
	.st34{fill:url(#SVGID_29_);}
	.st35{fill:url(#SVGID_30_);}
	.st36{fill:url(#SVGID_31_);}
	.st37{fill:url(#SVGID_32_);}
	.st38{fill:url(#SVGID_33_);}
	.st39{fill:url(#SVGID_34_);}
	.st40{fill:url(#SVGID_35_);}
	.st41{fill:url(#SVGID_36_);}
	.st42{fill:url(#SVGID_37_);}
	.st43{fill:url(#SVGID_38_);}
	.st44{fill:url(#SVGID_39_);}
	.st45{fill:url(#SVGID_40_);}
	.st46{fill:url(#SVGID_41_);}
	.st47{fill:url(#SVGID_42_);}
	.st48{fill:url(#SVGID_43_);}
	.st49{fill:url(#SVGID_44_);}
	.st50{fill:url(#SVGID_45_);}
	.st51{fill:url(#SVGID_46_);}
	.st52{fill:url(#SVGID_47_);}
	.st53{fill:url(#SVGID_48_);}
	.st54{fill:url(#SVGID_49_);}
	.st55{fill:url(#SVGID_50_);}
	.st56{fill:url(#SVGID_51_);}
	.st57{fill:url(#SVGID_52_);}
	.st58{fill:url(#SVGID_53_);}
	.st59{fill:url(#SVGID_54_);}
	.st60{opacity:0.7;}
	.st61{fill:url(#SVGID_55_);}
	.st62{fill:url(#SVGID_56_);}
	.st63{fill:url(#SVGID_57_);}
	.st64{fill:url(#SVGID_58_);}
	.st65{fill:url(#SVGID_59_);}
	.st66{fill:url(#SVGID_60_);}
	.st67{fill:url(#SVGID_61_);}
	.st68{fill:url(#SVGID_62_);}
	.st69{fill:url(#SVGID_63_);}
	.st70{fill:url(#SVGID_64_);}
	.st71{fill:url(#SVGID_65_);}
	.st72{fill:url(#SVGID_66_);}
	.st73{fill:url(#SVGID_67_);}
	.st74{fill:url(#SVGID_68_);}
	.st75{fill:url(#SVGID_69_);}
	.st76{fill:url(#SVGID_70_);}
	.st77{fill:url(#SVGID_71_);}
	.st78{fill:url(#SVGID_72_);}
	.st79{fill:url(#SVGID_73_);}
	.st80{fill:url(#SVGID_74_);}
	.st81{fill:url(#SVGID_75_);}
	.st82{fill:url(#SVGID_76_);}
	.st83{fill:url(#SVGID_77_);}
	.st84{fill:url(#SVGID_78_);}
	.st85{fill:url(#SVGID_79_);}
	.st86{fill:url(#SVGID_80_);}
	.st87{fill:url(#SVGID_81_);}
	.st88{fill:url(#SVGID_82_);}
	.st89{fill:url(#SVGID_83_);}
	.st90{fill:url(#SVGID_84_);}
	.st91{fill:url(#SVGID_85_);}
	.st92{fill:url(#SVGID_86_);}
	.st93{fill:url(#SVGID_87_);}
	.st94{fill:url(#SVGID_88_);}
</style>
<g id="Illustration">
	
		<linearGradient id="SVGID_1_" gradientUnits="userSpaceOnUse" x1="199.0315" y1="822.889" x2="2491.2522" y2="822.889" gradientTransform="matrix(-1 0 0 -1 2582.6499 1647.8898)">
		<stop  offset="0" style="stop-color:#DAE3FE"/>
		<stop  offset="1" style="stop-color:#E9EFFD"/>
	</linearGradient>
	<path class="st0" d="M1786.7,226.5c134.6,150.1,601.8-16.6,596.9,260.1c-5.8,324.1-464.9,419.4-316.2,647.2s-42,402.4-639.4,397.5
		S-104,1321.5,127.5,1011s77.3-326.4,66-463.7S299.3,109.1,762,360.1S1445.8-153.6,1786.7,226.5z"/>
	<path class="st1" d="M629.9,945.5c6.7-16.1,10.7-32.9,18.4-48.6c16.4-33.2,40.7-58.3,64.2-86c16.2-19,43.8-52.7,21.2-77
		c-11.1-11.9-29.3-13.4-44.3-11.6c-45.5,5.5-61.9,16.4-51.8-37.5c5.6-29.9,21.5-56.8,27.8-86.3c6.3-29.8,9.3-116.3-22.4-136.8
		c-56.4-36.2-91.7,100.8-100.4,132.2c-0.3,1.2-0.6,2.5-0.7,3.8c-0.5,4.5-4.5,7.7-8.9,7.3c-2.9-0.3-5.4-2.1-6.6-4.7
		c-2.2-4.7-3.9-9.1-4-12.8c-0.9-18.2,4.7-38.3,9.5-55.7c6.5-23.6,15.3-46.6,24.7-69.2c10.6-25.6,16.9-52.4,7.7-79.4
		c-9-26.6-27.7-48.5-44.4-70.6c-22-29.1-37.5-68.9-72-85.9c-40.8-20.1-81.7,10.4-103.6,44.2c-35.4,54.8-15.6,115.1,11.2,168.6
		c19,37.9,67.2,95.4,66.1,141.9c-0.1,4.5-3.8,8.1-8.3,7.9c-1.2,0-2.4-0.3-3.5-0.9c-8.4-4.3-15.1-11.8-22.1-19.7
		c-24.9-27.7-46.6-58.8-69-88.6c-15.4-20.5-37-56.8-65.5-59.3c-33.4-3-32.9,60.6-30.3,80.4c13.5,101.2,107.4,151.7,157,232.8
		c10.2,16.7,32.4,47.2,30.1,67.5c-4.5,39.2-52.4-4.2-73.3-10.6c-29-9-79.8-9.1-80.2,30.7c-0.4,46.2,39.5,86.1,81.1,100
		c33.4,11.1,71.5,15,103.1,30.5c28.9,14.2,11.6,46.2-17.4,37.4c-12-3.7-24-8.5-35.6-13c-11.3-4.4-44.6-22.7-52.9-5.7
		c-6.3,13,6.8,35.6,12,46.7c58.5,123.9,106.7,101.2,174.3,125.4c19.4,7,32.5,22.7,39.5,41.7c3,8.2,2.7,38.9,12.1,41.7
		c12.9,3.8,30.9-22.9,36.4-30.6c10.2-14.2,22.6-26.5,32.8-40.7c17.6-24.5,46.5-60.6,43.2-93c-1.6-16-15.4-22.5-30.3-23.7
		c-25.2-2-65.2-6.7-49.1-41.5C613.5,979.8,622.6,963,629.9,945.5z"/>
	<path class="st2" d="M578.7,1225.3c-1.9,0-3.5-1.5-3.5-3.4c0-1.7-3.5-169.7-40.7-282.4c-37-112.1-62.7-331.5-56-390.4
		c5.8-51.4-14.6-266.6-59-315.6c-5.8-6.4-11.8-9.6-17.8-9.6c-1.9-0.2-3.4-1.9-3.2-3.8c0.1-1.7,1.4-3,3.1-3.2
		c8.1-0.1,15.9,3.9,23.1,11.9c48.6,53.6,66,275.5,60.8,321.2c-5.9,52.2,16.7,269,55.7,387.4c37.5,113.7,41.1,282.8,41.1,284.5
		C582.3,1223.7,580.7,1225.3,578.7,1225.3L578.7,1225.3z"/>
	<path class="st3" d="M553.3,1202.8c-15.8,4.3-66.8,46.7-64.5,10.6c3.1-46.3,53.5-83.1,57.2-130.5c2.2-27.6-23.5-44.1-48.5-49
		c-43.8-8.6-59.2,77.9-81,107c-4.6,6.1-9.5-113.9-10.6-118.8c-3-14.3-10.4-40.5-25.4-47.1c-36.2-15.9-50.2,31.2-54.4,58.4
		c-0.3,2.2-2.4,3.8-4.6,3.4c-1-0.1-1.9-0.7-2.5-1.4c-23.1-27.7-5.4-56.9-18.4-88.9c-18-44.1-55.5,1-70.7,22
		c-26.1,36.1-30.8,84.6,10,112.8c37.5,25.9,56,42.5,31.4,49.3c-32.3,8.9-58.1,43.4-41.9,76.1c16.9,34.2,69.2,52.3,102.7,64.5
		c13.2,4.8,47.8,4.4,50.5,22.8c2.2,15.4-21,22.3-31.5,27.8c-39.6,20.6-48.4,41.5-4.8,68.2c88,53.9,185.1,38.7,184.1-2
		c-0.4-19.2,12.5-42.6,18.6-60.1c6.5-18.8,13-37.7,18-56.9C572.3,1251.5,590.4,1192.7,553.3,1202.8z"/>
	<path class="st2" d="M521.3,1411.6c-1.5,0-2.8-0.9-3.3-2.3c-0.7-1.9-71.3-190.8-143.6-246.4c-56.8-43.7-99.8-111.5-104.7-164.8
		c-2.5-27,4.3-49.6,20-67.2c1.3-1.4,3.5-1.5,5-0.2c1.4,1.3,1.5,3.5,0.3,4.9c-14.4,16.1-20.6,36.9-18.3,61.8
		c4.7,51.5,46.7,117.3,102,159.9c31.1,23.9,65.1,73.3,101.1,146.6c26.7,54.4,44.6,102.5,44.8,103c0.7,1.8-0.3,3.8-2.1,4.5
		C522.1,1411.6,521.7,1411.6,521.3,1411.6z"/>
	<path class="st1" d="M1847.9,972.6c-6.7-16-10.7-32.9-18.4-48.6c-16.3-33.2-40.7-58.3-64.2-86c-16.2-19-43.8-52.7-21.2-77
		c11.1-11.9,29.3-13.4,44.3-11.6c45.4,5.5,61.9,16.4,51.8-37.5c-5.6-29.9-21.5-56.9-27.8-86.3c-6.3-29.8-9.3-116.3,22.4-136.8
		c56.4-36.3,91.7,100.8,100.4,132.2c0.3,1.2,0.6,2.5,0.7,3.8c0.4,4.5,4.4,7.7,8.9,7.3c2.9-0.3,5.4-2.1,6.6-4.7
		c2.2-4.7,3.9-9.1,4-12.8c0.9-18.2-4.7-38.3-9.5-55.7c-6.4-23.6-15.3-46.6-24.7-69.2c-10.6-25.6-16.9-52.4-7.7-79.4
		c9-26.6,27.7-48.5,44.4-70.6c22-29.1,37.5-68.9,72.1-85.9c40.8-20.1,81.7,10.3,103.6,44.2c35.4,54.8,15.6,115.1-11.2,168.6
		c-19,37.9-67.2,95.4-66.1,141.9c0.1,4.5,3.8,8.1,8.3,7.9c1.2,0,2.4-0.3,3.5-0.9c8.4-4.3,15.1-11.8,22.1-19.7
		c24.9-27.7,46.6-58.8,69-88.6c15.4-20.5,36.9-56.8,65.5-59.3c33.4-3,32.9,60.6,30.3,80.4c-13.5,101.3-107.4,151.7-157,232.9
		c-10.2,16.7-32.4,47.2-30.1,67.5c4.4,39.2,52.4-4.2,73.3-10.6c29-9,79.8-9.1,80.2,30.7c0.4,46.2-39.5,86.1-81.1,99.9
		c-33.4,11.1-71.5,15-103.1,30.5c-28.9,14.2-11.6,46.2,17.4,37.3c12-3.7,24-8.4,35.6-13c11.3-4.4,44.6-22.7,52.9-5.7
		c6.3,13-6.8,35.6-12,46.7c-58.5,123.9-106.7,101.2-174.2,125.4c-19.4,7-32.5,22.7-39.5,41.7c-3,8.2-2.7,38.9-12,41.7
		c-12.9,3.8-30.9-22.9-36.4-30.6c-10.2-14.2-22.6-26.5-32.8-40.7c-17.6-24.5-46.5-60.6-43.2-93c1.6-16,15.4-22.5,30.3-23.7
		c25.2-2,65.2-6.7,49.1-41.5C1864.2,1006.8,1855.1,990.1,1847.9,972.6z"/>
	<path class="st2" d="M1899.1,1252.4c1.9,0,3.5-1.5,3.5-3.4c0-1.7,3.6-169.7,40.7-282.4c37-112.1,62.7-331.5,56-390.4
		c-5.8-51.4,14.7-266.6,59.1-315.6c5.8-6.4,11.8-9.6,17.8-9.6c1.9-0.2,3.4-1.9,3.2-3.8c-0.2-1.7-1.4-3-3.1-3.2
		c-8.1-0.1-15.9,3.9-23.1,11.9c-48.6,53.6-66,275.5-60.8,321.2c5.9,52.2-16.7,269-55.7,387.4c-37.5,113.7-41.1,282.8-41.1,284.5
		C1895.5,1250.8,1897,1252.4,1899.1,1252.4C1899,1252.4,1899,1252.4,1899.1,1252.4L1899.1,1252.4z"/>
	<path class="st3" d="M1919.4,1185.6c15.8,4.3,66.8,46.7,64.4,10.6c-3.1-46.3-53.5-83.1-57.2-130.5c-2.2-27.6,23.5-44.1,48.5-49
		c43.8-8.6,59.2,77.9,81,107c4.6,6.1,9.6-113.8,10.6-118.8c3-14.3,10.4-40.5,25.4-47.1c36.2-15.9,50.2,31.2,54.4,58.4
		c0.3,2.2,2.4,3.8,4.6,3.4c1-0.1,1.9-0.7,2.5-1.4c23.1-27.6,5.4-56.9,18.4-88.9c18-44.1,55.5,1,70.7,22
		c26.1,36.1,30.8,84.6-10,112.8c-37.5,25.9-56,42.5-31.4,49.3c32.3,8.9,58.1,43.4,41.9,76.1c-16.9,34.2-69.2,52.3-102.7,64.5
		c-13.2,4.8-47.8,4.4-50.4,22.8c-2.2,15.4,21,22.3,31.4,27.8c39.6,20.6,48.4,41.5,4.8,68.2c-88,53.9-185.1,38.7-184.1-2
		c0.4-19.2-12.5-42.6-18.6-60.1c-6.5-18.8-13-37.7-18-56.9C1900.4,1234.3,1882.3,1175.5,1919.4,1185.6z"/>
	<path class="st2" d="M1951.4,1394.4c1.5,0,2.8-0.9,3.3-2.3c0.7-1.9,71.3-190.8,143.6-246.4c56.8-43.7,99.8-111.5,104.7-164.8
		c2.5-27-4.3-49.6-20-67.2c-1.3-1.4-3.5-1.5-5-0.2c-1.4,1.3-1.5,3.5-0.3,4.9c14.4,16.1,20.6,36.9,18.3,61.8
		c-4.7,51.5-46.7,117.3-102,159.9c-31.1,23.9-65.1,73.3-101.1,146.6c-26.7,54.4-44.6,102.5-44.8,103c-0.7,1.8,0.2,3.8,2.1,4.5
		C1950.7,1394.4,1951.1,1394.4,1951.4,1394.4L1951.4,1394.4z"/>
	
		<linearGradient id="SVGID_2_" gradientUnits="userSpaceOnUse" x1="1196.2269" y1="221.89" x2="1295.2369" y2="1302" gradientTransform="matrix(1 0 0 -1 0 1647.8898)">
		<stop  offset="0" style="stop-color:#09005D"/>
		<stop  offset="1" style="stop-color:#1A0F91"/>
	</linearGradient>
	<path class="st4" d="M437.1,543.2V1285c0,61,46.9,110.9,105.7,112.5c261.2,7,1174.7,23.9,1423.3,20.1c42.7-0.7,77.3-36.1,78.6-80.4
		c4.8-172.3,12.6-586.7-16.2-779.1c-6.1-40.5-39-70.8-78.5-72.1c-218.9-7.2-1187.2-30.3-1435.7-24.5
		C471.3,462.4,437.1,498.8,437.1,543.2z"/>
	
		<linearGradient id="SVGID_3_" gradientUnits="userSpaceOnUse" x1="481.93" y1="739.5585" x2="1994.6902" y2="739.5585" gradientTransform="matrix(1 0 0 -1 0 1647.8898)">
		<stop  offset="0" style="stop-color:#4042E2"/>
		<stop  offset="1" style="stop-color:#4F52FF"/>
	</linearGradient>
	<path class="st5" d="M481.9,539.6v704.7c0,35.6,27.6,64.7,61.9,65.2l1386.4,17.8c34,0.5,62-27.9,62.1-63.2l2.3-698.4
		c0.1-25.3-19.3-46-43.7-46.6L531.6,489.4C504.4,488.7,481.9,511.4,481.9,539.6z"/>
	<path class="st1" d="M523.6,565.7V1208c0,32.5,26.1,58.9,58.5,59.4l1311.1,16.2c31.9,0.5,58.2-25,58.7-56.9c0-0.2,0-0.4,0-0.7
		l2.2-636.5c0.1-23-18.3-41.9-41.3-42.5L570.5,519.8c-25.3-0.6-46.3,19.4-46.9,44.7C523.6,564.9,523.6,565.3,523.6,565.7z"/>
	<path class="st6" d="M2002.8,1356.4L2002.8,1356.4l-1520.9-26.9c-1.2,0-2.2-1-2.1-2.2c0,0,0,0,0,0c0-1.1,0.9-2.1,2-2.1
		c0.1,0,0.1,0,0.2,0l1520.9,26.8c1.2,0,2.2,1,2.2,2.2C2005,1355.4,2004,1356.4,2002.8,1356.4L2002.8,1356.4z"/>
	
		<linearGradient id="SVGID_4_" gradientUnits="userSpaceOnUse" x1="1349.6891" y1="808.5399" x2="1214.6793" y2="82.4599" gradientTransform="matrix(1 0 0 -1 0 1647.8898)">
		<stop  offset="0" style="stop-color:#09005D"/>
		<stop  offset="1" style="stop-color:#1A0F91"/>
	</linearGradient>
	<path class="st7" d="M2106.6,1401.8c0,21.1-17.1,38.2-38.1,38.2c0,0,0,0,0,0H421.8c-21.1,0-38.2-17.1-38.2-38.2l0,0
		c0-21.1,17.1-38.2,38.2-38.2h1646.6C2089.5,1363.7,2106.5,1380.8,2106.6,1401.8C2106.5,1401.8,2106.5,1401.8,2106.6,1401.8
		L2106.6,1401.8z"/>
	<path class="st3" d="M1010.8,592.5c-5.8-6-13.8-9.4-22.1-9.6H588.2c-17.2,0-30.1,14.7-30.1,31.9v54.5c0,8.3,2.8,16.3,8.8,22.2
		c5.8,5.9,13.8,9.1,22.1,9l400-5.9c17-0.3,30.6-14,30.7-31l0.3-48.8C1020,606.5,1016.7,598.4,1010.8,592.5z"/>
	<path class="st3" d="M1011.9,752.9c-5.4-5.3-12.7-8.2-20.3-8l-393.8,9.2c-15.5,0.4-27.7,13.2-27.3,28.7c0,0.3,0,0.6,0,1l25.2,421.9
		c0.9,14.9,13.4,26.5,28.3,26.3l368.8-5.3c15.3-0.2,27.7-12.7,27.7-28V772.9C1020.4,765.3,1017.3,758.1,1011.9,752.9z"/>
	<path class="st3" d="M1918.6,613c-10.7-17.8-111.8-11.4-140-13.9c-39.1-3.4-52.3,7.2-51.4,42.1c0,0.1,13.6,508.2,13.6,508.3
		c1.1,39.8,49.1,31,78.7,27.9c32.6-3.4,86.7,8,88.1-34.8c0-0.1,16.1-501.5,16.2-503.8C1924.1,629.5,1922.9,620.2,1918.6,613z"/>
	
		<linearGradient id="SVGID_5_" gradientUnits="userSpaceOnUse" x1="1349.9276" y1="722.6201" x2="1206.7476" y2="375.8801" gradientTransform="matrix(1 0 0 -1 0 1647.8898)">
		<stop  offset="0" style="stop-color:#2B3582"/>
		<stop  offset="1" style="stop-color:#150E42"/>
	</linearGradient>
	<path class="st8" d="M1184.6,1173.4c-4.2,0-7.6-3.3-7.8-7.5c-0.2-4.9-2.8-120.8,77.1-133.1c17-2.6,32.1,1.4,45,12
		c39.5,32.5,43.2,117,43.3,120.6c0.3,4.3-2.9,8-7.2,8.3s-8-2.9-8.3-7.2c0-0.2,0-0.3,0-0.5c0-0.8-3.6-81.1-37.7-109.2
		c-9.4-7.8-20.1-10.6-32.7-8.6c-66.5,10.3-64,116.2-64,117.3c0.1,4.3-3.2,7.9-7.5,8c0,0,0,0,0,0L1184.6,1173.4z"/>
	
		<linearGradient id="SVGID_6_" gradientUnits="userSpaceOnUse" x1="902.2168" y1="90.0841" x2="1396.4368" y2="445.7541" gradientTransform="matrix(1 0 0 -1 0 1647.8898)">
		<stop  offset="0" style="stop-color:#FE7062"/>
		<stop  offset="1" style="stop-color:#FF928E"/>
	</linearGradient>
	<path class="st9" d="M1045.3,1463.7l56.8-324.1l213.4-3.5l68.8,349h-320.6c-10.3,0-18.7-8.4-18.7-18.7
		C1045.2,1465.5,1045.2,1464.6,1045.3,1463.7z"/>
	
		<linearGradient id="SVGID_7_" gradientUnits="userSpaceOnUse" x1="1315.8783" y1="309.3335" x2="909.8782" y2="107.3335" gradientTransform="matrix(1 0 0 -1 0 1647.8898)">
		<stop  offset="0" style="stop-color:#FE7062"/>
		<stop  offset="1" style="stop-color:#FF928E"/>
	</linearGradient>
	<path class="st10" d="M1357,1139.6l-41.4-3.5l68.8,349h41.2c7.3,0,13.1-5.9,13.1-13.2c0-0.9-0.1-1.8-0.3-2.7L1357,1139.6z"/>
	
		<linearGradient id="SVGID_8_" gradientUnits="userSpaceOnUse" x1="1276.2909" y1="674.3214" x2="1152.0809" y2="334.4813" gradientTransform="matrix(1 0 0 -1 0 1647.8898)">
		<stop  offset="0" style="stop-color:#2B3582"/>
		<stop  offset="1" style="stop-color:#150E42"/>
	</linearGradient>
	<path class="st11" d="M1138.8,1172.5c-4.2,0-7.6-3.3-7.8-7.5c-0.2-4.9-2.8-120.8,77.1-133.2c17-2.6,32.1,1.4,45,12
		c39.5,32.5,43.2,117,43.3,120.6c0,4.3-3.4,7.8-7.7,7.8c-4.1,0-7.5-3.1-7.8-7.2c0-0.8-3.6-81.1-37.7-109.2
		c-9.4-7.8-20.1-10.6-32.7-8.6c-66.5,10.3-64,116.2-64,117.3c0.1,4.3-3.2,7.9-7.5,8L1138.8,1172.5z"/>
	<path class="st12" d="M1696.9,416.8v153.6c0,12.5-7.6,22.7-17,22.7h-559.8c-7.8,0-14.6,7.1-16.5,17.2l-10,53.5
		c-1.3,7.1-8.7,7.7-10.7,0.8l-12.9-45.2c-2.5-8.8-8.8-14.6-15.9-14.6H1030c-9.4,0-17-10.2-17-22.7V424.2c0-12.4,7.5-22.6,16.9-22.7
		l649.9-7.4C1689.2,394.1,1696.9,404.2,1696.9,416.8z"/>
	
		<linearGradient id="SVGID_9_" gradientUnits="userSpaceOnUse" x1="1108.7008" y1="1255.7092" x2="955.7408" y2="1029.2792" gradientTransform="matrix(-1 0 0 -1 2139 1647.8898)">
		<stop  offset="0" style="stop-color:#4042E2"/>
		<stop  offset="1" style="stop-color:#4F52FF"/>
	</linearGradient>
	<ellipse class="st13" cx="1099.5" cy="494.6" rx="68.7" ry="70.5"/>
	<path class="st3" d="M1124.4,466.1c0,12.7-10.3,26.3-22.9,26.3s-22.9-13.7-22.9-26.3s10.3-21.6,22.9-21.6
		S1124.4,453.4,1124.4,466.1z"/>
	<path class="st3" d="M1073,541.1h56c5.9,0,11.1-3.8,12.9-9.4l3-9.4c2.2-6.9-1.4-14.3-8.2-16.8c-22.8-8.3-46.3-7.2-70.4,0.8
		c-6.8,2.3-10.5,9.5-8.7,16.3l2.3,8.5C1061.6,537,1066.9,541.1,1073,541.1z"/>
	<path class="st14" d="M1625.7,513c0,7.4-6,13.3-13.3,13.3h-391.9c-7.4,0-13.3-6-13.3-13.3l0,0c0-7.4,6-13.3,13.3-13.3h391.9
		C1619.7,499.7,1625.7,505.6,1625.7,513L1625.7,513z"/>
	<path class="st14" d="M1220.9,543.7h209.7c7.1,0,12.9,5.8,12.9,12.9v0.4c0,7.1-5.8,12.9-12.9,12.9h-209.7
		c-7.1,0-12.9-5.8-12.9-12.9v-0.4C1208,549.4,1213.8,543.7,1220.9,543.7z"/>
	<path class="st14" d="M1462.9,543.7h153.2c7.1,0,12.8,5.7,12.8,12.8v0.5c0,7.1-5.7,12.8-12.8,12.8h-153.2
		c-7.1,0-12.8-5.7-12.8-12.8v-0.5C1450.1,549.4,1455.8,543.7,1462.9,543.7z"/>
	
		<linearGradient id="SVGID_10_" gradientUnits="userSpaceOnUse" x1="1217.1094" y1="1170.5659" x2="1241.9694" y2="1232.0659" gradientTransform="matrix(1 0 0 -1 0 1647.8898)">
		<stop  offset="0" style="stop-color:#FE7062"/>
		<stop  offset="1" style="stop-color:#FF928E"/>
	</linearGradient>
	<path class="st15" d="M1262.5,445.9c1-1,1-2.6,0-3.6c-0.4-0.4-0.9-0.7-1.5-0.8l-20.5-3l-9.1-18.5c-0.4-0.9-1.3-1.4-2.3-1.4
		c-1,0-1.9,0.6-2.3,1.4l-8.6,17.3c-0.4,0.8-1.1,1.3-1.9,1.4l-19.1,2.8c-1.4,0.2-2.4,1.5-2.2,2.9c0.1,0.6,0.3,1.1,0.8,1.5l13.8,13.5
		c0.6,0.6,0.9,1.4,0.7,2.3l-3.3,19c-0.2,1.4,0.7,2.7,2.1,3c0.6,0.1,1.1,0,1.6-0.3l17.1-9c0.8-0.4,1.7-0.4,2.4,0l17.1,9
		c1.3,0.7,2.8,0.2,3.5-1.1c0.3-0.5,0.4-1.1,0.3-1.6l-3.3-19c-0.1-0.8,0.1-1.7,0.7-2.3L1262.5,445.9z"/>
	
		<linearGradient id="SVGID_11_" gradientUnits="userSpaceOnUse" x1="1308.7107" y1="1170.5614" x2="1333.5708" y2="1232.0614" gradientTransform="matrix(1 0 0 -1 0 1647.8898)">
		<stop  offset="0" style="stop-color:#FE7062"/>
		<stop  offset="1" style="stop-color:#FF928E"/>
	</linearGradient>
	<path class="st16" d="M1354.1,445.9c1-1,1-2.6,0-3.6c-0.4-0.4-0.9-0.7-1.5-0.8l-20.5-3L1323,420c-0.6-1.3-2.2-1.8-3.5-1.2
		c-0.5,0.3-0.9,0.7-1.2,1.2l-8.6,17.3c-0.4,0.8-1.1,1.3-1.9,1.4l-19.1,2.8c-1.4,0.2-2.4,1.5-2.2,2.9c0.1,0.6,0.3,1.1,0.8,1.5
		l13.8,13.5c0.6,0.6,0.9,1.4,0.7,2.3l-3.3,19c-0.2,1.4,0.7,2.7,2.1,3c0.6,0.1,1.2,0,1.7-0.3l17.1-9c0.8-0.4,1.7-0.4,2.4,0l17.1,9
		c1.3,0.7,2.8,0.2,3.5-1.1c0.3-0.5,0.4-1.1,0.3-1.7l-3.3-19c-0.1-0.8,0.1-1.7,0.8-2.3L1354.1,445.9z"/>
	
		<linearGradient id="SVGID_12_" gradientUnits="userSpaceOnUse" x1="1400.2844" y1="1170.572" x2="1425.1444" y2="1232.072" gradientTransform="matrix(1 0 0 -1 0 1647.8898)">
		<stop  offset="0" style="stop-color:#FE7062"/>
		<stop  offset="1" style="stop-color:#FF928E"/>
	</linearGradient>
	<path class="st17" d="M1445.6,445.9c1-1,1-2.6,0-3.6c-0.4-0.4-0.9-0.7-1.5-0.8l-20.5-3l-9.2-18.5c-0.4-0.9-1.3-1.4-2.3-1.4
		c-1,0-1.8,0.6-2.3,1.4l-8.6,17.3c-0.4,0.8-1.1,1.3-2,1.4l-19.1,2.8c-1.4,0.2-2.4,1.5-2.2,2.9c0.1,0.6,0.3,1.1,0.8,1.5l13.8,13.5
		c0.6,0.6,0.9,1.4,0.7,2.3l-3.3,19c-0.2,1.4,0.7,2.7,2.1,3c0.6,0.1,1.1,0,1.6-0.3l17.1-9c0.8-0.4,1.7-0.4,2.4,0l17.1,9
		c0.9,0.5,1.9,0.4,2.7-0.2c0.8-0.6,1.2-1.6,1-2.5l-3.3-19c-0.1-0.8,0.1-1.7,0.7-2.3L1445.6,445.9z"/>
	
		<linearGradient id="SVGID_13_" gradientUnits="userSpaceOnUse" x1="1491.877" y1="1170.571" x2="1516.7369" y2="1232.071" gradientTransform="matrix(1 0 0 -1 0 1647.8898)">
		<stop  offset="0" style="stop-color:#4042E2"/>
		<stop  offset="1" style="stop-color:#4F52FF"/>
	</linearGradient>
	<path class="st18" d="M1537.2,445.9c1-1,1-2.6,0-3.6c-0.4-0.4-0.9-0.7-1.5-0.8l-20.5-3l-9.1-18.5c-0.6-1.3-2.2-1.8-3.5-1.2
		c-0.5,0.3-0.9,0.7-1.2,1.2l-8.6,17.3c-0.4,0.8-1.1,1.3-1.9,1.4l-19.1,2.8c-1,0.1-1.8,0.8-2.1,1.8c-0.3,0.9,0,2,0.7,2.6l13.8,13.5
		c0.6,0.6,0.9,1.4,0.7,2.3l-3.3,19c-0.2,1.4,0.7,2.7,2.1,3c0.6,0.1,1.2,0,1.7-0.3l17.1-9c0.8-0.4,1.7-0.4,2.4,0l17.1,9
		c1.3,0.7,2.8,0.2,3.5-1.1c0.3-0.5,0.4-1.1,0.3-1.6l-3.3-19c-0.1-0.8,0.1-1.7,0.8-2.3L1537.2,445.9z"/>
	
		<linearGradient id="SVGID_14_" gradientUnits="userSpaceOnUse" x1="1583.4709" y1="1170.5693" x2="1608.3409" y2="1232.0693" gradientTransform="matrix(1 0 0 -1 0 1647.8898)">
		<stop  offset="0" style="stop-color:#4042E2"/>
		<stop  offset="1" style="stop-color:#4F52FF"/>
	</linearGradient>
	<path class="st19" d="M1628.8,445.9c0.7-0.7,1-1.7,0.7-2.6c-0.3-0.9-1.1-1.6-2.1-1.8l-20.5-3l-9.2-18.5c-0.6-1.3-2.2-1.8-3.5-1.2
		c-0.5,0.3-0.9,0.7-1.2,1.2l-8.6,17.3c-0.4,0.8-1.1,1.3-1.9,1.4l-19.1,2.8c-1.4,0.2-2.4,1.5-2.2,2.9c0.1,0.6,0.3,1.1,0.8,1.5
		l13.8,13.5c0.6,0.6,0.9,1.4,0.7,2.3l-3.3,19c-0.2,1.4,0.7,2.7,2.1,3c0.6,0.1,1.1,0,1.6-0.3l17.1-9c0.8-0.4,1.7-0.4,2.4,0l17.1,9
		c0.9,0.5,1.9,0.4,2.7-0.2c0.8-0.6,1.2-1.6,1-2.5l-3.3-19c-0.2-0.8,0.1-1.7,0.7-2.3L1628.8,445.9z"/>
	<path class="st12" d="M1696.9,720.1v153.6c0,12.5-7.6,22.7-17,22.7h-559.8c-7.8,0-14.6,7.1-16.5,17.2l-10,53.5
		c-1.3,7.1-8.7,7.7-10.7,0.8l-12.9-45.2c-2.5-8.8-8.8-14.6-15.9-14.6H1030c-9.4,0-17-10.2-17-22.7V727.5c0-12.4,7.5-22.6,16.9-22.7
		l649.9-7.4C1689.2,697.3,1696.9,707.5,1696.9,720.1z"/>
	
		<linearGradient id="SVGID_15_" gradientUnits="userSpaceOnUse" x1="1108.7018" y1="952.4286" x2="955.7417" y2="725.9986" gradientTransform="matrix(-1 0 0 -1 2139 1647.8898)">
		<stop  offset="0" style="stop-color:#4042E2"/>
		<stop  offset="1" style="stop-color:#4F52FF"/>
	</linearGradient>
	<path class="st20" d="M1030.8,797.9c0,38.9,30.7,70.5,68.7,70.5s68.7-31.5,68.7-70.5s-30.7-70.5-68.7-70.5S1030.8,759,1030.8,797.9
		z"/>
	<path class="st3" d="M1124.4,769.3c0,12.7-10.3,26.3-22.9,26.3s-22.9-13.7-22.9-26.3s10.3-21.6,22.9-21.6
		S1124.4,756.7,1124.4,769.3z"/>
	<path class="st3" d="M1073,844.4h56c5.9,0,11.1-3.8,12.9-9.4l3-9.4c2.2-6.9-1.4-14.3-8.2-16.8c-22.8-8.3-46.3-7.2-70.4,0.8
		c-6.8,2.3-10.5,9.5-8.7,16.3l2.3,8.5C1061.6,840.3,1066.9,844.4,1073,844.4z"/>
	<path class="st14" d="M1208.1,816.3c0,7.4,6,13.3,13.3,13.3h391.9c7.4,0,13.3-6,13.3-13.3l0,0c0-7.3-6-13.3-13.3-13.3h-391.9
		C1214,803,1208.1,808.9,1208.1,816.3C1208.1,816.3,1208.1,816.3,1208.1,816.3L1208.1,816.3z"/>
	<path class="st14" d="M1406.3,849H1616c7.1,0,12.9,5.8,12.9,12.9v0.4c0,7.1-5.8,12.9-12.9,12.9h-209.7c-7.1,0-12.9-5.8-12.9-12.9
		v-0.4C1393.4,854.8,1399.2,849,1406.3,849z"/>
	<path class="st14" d="M1220.9,849H1374c7.1,0,12.8,5.7,12.8,12.8v0.5c0,7.1-5.7,12.8-12.8,12.8h-153.2c-7.1,0-12.8-5.7-12.8-12.8
		v-0.5C1208,854.7,1213.8,849,1220.9,849z"/>
	
		<linearGradient id="SVGID_16_" gradientUnits="userSpaceOnUse" x1="1217.0845" y1="867.2961" x2="1241.9445" y2="928.7961" gradientTransform="matrix(1 0 0 -1 0 1647.8898)">
		<stop  offset="0" style="stop-color:#FE7062"/>
		<stop  offset="1" style="stop-color:#FF928E"/>
	</linearGradient>
	<path class="st21" d="M1262.5,749.2c0.7-0.7,1-1.7,0.7-2.7c-0.3-0.9-1.1-1.6-2.1-1.8l-20.5-3l-9.2-18.5c-0.4-0.9-1.3-1.4-2.3-1.4
		c-1,0-1.9,0.6-2.3,1.4l-8.6,17.3c-0.4,0.8-1.1,1.3-1.9,1.4l-19.1,2.8c-1.4,0.2-2.4,1.5-2.2,2.9c0.1,0.6,0.3,1.1,0.8,1.5l13.8,13.5
		c0.6,0.6,0.9,1.5,0.7,2.3L1207,784c-0.2,1.4,0.7,2.7,2.1,3c0.6,0.1,1.1,0,1.6-0.3l17.1-9c0.8-0.4,1.7-0.4,2.4,0l17.1,9
		c1.3,0.7,2.8,0.2,3.5-1.1c0.3-0.5,0.4-1.1,0.3-1.6l-3.3-19c-0.1-0.8,0.1-1.7,0.7-2.3L1262.5,749.2z"/>
	
		<linearGradient id="SVGID_17_" gradientUnits="userSpaceOnUse" x1="1308.6934" y1="867.2884" x2="1333.5535" y2="928.7884" gradientTransform="matrix(1 0 0 -1 0 1647.8898)">
		<stop  offset="0" style="stop-color:#FE7062"/>
		<stop  offset="1" style="stop-color:#FF928E"/>
	</linearGradient>
	<path class="st22" d="M1354.1,749.2c1-1,1-2.6,0-3.6c-0.4-0.4-0.9-0.7-1.5-0.8l-20.5-3l-9.2-18.5c-0.6-1.3-2.2-1.8-3.5-1.2
		c-0.5,0.3-0.9,0.7-1.2,1.2l-8.6,17.3c-0.4,0.8-1.1,1.3-1.9,1.4l-19.1,2.8c-1.4,0.2-2.4,1.5-2.2,2.9c0.1,0.6,0.3,1.1,0.8,1.5
		l13.8,13.5c0.6,0.6,0.9,1.5,0.7,2.3l-3.3,19c-0.2,1.4,0.7,2.7,2.1,3c0.6,0.1,1.2,0,1.7-0.3l17.1-9c0.8-0.4,1.7-0.4,2.4,0l17.1,9
		c1.3,0.7,2.8,0.2,3.5-1.1c0.3-0.5,0.4-1.1,0.3-1.7l-3.3-19c-0.1-0.8,0.1-1.7,0.8-2.3L1354.1,749.2z"/>
	
		<linearGradient id="SVGID_18_" gradientUnits="userSpaceOnUse" x1="1400.2279" y1="867.3149" x2="1425.0879" y2="928.8149" gradientTransform="matrix(1 0 0 -1 0 1647.8898)">
		<stop  offset="0" style="stop-color:#FE7062"/>
		<stop  offset="1" style="stop-color:#FF928E"/>
	</linearGradient>
	<path class="st23" d="M1445.6,749.2c1-1,1.1-2.6,0.1-3.6c-0.4-0.4-0.9-0.7-1.5-0.8l-20.5-3l-9.2-18.5c-0.4-0.9-1.3-1.4-2.3-1.4
		c-1,0-1.9,0.6-2.3,1.4l-8.6,17.3c-0.4,0.8-1.1,1.3-2,1.4l-19.1,2.8c-1,0.1-1.8,0.8-2.1,1.8c-0.3,0.9-0.1,2,0.7,2.7l13.8,13.5
		c0.6,0.6,0.9,1.5,0.7,2.3l-3.3,19c-0.2,1.4,0.7,2.7,2.1,3c0.6,0.1,1.1,0,1.6-0.3l17.1-9c0.8-0.4,1.7-0.4,2.4,0l17.1,9
		c1.3,0.7,2.8,0.2,3.5-1.1c0.3-0.5,0.4-1.1,0.3-1.6l-3.3-19c-0.1-0.8,0.1-1.7,0.7-2.3L1445.6,749.2z"/>
	
		<linearGradient id="SVGID_19_" gradientUnits="userSpaceOnUse" x1="1491.8733" y1="867.2925" x2="1516.7333" y2="928.7925" gradientTransform="matrix(1 0 0 -1 0 1647.8898)">
		<stop  offset="0" style="stop-color:#FE7062"/>
		<stop  offset="1" style="stop-color:#FF928E"/>
	</linearGradient>
	<path class="st24" d="M1537.2,749.2c1-1,1-2.6,0-3.6c-0.4-0.4-0.9-0.7-1.5-0.8l-20.5-3l-9.2-18.5c-0.6-1.3-2.2-1.8-3.5-1.2
		c-0.5,0.3-0.9,0.7-1.2,1.2l-8.5,17.4c-0.4,0.8-1.1,1.3-1.9,1.4l-19.1,2.8c-1.4,0.2-2.4,1.5-2.2,2.9c0.1,0.6,0.3,1.1,0.8,1.5
		l13.8,13.5c0.6,0.6,0.9,1.5,0.7,2.3l-3.3,19c-0.2,1.4,0.7,2.7,2.1,3c0.6,0.1,1.2,0,1.7-0.3l17.1-9c0.8-0.4,1.7-0.4,2.4,0l17.1,9
		c1.3,0.7,2.8,0.2,3.5-1.1c0.3-0.5,0.4-1.1,0.3-1.6l-3.3-19c-0.1-0.8,0.1-1.7,0.8-2.3L1537.2,749.2z"/>
	
		<linearGradient id="SVGID_20_" gradientUnits="userSpaceOnUse" x1="1583.4574" y1="867.2949" x2="1608.3274" y2="928.7949" gradientTransform="matrix(1 0 0 -1 0 1647.8898)">
		<stop  offset="0" style="stop-color:#FE7062"/>
		<stop  offset="1" style="stop-color:#FF928E"/>
	</linearGradient>
	<path class="st25" d="M1628.8,749.2c1-1,1.1-2.6,0.1-3.6c-0.4-0.4-0.9-0.7-1.5-0.8l-20.5-3l-9.2-18.5c-0.6-1.3-2.2-1.8-3.5-1.2
		c-0.5,0.3-0.9,0.7-1.2,1.2l-8.6,17.3c-0.4,0.8-1.1,1.3-1.9,1.4l-19.1,2.8c-1,0.1-1.8,0.8-2.1,1.8c-0.3,0.9-0.1,2,0.7,2.7l13.8,13.5
		c0.6,0.6,0.9,1.5,0.7,2.3l-3.3,19c-0.2,1.4,0.7,2.7,2.1,3c0.6,0.1,1.1,0,1.6-0.3l17.1-9c0.8-0.4,1.7-0.4,2.4,0l17.1,9
		c1.3,0.7,2.8,0.2,3.5-1.1c0.3-0.5,0.4-1.1,0.3-1.6l-3.3-19c-0.1-0.8,0.1-1.7,0.7-2.3L1628.8,749.2z"/>
	<path class="st12" d="M1696.9,1022.6v153.6c0,12.5-7.6,22.7-17,22.7h-559.8c-7.8,0-14.6,7.1-16.5,17.2l-10,53.5
		c-1.3,7.1-8.7,7.7-10.7,0.8l-12.9-45.2c-2.5-8.8-8.8-14.6-15.9-14.6H1030c-9.4,0-17-10.2-17-22.7V1030c0-12.4,7.5-22.6,16.9-22.7
		l649.9-7.4C1689.2,999.8,1696.9,1010,1696.9,1022.6z"/>
	
		<linearGradient id="SVGID_21_" gradientUnits="userSpaceOnUse" x1="1108.7008" y1="649.9792" x2="955.7408" y2="423.5493" gradientTransform="matrix(-1 0 0 -1 2139 1647.8898)">
		<stop  offset="0" style="stop-color:#4042E2"/>
		<stop  offset="1" style="stop-color:#4F52FF"/>
	</linearGradient>
	<ellipse class="st26" cx="1099.5" cy="1100.3" rx="68.7" ry="70.5"/>
	<path class="st3" d="M1124.4,1071.8c0,12.7-10.3,26.3-22.9,26.3s-22.9-13.7-22.9-26.3s10.3-21.6,22.9-21.6
		S1124.4,1059.1,1124.4,1071.8z"/>
	<path class="st3" d="M1073,1146.8h56c5.9,0,11.1-3.8,12.9-9.4l3-9.4c2.2-6.9-1.4-14.3-8.2-16.8c-22.8-8.3-46.3-7.3-70.4,0.8
		c-6.8,2.3-10.5,9.5-8.7,16.3l2.3,8.6C1061.6,1142.7,1066.9,1146.8,1073,1146.8z"/>
	<path class="st14" d="M1625.7,1118.7c0,7.4-6,13.3-13.3,13.3h-391.9c-7.4,0-13.3-6-13.3-13.3l0,0c0-7.4,6-13.3,13.3-13.3h391.9
		C1619.7,1105.4,1625.7,1111.4,1625.7,1118.7L1625.7,1118.7z"/>
	<path class="st14" d="M1220.9,1149.9h209.7c7.1,0,12.9,5.8,12.9,12.9v0.4c0,7.1-5.8,12.9-12.9,12.9h-209.7
		c-7.1,0-12.9-5.8-12.9-12.9v-0.4C1208,1155.7,1213.8,1149.9,1220.9,1149.9z"/>
	<path class="st14" d="M1462.9,1149.9h153.2c7.1,0,12.8,5.7,12.8,12.8v0.5c0,7.1-5.7,12.8-12.8,12.8h-153.2
		c-7.1,0-12.8-5.7-12.8-12.8v-0.5C1450.1,1155.7,1455.8,1149.9,1462.9,1149.9z"/>
	
		<linearGradient id="SVGID_22_" gradientUnits="userSpaceOnUse" x1="1217.0753" y1="564.8497" x2="1241.9353" y2="626.3497" gradientTransform="matrix(1 0 0 -1 0 1647.8898)">
		<stop  offset="0" style="stop-color:#FE7062"/>
		<stop  offset="1" style="stop-color:#FF928E"/>
	</linearGradient>
	<path class="st27" d="M1262.5,1051.6c1-1,1-2.6,0-3.7c-0.4-0.4-0.9-0.7-1.5-0.7l-20.5-3l-9.2-18.6c-0.4-0.9-1.3-1.4-2.3-1.4
		c-1,0-1.9,0.6-2.3,1.4l-8.6,17.3c-0.4,0.8-1.1,1.3-1.9,1.4l-19.1,2.8c-1.4,0.2-2.4,1.5-2.2,2.9c0.1,0.6,0.3,1.1,0.8,1.5l13.8,13.5
		c0.6,0.6,0.9,1.5,0.7,2.3l-3.3,19c-0.2,1.4,0.7,2.7,2.1,3c0.6,0.1,1.1,0,1.6-0.3l17.1-9c0.8-0.4,1.6-0.4,2.4,0l17.1,9
		c1.3,0.7,2.8,0.2,3.5-1.1c0.3-0.5,0.3-1.1,0.3-1.6l-3.3-19c-0.1-0.8,0.1-1.7,0.7-2.3L1262.5,1051.6z"/>
	
		<linearGradient id="SVGID_23_" gradientUnits="userSpaceOnUse" x1="1308.6775" y1="564.8447" x2="1333.5376" y2="626.3448" gradientTransform="matrix(1 0 0 -1 0 1647.8898)">
		<stop  offset="0" style="stop-color:#4042E2"/>
		<stop  offset="1" style="stop-color:#4F52FF"/>
	</linearGradient>
	<path class="st28" d="M1354.1,1051.6c1-1,1-2.6,0-3.7c-0.4-0.4-0.9-0.7-1.5-0.7l-20.5-3l-9.2-18.6c-0.6-1.3-2.2-1.8-3.5-1.2
		c-0.5,0.3-0.9,0.7-1.2,1.2l-8.6,17.3c-0.4,0.8-1.1,1.3-1.9,1.4l-19.1,2.8c-1.4,0.2-2.4,1.5-2.2,2.9c0.1,0.6,0.3,1.1,0.7,1.5
		l13.8,13.5c0.6,0.6,0.9,1.5,0.7,2.3l-3.3,19c-0.2,1.4,0.7,2.7,2.1,3c0.6,0.1,1.1,0,1.6-0.3l17.1-9c0.8-0.4,1.7-0.4,2.4,0l17.1,9
		c1.3,0.7,2.8,0.2,3.5-1.1c0.3-0.5,0.4-1.1,0.3-1.6l-3.3-19c-0.1-0.8,0.1-1.7,0.8-2.3L1354.1,1051.6z"/>
	
		<linearGradient id="SVGID_24_" gradientUnits="userSpaceOnUse" x1="1400.2274" y1="564.865" x2="1425.0874" y2="626.3651" gradientTransform="matrix(1 0 0 -1 0 1647.8898)">
		<stop  offset="0" style="stop-color:#4042E2"/>
		<stop  offset="1" style="stop-color:#4F52FF"/>
	</linearGradient>
	<path class="st29" d="M1445.6,1051.6c1-1,1.1-2.6,0.1-3.6c-0.4-0.4-0.9-0.7-1.5-0.8l-20.5-3l-9.2-18.6c-0.4-0.9-1.3-1.4-2.3-1.4
		c-1,0-1.9,0.6-2.3,1.4l-8.5,17.3c-0.4,0.8-1.1,1.3-2,1.4l-19.1,2.8c-1.4,0.2-2.4,1.5-2.2,2.9c0.1,0.6,0.3,1.1,0.7,1.5l13.8,13.5
		c0.6,0.6,0.9,1.5,0.7,2.3l-3.3,19c-0.2,1.4,0.7,2.7,2.1,3c0.6,0.1,1.1,0,1.6-0.3l17.1-9c0.8-0.4,1.6-0.4,2.4,0l17.1,9
		c1.3,0.7,2.8,0.2,3.5-1.1c0.3-0.5,0.3-1.1,0.3-1.6l-3.3-19c-0.1-0.8,0.1-1.7,0.7-2.3L1445.6,1051.6z"/>
	
		<linearGradient id="SVGID_25_" gradientUnits="userSpaceOnUse" x1="1491.8704" y1="564.8436" x2="1516.7303" y2="626.3437" gradientTransform="matrix(1 0 0 -1 0 1647.8898)">
		<stop  offset="0" style="stop-color:#4042E2"/>
		<stop  offset="1" style="stop-color:#4F52FF"/>
	</linearGradient>
	<path class="st30" d="M1537.2,1051.6c1-1,1-2.6,0-3.7c-0.4-0.4-0.9-0.7-1.5-0.7l-20.5-3l-9.2-18.6c-0.6-1.3-2.2-1.8-3.5-1.2
		c-0.5,0.3-0.9,0.7-1.2,1.2l-8.5,17.3c-0.4,0.8-1.1,1.3-1.9,1.4l-19.1,2.8c-1.4,0.2-2.4,1.5-2.2,2.9c0.1,0.6,0.3,1.1,0.8,1.5
		l13.8,13.5c0.6,0.6,0.9,1.5,0.7,2.3l-3.3,19c-0.2,1.4,0.7,2.7,2.1,3c0.6,0.1,1.1,0,1.6-0.3l17.1-9c0.8-0.4,1.6-0.4,2.4,0l17.1,9
		c1.3,0.7,2.8,0.2,3.5-1.1c0.3-0.5,0.4-1.1,0.3-1.6l-3.3-19c-0.1-0.8,0.1-1.7,0.8-2.3L1537.2,1051.6z"/>
	
		<linearGradient id="SVGID_26_" gradientUnits="userSpaceOnUse" x1="1583.4534" y1="564.8464" x2="1608.3234" y2="626.3465" gradientTransform="matrix(1 0 0 -1 0 1647.8898)">
		<stop  offset="0" style="stop-color:#4042E2"/>
		<stop  offset="1" style="stop-color:#4F52FF"/>
	</linearGradient>
	<path class="st31" d="M1628.8,1051.6c1-1,1.1-2.6,0.1-3.6c-0.4-0.4-0.9-0.7-1.5-0.8l-20.5-3l-9.2-18.6c-0.6-1.3-2.2-1.8-3.5-1.2
		c-0.5,0.3-0.9,0.7-1.2,1.2l-8.6,17.3c-0.4,0.8-1.1,1.3-1.9,1.4l-19.1,2.8c-1.4,0.2-2.4,1.5-2.2,2.9c0.1,0.6,0.3,1.1,0.7,1.5
		l13.8,13.5c0.6,0.6,0.9,1.5,0.7,2.3l-3.3,19c-0.2,1.4,0.7,2.7,2.1,3c0.6,0.1,1.1,0,1.6-0.3l17.1-9c0.8-0.4,1.6-0.4,2.4,0l17.1,9
		c1.3,0.7,2.8,0.2,3.5-1.1c0.3-0.5,0.3-1.1,0.3-1.6l-3.3-19c-0.1-0.8,0.1-1.7,0.7-2.3L1628.8,1051.6z"/>
	
		<linearGradient id="SVGID_27_" gradientUnits="userSpaceOnUse" x1="1441.4823" y1="413.0188" x2="1577.84" y2="413.0188" gradientTransform="matrix(1 0 0 -1 0 1647.8898)">
		<stop  offset="0" style="stop-color:#09005D"/>
		<stop  offset="1" style="stop-color:#1A0F91"/>
	</linearGradient>
	<path class="st32" d="M1444.8,1292.7c-1.8,0-3.3-1.4-3.4-3.3c-0.2-17.4,2.1-34.7,6.6-51.4c9.9-35.2,29.7-56,57.2-60.3
		c13.7-2.1,25.9,1.1,36.3,9.7c33,27.2,36.1,98.8,36.2,101.8c0,1.9-1.5,3.4-3.4,3.4c-1.8,0-3.2-1.4-3.4-3.1c0-0.7-3.1-71.6-33.8-96.9
		c-8.8-7.2-19.2-10-31-8.2c-60.4,9.3-58.2,103.9-58.2,104.8C1448.2,1291.1,1446.8,1292.6,1444.8,1292.7
		C1444.9,1292.7,1444.9,1292.7,1444.8,1292.7L1444.8,1292.7z"/>
	
		<linearGradient id="SVGID_28_" gradientUnits="userSpaceOnUse" x1="1712.2748" y1="607.4474" x2="1490.2748" y2="261.4474" gradientTransform="matrix(1 0 0 -1 0 1647.8898)">
		<stop  offset="0" style="stop-color:#E1473D"/>
		<stop  offset="1" style="stop-color:#E9605A"/>
	</linearGradient>
	<path class="st33" d="M1324.4,1471l49.1-204.1l184.5-3l59.5,225.7h-277.1c-8.9,0-16.2-7.2-16.2-16.1
		C1324.3,1472.6,1324.3,1471.8,1324.4,1471z"/>
	
		<linearGradient id="SVGID_29_" gradientUnits="userSpaceOnUse" x1="1561.1327" y1="237.9082" x2="1692.8527" y2="332.6981" gradientTransform="matrix(1 0 0 -1 0 1647.8898)">
		<stop  offset="0" style="stop-color:#E1473D"/>
		<stop  offset="1" style="stop-color:#E9605A"/>
	</linearGradient>
	<path class="st34" d="M1593.9,1266.8l-35.8-3l59.5,225.7h35.6c6.3,0,11.4-5.1,11.4-11.4c0-0.8-0.1-1.6-0.2-2.3L1593.9,1266.8z"/>
	
		<linearGradient id="SVGID_30_" gradientUnits="userSpaceOnUse" x1="164.1633" y1="-45.7565" x2="263.4232" y2="-115.8765" gradientTransform="matrix(0.8782 0.4782 0.4782 -0.8782 1339.6543 1248.3457)">
		<stop  offset="0" style="stop-color:#4042E2"/>
		<stop  offset="1" style="stop-color:#4F52FF"/>
	</linearGradient>
	<path class="st35" d="M1544.1,1353l-5.6-18c-0.8-2.7-2.7-5.1-5.2-6.4l-25.8-14c-2.5-1.4-5.4-1.7-8.1-1l-18.4,5
		c-2.8,0.8-5.2,2.6-6.7,5.1l-65.3,112.7c-3.1,5.3-1.3,12,4,15c0.1,0.1,0.2,0.1,0.3,0.2l58.1,31.6c5.3,2.9,12,1,14.9-4.4
		c0.1-0.2,0.2-0.3,0.2-0.5l57-117.3C1544.8,1358.6,1545,1355.7,1544.1,1353z M1509.6,1341.9c-4.3-1.5-6.6-6.1-5.1-10.4
		s6.1-6.6,10.4-5.1s6.6,6.1,5.1,10.4c-0.3,0.9-0.8,1.7-1.3,2.4C1516.5,1342,1512.9,1343.1,1509.6,1341.9L1509.6,1341.9z"/>
	<path class="st1" d="M1475.3,1352.1l46.8,16.1c1.7,0.6,2.5,2.4,2,4.1c-0.1,0.2-0.1,0.3-0.2,0.5l-1.3,2.4c-0.8,1.4-2.5,2-4,1.4
		l-45.5-18.5c-1.6-0.7-2.4-2.5-1.8-4.1c0-0.1,0.1-0.2,0.2-0.3l0,0C1472.2,1352.2,1473.8,1351.5,1475.3,1352.1z"/>
	<path class="st1" d="M1468.3,1364.9l46.8,16.1c1.7,0.6,2.5,2.4,2,4c-0.1,0.2-0.1,0.3-0.2,0.5l-1.3,2.4c-0.8,1.4-2.5,2-4,1.4
		l-45.5-18.5c-1.6-0.7-2.4-2.5-1.7-4.1c0-0.1,0.1-0.2,0.2-0.3l0,0C1465.3,1365,1466.9,1364.3,1468.3,1364.9z"/>
	
		<linearGradient id="SVGID_31_" gradientUnits="userSpaceOnUse" x1="153.2274" y1="-131.1501" x2="189.5374" y2="-89.0001" gradientTransform="matrix(0.8823 0.4734 0.4734 -0.8823 1341.8777 1257.8627)">
		<stop  offset="0" style="stop-color:#E1473D"/>
		<stop  offset="1" style="stop-color:#E9605A"/>
	</linearGradient>
	<circle class="st36" cx="1463" cy="1427.6" r="27.1"/>
	
		<linearGradient id="SVGID_32_" gradientUnits="userSpaceOnUse" x1="213.9196" y1="-68.5748" x2="106.5396" y2="-230.7848" gradientTransform="matrix(0.8782 0.4782 0.4782 -0.8782 1339.6449 1248.2495)">
		<stop  offset="0" style="stop-color:#FE7062"/>
		<stop  offset="1" style="stop-color:#FF928E"/>
	</linearGradient>
	<circle class="st37" cx="1463" cy="1427.6" r="26.2"/>
	<path class="st6" d="M1478.2,1411.1c-0.5,0-1-0.2-1.4-0.5c-7.6-6.1-18.3-6.5-26.3-1c-0.9,0.8-2.3,0.7-3.1-0.3
		c-0.8-0.9-0.7-2.3,0.3-3.1c0.1-0.1,0.2-0.2,0.3-0.2c8.2-5.7,18.9-6.3,27.6-1.5c1.4,0.8,2.7,1.6,4,2.6c0.9,0.8,1.1,2.1,0.3,3.1
		C1479.5,1410.8,1478.9,1411.1,1478.2,1411.1z"/>
	<path class="st6" d="M1482.7,1439c-5.8,10.8-19.3,14.7-30,8.9c-10.8-5.8-14.7-19.3-8.9-30c5.8-10.8,19.3-14.7,30-8.9c0,0,0,0,0.1,0
		C1484.5,1414.9,1488.5,1428.3,1482.7,1439z"/>
	
		<linearGradient id="SVGID_33_" gradientUnits="userSpaceOnUse" x1="210.7061" y1="-73.2143" x2="153.5361" y2="-169.2043" gradientTransform="matrix(0.8782 0.4782 0.4782 -0.8782 1339.6543 1248.3457)">
		<stop  offset="0" style="stop-color:#FE7062"/>
		<stop  offset="1" style="stop-color:#FF928E"/>
	</linearGradient>
	<path class="st38" d="M1453.4,1441.9l1.2-2.1c-2-1.2-3.8-2.7-5.2-4.5c-0.4-0.6-0.4-1.3,0.1-1.8l1.6-1.7c0.5-0.6,1.4-0.6,2,0
		c0,0,0.1,0.1,0.1,0.1c1.3,1.7,3,3.1,4.8,4.2c2.1,1.2,4.1,1.3,4.9-0.2c0.7-1.3-0.1-2.8-2.6-5.2c-3.6-3.4-5.6-6.9-3.6-10.6
		c1.8-3.3,5.7-4.6,10.3-3l1.2-2.1c0.4-0.7,1.2-0.9,1.9-0.6c0,0,0,0,0,0l1.2,0.7c0.7,0.4,0.9,1.2,0.6,1.9l-1,1.9
		c1.6,0.9,3,2.1,4.2,3.4c0.5,0.5,0.5,1.4,0,1.9l-1.5,1.6c-0.5,0.6-1.4,0.6-2,0.1c0,0-0.1-0.1-0.1-0.1c-1.2-1.4-2.6-2.5-4.2-3.4
		c-2.5-1.4-3.8-0.7-4.3,0.2c-0.6,1.2,0.4,2.8,3.2,5.6c3.9,4,4.8,7,2.9,10.5c-1.8,3.2-5.7,4.8-10.7,3l-1.3,2.4
		c-0.4,0.7-1.2,0.9-1.9,0.6c0,0,0,0,0,0l-1.2-0.7C1453.3,1443.5,1453.1,1442.6,1453.4,1441.9
		C1453.4,1441.9,1453.4,1441.9,1453.4,1441.9z"/>
	<path class="st1" d="M1510.2,1339.1c-0.7-0.4-1.1-1.2-1.1-2c1-9.3,9-15.5,15.6-19.1c2-1.1,4.1-2.1,6.1-3.1c5.1-2.5,10-4.8,13.8-8.6
		c6.1-6,8.7-14.6,7-23c-0.8-3.5-6.7-10.2-13.7-10.3c-6.1-0.1-17.7,5-26.2,40.3c-0.4,1.1-1.6,1.6-2.7,1.2c-0.9-0.3-1.4-1.2-1.3-2.2
		c8.8-36.2,21.3-43.6,30.3-43.5s16.5,8.2,17.7,13.6c2,9.8-1.1,19.9-8.2,26.9c-4.3,4.2-9.7,6.8-14.9,9.3c-2,1-4,1.9-5.9,3
		c-4.7,2.6-12.6,8-13.5,15.9c-0.1,1.1-1.1,2-2.3,1.8c0,0,0,0,0,0C1510.7,1339.3,1510.5,1339.2,1510.2,1339.1z"/>
	
		<linearGradient id="SVGID_34_" gradientUnits="userSpaceOnUse" x1="1401.8324" y1="413.7828" x2="1538.1925" y2="413.7828" gradientTransform="matrix(1 0 0 -1 0 1647.8898)">
		<stop  offset="0" style="stop-color:#09005D"/>
		<stop  offset="1" style="stop-color:#1A0F91"/>
	</linearGradient>
	<path class="st39" d="M1405.2,1291.9c-1.8,0-3.3-1.4-3.4-3.3c-0.2-17.4,2.1-34.7,6.6-51.4c9.9-35.2,29.7-56,57.2-60.3
		c13.7-2.1,25.9,1.1,36.3,9.7c33,27.2,36.1,98.8,36.2,101.8c0.1,1.9-1.4,3.4-3.2,3.5s-3.4-1.4-3.5-3.2l0,0c0-0.7-3.2-71.6-33.8-96.9
		c-8.8-7.3-19.2-10-31-8.2c-60.4,9.3-58.2,103.9-58.2,104.8C1408.6,1290.3,1407.1,1291.8,1405.2,1291.9
		C1405.3,1291.9,1405.3,1291.9,1405.2,1291.9L1405.2,1291.9z"/>
	<path class="st12" d="M1876.6,988.7c-2.4,0-4.5-1.7-4.9-4.1c-0.4-2.1-0.7-4.2-1.1-6.3c-0.5-2.7,1.2-5.3,3.9-5.8
		c2.7-0.5,5.3,1.2,5.8,3.9c0.4,2.2,0.8,4.4,1.2,6.6c0.4,2.7-1.4,5.2-4.1,5.7c0,0,0,0,0,0C1877.1,988.7,1876.9,988.7,1876.6,988.7z
		 M1872.1,967.3c-2.3,0-4.2-1.5-4.8-3.7c-0.5-2.1-1.1-4.1-1.7-6.2c-0.7-2.6,0.8-5.3,3.4-6.1c2.6-0.7,5.3,0.8,6.1,3.4l0,0
		c0.6,2.1,1.2,4.3,1.7,6.5c0.7,2.6-0.9,5.3-3.6,6C1872.9,967.3,1872.5,967.3,1872.1,967.3z M1865.8,946.4c-2.1,0-4-1.3-4.7-3.3
		c-0.7-2-1.4-4-2.2-6c-1-2.6,0.3-5.4,2.9-6.4c2.6-1,5.4,0.3,6.3,2.9c0.8,2.1,1.5,4.2,2.3,6.3c0.9,2.6-0.4,5.4-3,6.3
		C1866.9,946.4,1866.4,946.5,1865.8,946.4L1865.8,946.4z M1857.8,926.2c-2,0-3.7-1.2-4.5-2.9c-0.9-2-1.7-3.9-2.7-5.8
		c-1.2-2.5-0.1-5.4,2.4-6.6c2.5-1.2,5.4-0.1,6.6,2.4c0.9,2,1.9,4,2.8,6.1c1.1,2.5,0,5.4-2.5,6.5
		C1859.2,926,1858.5,926.1,1857.8,926.2L1857.8,926.2z M1848.2,906.6c-1.8,0-3.5-1-4.3-2.6c-1-1.9-2.1-3.8-3.1-5.6
		c-1.3-2.4-0.5-5.4,1.8-6.7s5.4-0.5,6.7,1.8l0,0c1.1,1.9,2.2,3.9,3.2,5.8c1.3,2.4,0.4,5.4-2,6.7
		C1849.8,906.4,1849,906.6,1848.2,906.6z M1837.2,887.8c-1.7,0-3.3-0.9-4.2-2.3c-1.1-1.8-2.3-3.6-3.5-5.4c-1.5-2.3-0.9-5.3,1.4-6.8
		s5.3-0.9,6.8,1.4l0,0c1.2,1.8,2.4,3.7,3.6,5.5c1.5,2.3,0.8,5.3-1.5,6.8C1839.1,887.5,1838.2,887.8,1837.2,887.8L1837.2,887.8z
		 M1824.8,869.9c-1.6,0-3.1-0.7-4-2c-1.3-1.7-2.6-3.4-3.9-5.1c-1.8-2-1.6-5.1,0.4-7c2-1.8,5.1-1.6,7,0.4c0.2,0.2,0.3,0.4,0.4,0.6
		c1.3,1.8,2.7,3.5,4,5.3c1.6,2.2,1.2,5.3-1,6.9c0,0,0,0,0,0C1826.9,869.6,1825.9,869.9,1824.8,869.9L1824.8,869.9z M791.1,859.4
		c-2.7-0.1-4.8-2.4-4.7-5.2c0.1-2.6,2.2-4.6,4.7-4.7c2.2,0,4.3,0,6.5,0h0.1c2.7,0,4.9,2.2,5,4.9c0,2.7-2.2,4.9-4.9,5l0,0
		L791.1,859.4L791.1,859.4z M775.8,859.2h-0.2c-2.2-0.1-4.4-0.2-6.6-0.2c-2.7-0.1-4.8-2.4-4.7-5.1c0.1-2.7,2.4-4.8,5.1-4.7
		c0,0,0,0,0.1,0c2.2,0.1,4.3,0.2,6.5,0.2c2.7,0,4.9,2.3,4.9,5S778.5,859.2,775.8,859.2L775.8,859.2L775.8,859.2z M812.9,858.9
		c-2.7,0.1-5-2.1-5-4.8s2.1-5,4.8-5l6.5-0.3c2.7-0.2,5.1,1.9,5.2,4.6c0.2,2.7-1.9,5.1-4.6,5.2c-2.2,0.1-4.4,0.2-6.6,0.3L812.9,858.9
		z M754,857.9h-0.4c-2.2-0.2-4.4-0.4-6.6-0.6c-2.7-0.3-4.7-2.7-4.4-5.4c0.3-2.7,2.7-4.7,5.4-4.4l0,0c2.2,0.2,4.3,0.4,6.5,0.6
		c2.7,0.2,4.8,2.5,4.6,5.2C758.9,856,756.7,858,754,857.9L754,857.9z M834.6,857.5c-2.7,0-4.9-2.2-4.9-5c0-2.5,2-4.7,4.5-4.9
		l6.5-0.6c2.7-0.3,5.1,1.7,5.4,4.4s-1.7,5.1-4.4,5.4c-2.2,0.2-4.4,0.4-6.6,0.6C834.9,857.4,834.8,857.5,834.6,857.5L834.6,857.5z
		 M732.3,855.5c-0.2,0-0.5,0-0.7,0c-2.2-0.3-4.4-0.6-6.6-1c-2.7-0.4-4.5-3-4.1-5.6c0.4-2.7,3-4.5,5.6-4.1c2.1,0.3,4.3,0.7,6.4,1
		c2.7,0.3,4.6,2.8,4.3,5.5C736.9,853.8,734.8,855.6,732.3,855.5L732.3,855.5z M856.3,855.2c-2.7,0-4.9-2.2-5-4.9
		c0-2.5,1.9-4.7,4.4-4.9c2.1-0.2,4.3-0.5,6.4-0.8c2.7-0.4,5.2,1.6,5.5,4.3s-1.6,5.2-4.3,5.5l-6.5,0.8L856.3,855.2z M1811.2,852.9
		c-1.4,0-2.8-0.6-3.8-1.7c-1.4-1.6-2.8-3.2-4.2-4.8c-1.8-2-1.6-5.2,0.4-7c2-1.8,5.2-1.6,7,0.4c1.5,1.6,2.9,3.3,4.3,5
		c1.8,2.1,1.5,5.2-0.5,7C1813.5,852.4,1812.4,852.9,1811.2,852.9L1811.2,852.9z M877.9,852.3c-2.7,0-4.9-2.2-4.9-5
		c0-2.4,1.8-4.5,4.2-4.8c2.1-0.3,4.3-0.7,6.4-1c2.7-0.4,5.2,1.4,5.7,4.1c0.4,2.7-1.4,5.2-4.1,5.7c-2.2,0.4-4.3,0.7-6.5,1
		C878.4,852.3,878.2,852.3,877.9,852.3L877.9,852.3z M710.8,851.8c-0.3,0-0.7,0-1-0.1c-2.2-0.5-4.3-0.9-6.5-1.4
		c-2.7-0.5-4.4-3.1-3.9-5.8s3.1-4.4,5.8-3.9c0.1,0,0.2,0,0.3,0.1c2.1,0.5,4.2,0.9,6.3,1.4c2.7,0.5,4.4,3.2,3.8,5.8
		C715.2,850.2,713.2,851.8,710.8,851.8L710.8,851.8z M899.4,848.7c-2.7,0-4.9-2.3-4.9-5c0-2.3,1.7-4.3,4-4.8l6.4-1.2
		c2.7-0.5,5.3,1.2,5.8,3.9s-1.2,5.3-3.9,5.8l-6.5,1.2C900,848.7,899.7,848.7,899.4,848.7L899.4,848.7z M689.6,846.7
		c-0.4,0-0.9-0.1-1.3-0.2c-2.1-0.6-4.3-1.2-6.4-1.9c-2.6-0.8-4.1-3.5-3.3-6.1c0.8-2.6,3.5-4.1,6.1-3.3c2.1,0.6,4.1,1.2,6.2,1.8
		c2.6,0.7,4.2,3.4,3.4,6.1C693.8,845.2,691.8,846.7,689.6,846.7L689.6,846.7z M920.8,844.6c-2.7,0-4.9-2.2-4.9-5
		c0-2.3,1.6-4.3,3.9-4.8c2.1-0.4,4.2-0.9,6.4-1.3c2.7-0.5,5.2,1.3,5.7,4c0.4,2.6-1.2,5-3.7,5.6l-6.4,1.3
		C921.5,844.5,921.2,844.6,920.8,844.6L920.8,844.6z M668.8,840.1c-0.6,0-1.1-0.1-1.7-0.3c-2.1-0.8-4.2-1.5-6.2-2.4
		c-2.5-1-3.8-3.9-2.8-6.4c1-2.5,3.9-3.8,6.4-2.8c2,0.8,4,1.5,6,2.3c2.6,1,3.9,3.8,2.9,6.4C672.7,838.8,670.9,840,668.8,840.1
		L668.8,840.1z M942.1,840.1c-2.7,0-4.9-2.2-5-4.9c0-2.3,1.6-4.4,3.9-4.9c2.1-0.5,4.2-1,6.3-1.4c2.7-0.6,5.3,1.1,5.9,3.7
		c0.6,2.7-1.1,5.3-3.7,5.9l0,0l-6.4,1.5C942.9,840,942.5,840,942.1,840.1L942.1,840.1z M1796.5,836.8c-1.3,0-2.6-0.5-3.5-1.5
		c-1.5-1.5-3-3.1-4.5-4.6c-2-1.8-2.2-4.9-0.3-7c1.8-2,4.9-2.2,7-0.3c0.1,0.1,0.2,0.2,0.3,0.3c1.6,1.5,3.1,3.1,4.7,4.7
		c1.9,2,1.9,5.1-0.1,7C1799,836.3,1797.8,836.8,1796.5,836.8L1796.5,836.8z M963.4,835.1c-2.7,0-4.9-2.2-4.9-4.9
		c0-2.3,1.6-4.2,3.8-4.8l6.3-1.5c2.6-0.7,5.3,0.8,6.1,3.5c0.7,2.6-0.8,5.3-3.5,6.1c-0.1,0-0.2,0-0.2,0.1l-6.4,1.6
		C964.2,835.1,963.8,835.1,963.4,835.1L963.4,835.1z M648.7,831.8c-0.7,0-1.4-0.2-2.1-0.5c-2-0.9-4-1.9-6-2.9
		c-2.4-1.3-3.3-4.3-1.9-6.7c1.2-2.2,4-3.2,6.3-2.1c1.9,1,3.8,1.9,5.8,2.8c2.5,1.1,3.6,4.1,2.4,6.5
		C652.4,830.7,650.6,831.8,648.7,831.8L648.7,831.8z M984.5,829.9c-2.7,0-4.9-2.2-4.9-4.9c0-2.3,1.5-4.2,3.7-4.8l6.3-1.6
		c2.7-0.6,5.3,1,5.9,3.7c0.6,2.6-0.9,5.1-3.4,5.9l-6.3,1.6C985.4,829.8,985,829.8,984.5,829.9L984.5,829.9z M1005.6,824.3
		c-2.7,0-4.9-2.2-4.9-4.9c0-2.2,1.5-4.2,3.6-4.8l6.3-1.7c2.6-0.7,5.3,0.8,6.1,3.5c0.7,2.6-0.8,5.3-3.5,6.1l0,0l-6.3,1.7
		C1006.5,824.2,1006.1,824.3,1005.6,824.3L1005.6,824.3z M629.3,821.8c-0.9,0-1.7-0.2-2.5-0.7c-1.9-1.1-3.8-2.2-5.7-3.4
		c-2.3-1.4-3.1-4.5-1.6-6.8c1.4-2.3,4.5-3.1,6.8-1.6l0,0c1.8,1.1,3.7,2.2,5.5,3.3c2.4,1.4,3.2,4.4,1.8,6.7
		C632.7,820.8,631.1,821.8,629.3,821.8z M1780.8,821.7c-1.2,0-2.4-0.5-3.3-1.3c-1.6-1.4-3.2-2.9-4.8-4.3c-2.1-1.8-2.3-4.9-0.5-7
		c1.8-2.1,4.9-2.3,7-0.5c1.7,1.5,3.3,2.9,5,4.4c2,1.8,2.2,5,0.3,7C1783.5,821.1,1782.2,821.7,1780.8,821.7L1780.8,821.7z
		 M1026.7,818.5c-2.7,0-4.9-2.2-4.9-4.9c0-2.2,1.5-4.2,3.6-4.8l6.3-1.8c2.6-0.7,5.3,0.8,6.1,3.4s-0.8,5.3-3.4,6.1l-6.3,1.8
		C1027.6,818.4,1027.2,818.5,1026.7,818.5L1026.7,818.5z M1047.7,812.5c-2.7,0-4.9-2.2-4.9-4.9c0-2.2,1.5-4.1,3.6-4.8l6.3-1.8
		c2.6-0.8,5.4,0.7,6.1,3.3s-0.7,5.4-3.3,6.1l0,0l-6.3,1.8C1048.6,812.4,1048.1,812.5,1047.7,812.5L1047.7,812.5z M611,810
		c-1,0-2-0.3-2.8-0.9c-1.8-1.3-3.6-2.6-5.4-3.9c-2.2-1.6-2.6-4.7-1-6.9c1.6-2.2,4.7-2.6,6.9-1c1.7,1.3,3.4,2.5,5.2,3.8
		c2.2,1.5,2.8,4.6,1.3,6.9C614.2,809.2,612.6,810,611,810L611,810z M1764.3,807.5c-1.1,0-2.2-0.4-3.1-1.1c-1.7-1.3-3.4-2.7-5.1-4
		c-2.1-1.8-2.3-4.9-0.5-7c1.6-1.9,4.4-2.2,6.5-0.8c1.8,1.3,3.5,2.7,5.2,4.1c2.1,1.7,2.5,4.8,0.8,6.9
		C1767.2,806.8,1765.7,807.5,1764.3,807.5L1764.3,807.5z M1068.6,806.3c-2.7,0-4.9-2.2-4.9-4.9c0-2.2,1.4-4.1,3.5-4.7l6.3-1.9
		c2.6-0.8,5.4,0.6,6.2,3.2c0.8,2.6-0.6,5.4-3.2,6.2c0,0-0.1,0-0.1,0l-6.3,1.9C1069.6,806.3,1069.1,806.4,1068.6,806.3L1068.6,806.3z
		 M1089.5,800.1c-2.7,0-4.9-2.2-4.9-5c0-2.2,1.4-4,3.5-4.7l6.3-1.9c2.6-0.7,5.3,0.9,6,3.6c0.6,2.5-0.7,5-3.2,5.9l-6.3,1.9
		C1090.5,800,1090,800.1,1089.5,800.1L1089.5,800.1z M593.8,796.6c-1.2,0-2.3-0.4-3.2-1.2c-1.7-1.5-3.4-3-5-4.5c-2-1.8-2.1-5-0.3-7
		c1.8-2,5-2.1,7-0.3c1.6,1.4,3.2,2.9,4.8,4.3c2.1,1.8,2.3,4.9,0.5,7C596.6,796,595.2,796.6,593.8,796.6L593.8,796.6z M1746.9,794.4
		c-1,0-2-0.3-2.9-0.9c-1.7-1.2-3.5-2.5-5.3-3.7c-2.2-1.5-2.8-4.6-1.3-6.9s4.6-2.8,6.9-1.3c1.8,1.3,3.6,2.5,5.4,3.8
		c2.2,1.6,2.7,4.7,1.2,6.9C1750,793.6,1748.5,794.4,1746.9,794.4L1746.9,794.4z M1110.4,793.8c-2.7,0-4.9-2.2-4.9-5
		c0-2.2,1.4-4.1,3.5-4.7l6.3-1.9c2.6-0.8,5.4,0.7,6.2,3.3c0.8,2.6-0.7,5.4-3.3,6.1l-6.3,1.9C1111.4,793.7,1110.9,793.8,1110.4,793.8
		L1110.4,793.8z M1131.3,787.4c-2.7,0-4.9-2.2-4.9-4.9c0-2.2,1.4-4.1,3.5-4.7l6.3-1.9c2.6-0.8,5.4,0.7,6.2,3.3
		c0.8,2.6-0.7,5.4-3.3,6.1l0,0l-6.3,1.9C1132.2,787.4,1131.8,787.5,1131.3,787.4L1131.3,787.4z M1728.8,782.2
		c-0.9,0-1.8-0.3-2.6-0.8c-1.8-1.1-3.6-2.3-5.5-3.4c-2.3-1.4-3.1-4.4-1.7-6.8c1.4-2.3,4.4-3.1,6.8-1.7c1.9,1.2,3.8,2.3,5.6,3.5
		c2.3,1.4,3,4.5,1.6,6.8C1732.1,781.4,1730.5,782.2,1728.8,782.2L1728.8,782.2z M578.1,781.5c-1.4,0-2.7-0.6-3.6-1.5
		c-1.5-1.6-3-3.3-4.5-5c-1.9-2-1.8-5.1,0.2-7c2-1.9,5.1-1.8,7,0.2c0.1,0.1,0.1,0.2,0.2,0.2c1.4,1.6,2.8,3.2,4.3,4.7
		c1.9,2,1.8,5.1-0.2,7C580.6,781,579.4,781.5,578.1,781.5L578.1,781.5z M1152.1,781.2c-2.7,0-4.9-2.2-4.9-5c0-2.2,1.4-4,3.5-4.7
		l6.3-1.9c2.6-0.8,5.4,0.7,6.1,3.3c0.8,2.6-0.7,5.4-3.3,6.1l0,0l-6.3,1.9C1153.1,781.1,1152.6,781.2,1152.1,781.2L1152.1,781.2z
		 M1173,774.9c-2.7,0-4.9-2.2-4.9-4.9c0-2.2,1.4-4.1,3.5-4.7l6.3-1.9c2.6-0.8,5.4,0.7,6.1,3.3c0.8,2.6-0.7,5.4-3.3,6.1l-6.3,1.9
		C1174,774.8,1173.5,774.9,1173,774.9z M1710,771.2c-0.8,0-1.7-0.2-2.4-0.6c-1.9-1-3.8-2.1-5.7-3.1c-2.4-1.3-3.3-4.3-2-6.7
		c1.3-2.4,4.3-3.3,6.7-2c2,1,3.9,2.1,5.8,3.2c2.4,1.3,3.2,4.3,1.9,6.7C1713.4,770.2,1711.8,771.2,1710,771.2L1710,771.2z
		 M1194,768.8c-2.7,0-4.9-2.2-4.9-4.9c0-2.2,1.4-4.1,3.5-4.7l6.3-1.8c2.6-0.8,5.4,0.8,6.1,3.4s-0.8,5.4-3.4,6.1l-6.3,1.8
		C1194.9,768.7,1194.5,768.8,1194,768.8L1194,768.8z M564,764.9c-1.5,0-3-0.7-3.9-1.9c-1.3-1.8-2.7-3.6-4-5.4
		c-1.6-2.2-1.1-5.3,1.1-6.9s5.3-1.1,6.9,1.1l0,0c1.2,1.7,2.5,3.5,3.8,5.1c1.7,2.2,1.2,5.3-0.9,6.9
		C566.1,764.5,565.1,764.9,564,764.9L564,764.9z M1214.9,762.8c-2.7,0-4.9-2.2-4.9-4.9c0-2.2,1.5-4.2,3.6-4.8l6.3-1.8
		c2.6-0.7,5.3,0.8,6.1,3.4c0.7,2.6-0.8,5.3-3.4,6.1l-6.3,1.8C1215.8,762.7,1215.4,762.8,1214.9,762.8L1214.9,762.8z M1690.6,761.2
		c-0.7,0-1.5-0.2-2.1-0.5c-1.9-0.9-3.9-1.9-5.8-2.8c-2.5-1.1-3.5-4.1-2.4-6.5c1.1-2.5,4.1-3.5,6.5-2.4l0,0c2,0.9,4,1.9,6,2.8
		c2.5,1.2,3.5,4.1,2.3,6.6C1694.2,760.1,1692.5,761.2,1690.6,761.2L1690.6,761.2z M1235.9,756.9c-2.7,0-4.9-2.3-4.9-5
		c0-2.2,1.5-4.1,3.6-4.7l6.3-1.7c2.6-0.7,5.3,0.9,6,3.5s-0.9,5.3-3.5,6l0,0l-6.3,1.7C1236.8,756.9,1236.4,756.9,1235.9,756.9
		L1235.9,756.9z M1670.7,752.2c-0.6,0-1.3-0.1-1.9-0.4c-2-0.8-4-1.6-6-2.4c-2.5-1-3.8-3.9-2.8-6.4c1-2.5,3.9-3.8,6.4-2.8l0,0
		c2,0.8,4.1,1.7,6.1,2.5c2.5,1,3.7,3.9,2.7,6.4C1674.5,751,1672.7,752.2,1670.7,752.2z M1257,751.4c-2.7,0-4.9-2.2-4.9-4.9
		c0-2.3,1.5-4.2,3.7-4.8l6.3-1.6c2.6-0.7,5.3,0.9,6,3.6c0.7,2.6-0.9,5.3-3.6,6l0,0l-6.3,1.6C1257.8,751.3,1257.4,751.4,1257,751.4z
		 M551.6,746.9c-1.7,0-3.3-0.9-4.2-2.3c-1.2-1.9-2.3-3.8-3.5-5.7c-1.4-2.3-0.6-5.4,1.8-6.8s5.4-0.6,6.8,1.8c1.1,1.8,2.2,3.7,3.3,5.5
		c1.4,2.3,0.7,5.4-1.6,6.8C553.4,746.7,552.5,746.9,551.6,746.9L551.6,746.9z M1278.2,746.1c-2.7,0-4.9-2.2-5-4.9
		c0-2.3,1.6-4.3,3.8-4.8l6.4-1.5c2.7-0.6,5.3,1,5.9,3.7c0.6,2.7-1,5.3-3.7,5.9l-6.3,1.5C1278.9,746,1278.6,746.1,1278.2,746.1
		L1278.2,746.1z M1650.3,744.4c-0.6,0-1.1-0.1-1.6-0.3c-2-0.7-4.1-1.4-6.1-2.1c-2.6-0.9-4-3.7-3.1-6.2s3.7-4,6.2-3.1
		c2.1,0.7,4.2,1.4,6.3,2.2c2.6,0.9,3.9,3.7,3,6.3C1654.3,743.1,1652.4,744.4,1650.3,744.4z M1299.4,741.1c-2.7,0-4.9-2.3-4.9-5
		c0-2.3,1.6-4.2,3.8-4.8l6.4-1.4c2.7-0.6,5.3,1.1,5.9,3.8s-1.1,5.3-3.8,5.9c-2.1,0.5-4.2,0.9-6.4,1.4
		C1300.1,741.1,1299.8,741.1,1299.4,741.1L1299.4,741.1z M1629.5,737.7c-0.5,0-0.9-0.1-1.4-0.2l-1-0.3c-1.7-0.5-3.5-1-5.2-1.5
		c-2.6-0.7-4.2-3.4-3.4-6.1c0.7-2.6,3.4-4.2,6.1-3.5c1.8,0.5,3.6,1,5.4,1.5l1,0.3c2.6,0.7,4.1,3.5,3.4,6.1
		C1633.7,736.2,1631.7,737.7,1629.5,737.7L1629.5,737.7z M1320.7,736.5c-2.7,0-4.9-2.2-4.9-5c0-2.3,1.6-4.3,3.9-4.8l6.4-1.3
		c2.7-0.5,5.3,1.2,5.8,3.9c0.5,2.7-1.2,5.3-3.9,5.8l-6.4,1.3C1321.4,736.5,1321.1,736.5,1320.7,736.5L1320.7,736.5z M1342.1,732.4
		c-2.7,0-4.9-2.3-4.9-5c0-2.3,1.7-4.3,4-4.8l6.5-1.2c2.7-0.5,5.2,1.3,5.7,4c0.5,2.7-1.3,5.2-4,5.7c-2.1,0.4-4.3,0.8-6.4,1.2
		C1342.7,732.4,1342.5,732.4,1342.1,732.4L1342.1,732.4z M1608.4,732.1c-0.4,0-0.8,0-1.2-0.1c-2.1-0.5-4.2-1-6.3-1.5
		c-2.7-0.6-4.3-3.2-3.7-5.9s3.2-4.3,5.9-3.7l0,0c2.2,0.5,4.3,1,6.4,1.5c2.7,0.6,4.3,3.3,3.7,5.9
		C1612.7,730.6,1610.7,732.1,1608.4,732.1L1608.4,732.1z M1363.6,728.7c-2.7,0-4.9-2.2-4.9-4.9c0-2.4,1.8-4.5,4.2-4.9l6.5-1
		c2.7-0.4,5.2,1.4,5.6,4.1s-1.4,5.2-4.1,5.6l-6.4,1C1364.2,728.7,1363.9,728.7,1363.6,728.7L1363.6,728.7z M541,727.9
		c-1.9,0-3.6-1.1-4.4-2.7c-1-2-2-4-2.9-6c-1.2-2.5-0.1-5.4,2.4-6.6s5.4-0.1,6.6,2.4c0.9,1.9,1.8,3.9,2.8,5.8
		c1.2,2.4,0.2,5.4-2.2,6.6C542.5,727.7,541.8,727.9,541,727.9z M1587.2,727.6c-0.3,0-0.6,0-0.9-0.1c-2.1-0.4-4.2-0.8-6.4-1.2
		c-2.7-0.5-4.5-3-4-5.7c0.5-2.7,3-4.5,5.7-4l0,0c2.2,0.4,4.3,0.8,6.5,1.2c2.7,0.5,4.5,3.1,4,5.7
		C1591.6,725.9,1589.6,727.6,1587.2,727.6L1587.2,727.6z M1385.3,725.5c-2.7,0-4.9-2.2-5-4.9c0-2.5,1.8-4.6,4.3-4.9
		c2.2-0.3,4.3-0.6,6.5-0.9c2.7-0.4,5.2,1.5,5.6,4.2s-1.5,5.2-4.2,5.6c0,0-0.1,0-0.1,0l-6.4,0.9
		C1385.7,725.5,1385.5,725.5,1385.3,725.5L1385.3,725.5z M1565.6,724c-0.2,0-0.5,0-0.7,0c-2.1-0.3-4.3-0.6-6.4-0.9
		c-2.7-0.4-4.6-2.8-4.2-5.5s2.8-4.6,5.5-4.2c2.2,0.3,4.4,0.6,6.5,0.9c2.7,0.4,4.6,2.9,4.2,5.6C1570.2,722.2,1568.1,724,1565.6,724
		L1565.6,724z M1406.9,722.8c-2.7,0-4.9-2.2-4.9-4.9c0-2.5,1.9-4.6,4.4-4.9c2.2-0.2,4.4-0.5,6.6-0.7c2.7-0.3,5.1,1.7,5.4,4.4
		c0.3,2.7-1.7,5.1-4.4,5.4l-6.5,0.7L1406.9,722.8z M1544,721.3h-0.5c-2.1-0.2-4.3-0.4-6.4-0.6c-2.7-0.2-4.7-2.6-4.5-5.4
		c0.2-2.7,2.6-4.7,5.4-4.5c2.2,0.2,4.4,0.4,6.6,0.6c2.7,0.3,4.7,2.7,4.4,5.4C1548.6,719.4,1546.5,721.3,1544,721.3L1544,721.3z
		 M1428.6,720.7c-2.7,0-4.9-2.3-4.9-5c0-2.5,2-4.6,4.5-4.9c2.2-0.2,4.4-0.3,6.6-0.5c2.7-0.2,5.1,1.8,5.3,4.6
		c0.2,2.7-1.8,5.1-4.6,5.3c-2.2,0.1-4.3,0.3-6.5,0.5L1428.6,720.7z M1522.3,719.5h-0.3c-2.2-0.1-4.3-0.3-6.5-0.4
		c-2.7-0.1-4.8-2.5-4.7-5.2c0.1-2.7,2.5-4.8,5.2-4.7c2.2,0.1,4.4,0.2,6.6,0.4c2.7,0.2,4.8,2.5,4.6,5.2
		C1527.1,717.5,1524.9,719.5,1522.3,719.5L1522.3,719.5z M1450.3,719.2c-2.7,0-4.9-2.3-4.9-5c0-2.6,2-4.7,4.6-4.9
		c2.2-0.1,4.4-0.2,6.6-0.3c2.7-0.2,5,1.9,5.2,4.6c0.2,2.7-1.9,5-4.6,5.2c0,0-0.1,0-0.1,0c-2.2,0.1-4.3,0.2-6.5,0.3H1450.3z
		 M1500.5,718.5h-0.1c-2.2,0-4.3-0.1-6.5-0.1c-2.7,0-4.9-2.3-4.9-5s2.3-4.9,5-4.9l0,0c2.2,0,4.4,0,6.6,0.1c2.7,0,4.9,2.3,4.9,5
		S1503.2,718.6,1500.5,718.5z M1472.1,718.5c-2.7,0-5-2.2-5-4.9s2.2-5,4.9-5c2.2,0,4.4-0.1,6.6-0.1c2.7,0,4.9,2.2,5,4.9
		c0,2.7-2.1,5-4.9,5c0,0,0,0,0,0c-2.2,0-4.3,0.1-6.5,0.1L1472.1,718.5z M532,708c-2,0-3.8-1.2-4.6-3.1c-0.8-2.1-1.6-4.1-2.4-6.2
		c-0.9-2.6,0.4-5.4,2.9-6.3s5.4,0.4,6.3,2.9l0,0c0.7,2,1.5,4,2.3,6c1,2.5-0.2,5.4-2.8,6.4C533.2,707.9,532.6,708,532,708z
		 M524.8,687.4c-2.2,0-4.1-1.4-4.7-3.5c-0.7-2.1-1.3-4.3-1.8-6.4c-0.7-2.6,0.8-5.3,3.4-6.1s5.3,0.8,6.1,3.4c0.6,2.1,1.2,4.1,1.8,6.2
		c0.8,2.6-0.7,5.3-3.3,6.1c0,0,0,0,0,0C525.8,687.3,525.3,687.4,524.8,687.4L524.8,687.4z M519.4,666.3c-2.3,0-4.3-1.6-4.8-3.9
		c-0.5-2.2-0.9-4.3-1.3-6.5c-0.5-2.7,1.2-5.3,3.9-5.8s5.3,1.2,5.8,3.9c0.4,2.1,0.8,4.2,1.3,6.3c0.6,2.7-1.1,5.3-3.8,5.9
		C520.1,666.3,519.8,666.3,519.4,666.3L519.4,666.3z M515.6,644.8c-2.5,0-4.5-1.8-4.9-4.3c-0.3-2.2-0.6-4.4-0.8-6.6
		c-0.3-2.7,1.7-5.1,4.4-5.4c2.7-0.3,5.1,1.7,5.4,4.4c0.2,2.1,0.5,4.3,0.8,6.4c0.4,2.7-1.5,5.2-4.2,5.5
		C516.1,644.8,515.9,644.8,515.6,644.8L515.6,644.8z M513.6,623.1c-2.6,0-4.8-2-4.9-4.7c-0.1-2.2-0.2-4.4-0.3-6.6
		c-0.1-2.7,2-5,4.8-5.1c2.7-0.1,5,2,5.1,4.8c0.1,2.1,0.2,4.3,0.3,6.4c0.2,2.7-1.9,5-4.6,5.2c0,0,0,0,0,0L513.6,623.1z M513.3,601.3
		L513.3,601.3c-2.8-0.1-5-2.3-4.9-5c0-2.2,0.1-4.4,0.2-6.7c0.1-2.7,2.4-4.8,5.1-4.7c2.7,0.1,4.8,2.4,4.7,5.1l0,0
		c-0.1,2.2-0.2,4.3-0.2,6.4C518.1,599.2,515.9,601.4,513.3,601.3L513.3,601.3z M514.5,579.6c-0.2,0-0.3,0-0.5,0
		c-2.7-0.3-4.7-2.7-4.4-5.4c0.2-2.2,0.5-4.4,0.7-6.6c0.2-2.7,2.6-4.8,5.3-4.5s4.8,2.6,4.5,5.3c0,0.1,0,0.3-0.1,0.4
		c-0.3,2.1-0.5,4.3-0.7,6.4C519.2,577.7,517.1,579.6,514.5,579.6L514.5,579.6z M517.5,558c-0.3,0-0.6,0-0.9-0.1
		c-2.7-0.5-4.5-3-4-5.7c0.4-2.2,0.8-4.4,1.2-6.5c0.4-2.7,3-4.5,5.7-4.1c2.7,0.4,4.5,3,4.1,5.7c0,0.1,0,0.3-0.1,0.4
		c-0.4,2.1-0.8,4.2-1.2,6.3C522,556.3,519.9,558,517.5,558L517.5,558z M522.2,536.7c-0.4,0-0.8-0.1-1.2-0.2c-2.6-0.7-4.2-3.4-3.5-6
		c0.5-2.2,1.1-4.3,1.7-6.4c0.7-2.6,3.5-4.1,6.1-3.4c2.6,0.7,4.1,3.5,3.4,6.1c-0.6,2.1-1.1,4.1-1.7,6.2
		C526.4,535.2,524.4,536.7,522.2,536.7L522.2,536.7z M528.5,515.8c-0.6,0-1.1-0.1-1.6-0.3c-2.6-0.9-3.9-3.7-3-6.3
		c0.7-2.1,1.5-4.2,2.3-6.3c1-2.5,3.9-3.7,6.4-2.7c2.4,1,3.7,3.7,2.8,6.2c-0.8,2-1.5,4-2.2,6C532.5,514.5,530.6,515.8,528.5,515.8
		L528.5,515.8z M536.5,495.5c-0.7,0-1.4-0.1-2-0.4c-2.5-1.1-3.6-4-2.5-6.5c0.9-2,1.8-4,2.8-6.1c1.2-2.5,4.1-3.5,6.6-2.3
		c2.5,1.2,3.5,4.1,2.3,6.6c-0.9,1.9-1.8,3.9-2.7,5.8C540.2,494.4,538.4,495.5,536.5,495.5L536.5,495.5z M546.1,476
		c-0.8,0-1.7-0.2-2.4-0.6c-2.4-1.3-3.2-4.3-1.9-6.7c1.1-2,2.2-3.9,3.3-5.8c1.4-2.3,4.4-3.1,6.8-1.8s3.1,4.4,1.8,6.8l0,0
		c-1.1,1.8-2.1,3.7-3.2,5.6C549.5,475,547.9,476,546.1,476z M557.4,457.4c-2.7,0-4.9-2.2-4.9-4.9c0-1,0.3-1.9,0.8-2.8
		c1.2-1.8,2.5-3.7,3.8-5.5c1.5-2.3,4.6-2.9,6.8-1.4s2.9,4.6,1.4,6.8c0,0.1-0.1,0.1-0.1,0.2c-1.2,1.8-2.4,3.5-3.6,5.3
		C560.6,456.5,559.1,457.4,557.4,457.4z M570.2,439.7c-2.7,0-4.9-2.2-5-4.9c0-1.1,0.4-2.2,1.1-3.1c1.4-1.7,2.8-3.5,4.2-5.2
		c1.7-2.1,4.8-2.4,6.9-0.7s2.4,4.8,0.7,6.9c-1.4,1.6-2.7,3.3-4,5C573.2,439,571.8,439.7,570.2,439.7z M584.3,423
		c-2.7,0-4.9-2.2-4.9-5c0-1.2,0.5-2.4,1.3-3.3c1.5-1.6,3-3.3,4.5-4.9c1.9-2,5-2,7-0.2c2,1.9,2,5,0.2,7c-1.5,1.5-3,3.1-4.4,4.7
		C587,422.4,585.7,423,584.3,423z M599.6,407.4c-2.7,0-4.9-2.2-4.9-4.9c0-1.4,0.6-2.6,1.5-3.6c1.6-1.5,3.2-3,4.9-4.5
		c2-1.8,5.1-1.7,7,0.3c1.8,2,1.7,5.1-0.3,7c-1.6,1.4-3.2,2.9-4.7,4.4C602.1,407,600.9,407.5,599.6,407.4L599.6,407.4z M616,393.1
		c-2.7,0-4.9-2.2-4.9-4.9c0-1.5,0.7-2.9,1.8-3.8c1.7-1.4,3.4-2.8,5.2-4.2c2.1-1.8,5.2-1.5,6.9,0.6c1.8,2.1,1.5,5.2-0.6,6.9
		c-0.1,0.1-0.2,0.1-0.3,0.2c-1.7,1.3-3.3,2.7-5,4C618.3,392.6,617.1,393,616,393.1z M633.3,379.8c-2.7,0-4.9-2.2-4.9-4.9
		c0-1.6,0.8-3.1,2.1-4c1.8-1.3,3.6-2.5,5.4-3.8c2.2-1.5,5.3-1,6.9,1.3c1.5,2.2,1,5.3-1.3,6.9l0,0c-1.8,1.2-3.5,2.4-5.3,3.7
		C635.3,379.5,634.3,379.8,633.3,379.8L633.3,379.8z M651.4,367.7c-2.7,0-4.9-2.2-4.9-4.9c0-1.7,0.9-3.3,2.3-4.2
		c1.9-1.2,3.8-2.3,5.7-3.4c2.3-1.5,5.3-0.9,6.8,1.4s0.9,5.3-1.4,6.8c-0.2,0.1-0.3,0.2-0.5,0.3c-1.8,1.1-3.7,2.2-5.5,3.3
		C653.2,367.5,652.3,367.7,651.4,367.7L651.4,367.7z M670.3,356.8c-2.7,0-4.9-2.2-4.9-4.9c0-1.8,1-3.5,2.6-4.4
		c1.9-1,3.9-2.1,5.9-3.1c2.4-1.2,5.4-0.3,6.6,2.1c1.2,2.4,0.3,5.4-2.1,6.6l0,0c-1.9,1-3.8,2-5.7,3
		C671.9,356.7,671.1,356.9,670.3,356.8L670.3,356.8z M689.9,347.2c-2.7,0-4.9-2.2-4.9-4.9c0-1.9,1.1-3.7,2.9-4.5c2-0.9,4-1.8,6-2.7
		c2.4-1.3,5.4-0.4,6.7,2c1.3,2.4,0.4,5.4-2,6.7c-0.2,0.1-0.5,0.2-0.8,0.3c-2,0.9-4,1.7-5.9,2.6C691.2,347,690.5,347.2,689.9,347.2
		L689.9,347.2z M709.9,338.7c-2.7,0-4.9-2.2-4.9-4.9c0-2,1.3-3.9,3.2-4.6c2.1-0.8,4.1-1.6,6.2-2.3c2.6-0.9,5.4,0.4,6.3,2.9
		s-0.4,5.4-2.9,6.3l0,0c-2,0.7-4,1.5-6,2.3C711.1,338.6,710.5,338.7,709.9,338.7L709.9,338.7z M730.5,331.4c-2.7,0-4.9-2.2-5-4.9
		c0-2.2,1.4-4.1,3.4-4.7c2.1-0.7,4.2-1.3,6.3-2c2.6-0.9,5.4,0.5,6.3,3s-0.5,5.4-3,6.3c-0.1,0-0.3,0.1-0.4,0.1
		c-2.1,0.6-4.1,1.2-6.2,1.9C731.5,331.3,731,331.4,730.5,331.4L730.5,331.4z M751.4,325.4c-2.7,0-4.9-2.2-5-4.9
		c0-2.3,1.5-4.2,3.7-4.8c2.2-0.5,4.3-1.1,6.4-1.6c2.7-0.6,5.3,1,5.9,3.7c0.6,2.7-1,5.3-3.7,5.9c-2.1,0.5-4.2,1-6.3,1.5
		C752.2,325.3,751.8,325.4,751.4,325.4L751.4,325.4z M772.7,320.6c-2.7,0-5-2.1-5-4.9c0-2.4,1.7-4.5,4-4.9c2.2-0.4,4.3-0.8,6.5-1.2
		c2.7-0.5,5.2,1.3,5.7,4c0.5,2.7-1.3,5.2-4,5.7l0,0c-2.1,0.4-4.2,0.8-6.3,1.2C773.3,320.5,773,320.6,772.7,320.6L772.7,320.6z
		 M794.2,317c-2.7,0-4.9-2.2-5-4.9c0-2.5,1.8-4.6,4.3-4.9c2.2-0.3,4.4-0.6,6.6-0.8c2.7-0.3,5.2,1.6,5.5,4.3c0.3,2.7-1.6,5.2-4.3,5.5
		c-2.1,0.3-4.3,0.5-6.4,0.8C794.6,317,794.4,317,794.2,317L794.2,317z M815.9,314.6c-2.7,0-5-2.1-5-4.8c0-2.6,2-4.8,4.6-5
		c2.2-0.2,4.4-0.3,6.6-0.5c2.7-0.2,5.1,1.9,5.2,4.6c0.2,2.7-1.9,5.1-4.6,5.2c-2.2,0.1-4.3,0.3-6.5,0.5L815.9,314.6z M866,314h-0.3
		c-2.2-0.1-4.3-0.2-6.5-0.3c-2.7-0.1-4.8-2.4-4.7-5.1s2.4-4.8,5.1-4.7l0,0c2.2,0.1,4.4,0.2,6.6,0.3c2.7,0.2,4.7,2.6,4.5,5.3
		C870.6,312,868.5,313.9,866,314z M837.7,313.5c-2.7,0-5-2.2-5-4.9s2.2-5,4.9-5c2.2,0,4.4-0.1,6.6-0.1l0,0c2.7,0,4.9,2.2,4.9,4.9
		c0,2.7-2.2,4.9-4.9,4.9C842,313.4,839.9,313.4,837.7,313.5L837.7,313.5z"/>
	<polygon class="st14" points="898.8,265.6 897.6,302.4 923.1,287.3 	"/>
	<path class="st1" d="M1065.2,249.5L963,333.7c-4,3.3-9.8,2.7-13.1-1.2c-0.1-0.1-0.2-0.2-0.2-0.3l-80.8-105.8c-1.3-1.6-1-4,0.6-5.3
		c0.8-0.6,1.9-0.9,2.9-0.7L1065.2,249.5z"/>
	<polygon class="st14" points="898.8,265.6 1065.2,249.5 911.8,282.7 911,292.9 	"/>
	<polygon class="st14" points="919.5,292.8 897.6,302.4 911.8,282.7 	"/>
	
		<linearGradient id="SVGID_35_" gradientUnits="userSpaceOnUse" x1="2349.0994" y1="883.3998" x2="2648.0396" y2="576.2498" gradientTransform="matrix(-1 0 0 -1 3250.3501 1647.8898)">
		<stop  offset="0" style="stop-color:#09005D"/>
		<stop  offset="1" style="stop-color:#1A0F91"/>
	</linearGradient>
	<path class="st40" d="M735.6,805.1c-13.4,1.5-26,6.6-36.6,14.9c-18.7,15-19.5,38.3-26.3,59.5c-3.7,11.7-10.7,26-20.5,33.9
		c-19.1,15.5-42.6,17-57,38.8c-36.8,55.6-14.5,150.6,60.4,155.4c46.3,3,105.2-19,107.8-73C766.9,959.6,760,797.8,735.6,805.1z"/>
	
		<linearGradient id="SVGID_36_" gradientUnits="userSpaceOnUse" x1="907.9656" y1="414.8065" x2="1020.9656" y2="602.8065" gradientTransform="matrix(1 0 0 -1 0 1647.8898)">
		<stop  offset="0" style="stop-color:#FE7062"/>
		<stop  offset="1" style="stop-color:#FF928E"/>
	</linearGradient>
	<path class="st41" d="M878,1152.4l71.7-13.2c1-0.2,2,0.5,2.3,1.5l25,108.3c0.1,0.5,0,1.1-0.3,1.5c-0.3,0.4-0.8,0.8-1.3,0.8
		l-96.7,14.4c-0.6,0.1-1.1-0.1-1.6-0.5c-0.4-0.4-0.7-0.9-0.7-1.5v-109.5C876.4,1153.4,877.1,1152.6,878,1152.4z"/>
	
		<linearGradient id="SVGID_37_" gradientUnits="userSpaceOnUse" x1="7730.0845" y1="500.1001" x2="7729.3745" y2="490.4701" gradientTransform="matrix(-1 0 0 -1 8663.7207 1647.8898)">
		<stop  offset="0" style="stop-color:#E1473D"/>
		<stop  offset="1" style="stop-color:#E9605A"/>
	</linearGradient>
	<path class="st42" d="M931.1,1148.1c0,1.4,1.2,2.6,2.6,2.6s2.6-1.2,2.6-2.6c0-1.4-1.2-2.6-2.6-2.6h0
		C932.2,1145.6,931.1,1146.7,931.1,1148.1z"/>
	
		<linearGradient id="SVGID_38_" gradientUnits="userSpaceOnUse" x1="7765.4346" y1="492.5202" x2="7764.7246" y2="482.9002" gradientTransform="matrix(-1 0 0 -1 8663.7207 1647.8898)">
		<stop  offset="0" style="stop-color:#E1473D"/>
		<stop  offset="1" style="stop-color:#E9605A"/>
	</linearGradient>
	<path class="st43" d="M895.7,1155.7c0,1.4,1.1,2.6,2.6,2.6c1.4,0,2.6-1.1,2.6-2.6c0-1.4-1.1-2.6-2.6-2.6c0,0,0,0,0,0
		C896.9,1153.1,895.7,1154.3,895.7,1155.7C895.7,1155.7,895.7,1155.7,895.7,1155.7z"/>
	
		<linearGradient id="SVGID_39_" gradientUnits="userSpaceOnUse" x1="897.4299" y1="515.6938" x2="934.5401" y2="515.6938" gradientTransform="matrix(1 0 0 -1 0 1647.8898)">
		<stop  offset="0" style="stop-color:#FF928E"/>
		<stop  offset="1" style="stop-color:#FEB3B1"/>
	</linearGradient>
	<path class="st44" d="M898.3,1156.6L898.3,1156.6c0.5,0,0.9-0.4,0.9-0.9l0,0c0-12.5,1.9-45.1,10.8-46.1c10.3-1,22.4,36.2,22.8,38.6
		c0,0.5,0.4,0.8,0.8,0.8c0,0,0,0,0,0c0.5,0,0.9-0.4,0.9-0.9c0-0.9-8.6-28.9-18.3-37.6c-2.2-2-4.4-2.9-6.5-2.7
		c-5.3,0.6-8.9,8.9-10.9,24.7c-0.9,7.7-1.4,15.4-1.5,23.1C897.4,1156.2,897.8,1156.6,898.3,1156.6
		C898.3,1156.6,898.3,1156.6,898.3,1156.6z"/>
	
		<linearGradient id="SVGID_40_" gradientUnits="userSpaceOnUse" x1="7695.9956" y1="1691.0803" x2="7719.9956" y2="1459.0803" gradientTransform="matrix(-1 0 0 -1 8663.7207 1647.8898)">
		<stop  offset="0" style="stop-color:#FF928E"/>
		<stop  offset="1" style="stop-color:#FEB3B1"/>
	</linearGradient>
	<path class="st45" d="M800.6,977.5c0,0,39.2,89.5,95,103.4c10.8,2.1,23.5,1.2,29.1,4.7c6.5,4-1.4,14.8-4.5,23s-4.3,4.3-5.8,1.7
		s4.5-10.8-3.2-14.1s-5.3,1.7-1.7,6s3.5,10.9,3.2,11.3s-6-2.6-11.5-5.1c-4.7-2.2-7.3-8.2-8-9.9c-11-1.3-80.2-12.2-109.5-84.8
		C783.8,1013.6,781,941.5,800.6,977.5z"/>
	
		<linearGradient id="SVGID_41_" gradientUnits="userSpaceOnUse" x1="636.6614" y1="477.2179" x2="665.6754" y2="477.2179" gradientTransform="matrix(1 0 0 -1 0 1647.8898)">
		<stop  offset="0" style="stop-color:#DAE3FE"/>
		<stop  offset="1" style="stop-color:#E9EFFD"/>
	</linearGradient>
	<path class="st46" d="M637.5,1189.5c0.4,0,0.8-0.3,0.9-0.8c0-0.3,4.7-29.3,13.7-34.4c1.3-0.8,3-0.9,4.4-0.3
		c12,4.8,5.9,32.2,5.8,32.4c-0.1,0.5,0.1,1,0.6,1.1c0.5,0.1,1-0.1,1.1-0.6c0,0,0-0.1,0-0.1c0.3-1.2,6.5-29.1-6.9-34.5
		c-1.9-0.8-4.1-0.6-5.9,0.4c-9.7,5.5-14.3,34.5-14.5,35.7c-0.1,0.5,0.3,0.9,0.7,1L637.5,1189.5z"/>
	
		<linearGradient id="SVGID_42_" gradientUnits="userSpaceOnUse" x1="7894.3179" y1="896.9572" x2="7913.6079" y2="870.6072" gradientTransform="matrix(-1 8.000000e-02 -8.000000e-02 -1 8615.2607 1459.6798)">
		<stop  offset="0" style="stop-color:#4042E2"/>
		<stop  offset="1" style="stop-color:#4F52FF"/>
	</linearGradient>
	<polygon class="st47" points="625.2,1186.6 671.5,1182.3 681.8,1188 673,1199.1 630.7,1194.8 	"/>
	
		<linearGradient id="SVGID_43_" gradientUnits="userSpaceOnUse" x1="7950.3374" y1="616.7899" x2="7987.9971" y2="616.7899" gradientTransform="matrix(-1 8.000000e-02 -8.000000e-02 -1 8615.2607 1459.6798)">
		<stop  offset="0" style="stop-color:#E1473D"/>
		<stop  offset="1" style="stop-color:#E9605A"/>
	</linearGradient>
	<path class="st48" d="M631.9,1468.6l-0.8,17.7c-0.1,3.4-2.6,6.2-5.9,6.8c-7.7,1.6-15.6,2.3-23.5,2.2c-3.4-0.1-6.1-3-6-6.5
		c0-0.4,0.1-0.8,0.2-1.2c1.6-6.9,4.8-17.4,10-23.8l19.5-1.5c3.3-0.3,6.2,2.2,6.4,5.5C631.9,1468.1,631.9,1468.4,631.9,1468.6z"/>
	
		<linearGradient id="SVGID_44_" gradientUnits="userSpaceOnUse" x1="7773.229" y1="453.7494" x2="7827.4092" y2="1087.0693" gradientTransform="matrix(-1 8.000000e-02 -8.000000e-02 -1 8615.2607 1459.6798)">
		<stop  offset="0" style="stop-color:#FF928E"/>
		<stop  offset="1" style="stop-color:#FEB3B1"/>
	</linearGradient>
	<path class="st49" d="M768.3,1251.1l4.8,19.1c0,0-2.3,112.3-0.8,157.1c0.2,7,2.6,13.8,6.7,19.4l21.6,29.6l-50.9-24.9l-1.4-5.9
		l7.1-11.6l-20.2-124.1c-1.2-7.3-0.3-14.8,2.7-21.5l8.6-19.7L768.3,1251.1z"/>
	
		<linearGradient id="SVGID_45_" gradientUnits="userSpaceOnUse" x1="7775.3975" y1="623.2682" x2="7836.3271" y2="623.2682" gradientTransform="matrix(-1 8.000000e-02 -8.000000e-02 -1 8615.2607 1459.6798)">
		<stop  offset="0" style="stop-color:#E1473D"/>
		<stop  offset="1" style="stop-color:#E9605A"/>
	</linearGradient>
	<path class="st50" d="M804.2,1480.6l-15.5,1.2c-2.9,0.2-5.8-0.9-7.7-3.1c-5.3-5.9-16.3-17.4-21.1-17.3c-6.5,0.1-3.9,23-3.9,23
		l-3.6,0.3l-6.8-28.2c-1.7-7.1,1.3-14.5,7.5-18.3l0,0c0,0,2.3,10.8,10.7,15s34.3,19.5,34.3,19.5c2.1-0.4,4.2-0.5,6.3-0.3
		C809.3,1472.9,809.2,1480.2,804.2,1480.6z"/>
	
		<linearGradient id="SVGID_46_" gradientUnits="userSpaceOnUse" x1="7881.8604" y1="444.341" x2="7936.0605" y2="1077.8411" gradientTransform="matrix(-1 8.000000e-02 -8.000000e-02 -1 8615.2607 1459.6798)">
		<stop  offset="0" style="stop-color:#FF928E"/>
		<stop  offset="1" style="stop-color:#FEB3B1"/>
	</linearGradient>
	<path class="st51" d="M702.5,1265.5c0,0-55,127.3-63,156.1s-9.8,52.3-9.8,54.5c0,3.5-4,7.1-15.8,8c-6.1,0.5-9.3-1.7-10.9-4
		c-1.4-1.9-1.7-4.4-0.8-6.7c3.1-7.8,13.1-32.9,16.6-44.2c4.2-13.5,10.8-73.6,15.4-94.6s9.8-43.9,35.1-66.6
		C669.3,1268.1,686.3,1248.5,702.5,1265.5z"/>
	
		<linearGradient id="SVGID_47_" gradientUnits="userSpaceOnUse" x1="2463.3508" y1="697.5605" x2="2692.521" y2="417.4604" gradientTransform="matrix(-1 0 0 -1 3250.3501 1647.8898)">
		<stop  offset="0" style="stop-color:#FE7062"/>
		<stop  offset="1" style="stop-color:#FF928E"/>
	</linearGradient>
	<path class="st52" d="M727.5,1061.9c11.1-71.8-34.1-108.4-34.1-108.4c13.5-15.2,34-26.6,49.6-33.9c14.2-6.6,30.9-4.2,42.7,6
		c13,11.2,27.1,27.1,25.2,42c-2,15.8-25.2,95.4-25.2,95.4S759.7,1077.9,727.5,1061.9z"/>
	
		<linearGradient id="SVGID_48_" gradientUnits="userSpaceOnUse" x1="2399.7886" y1="545.2376" x2="2706.9487" y2="351.0776" gradientTransform="matrix(-1 0 0 -1 3250.3501 1647.8898)">
		<stop  offset="0" style="stop-color:#E1473D"/>
		<stop  offset="1" style="stop-color:#E9605A"/>
	</linearGradient>
	<path class="st53" d="M693.4,1099.6c5.2-20.9,34.2-37.8,34.2-37.8c32.1,16,58.2,1.1,58.2,1.1s7.9,22.7,5.4,44.6s-18,162.5-18,162.5
		c-40.8,11.6-105.8-0.2-105.8-0.2C690.1,1221,688.2,1120.6,693.4,1099.6z"/>
	
		<linearGradient id="SVGID_49_" gradientUnits="userSpaceOnUse" x1="764.7451" y1="783.5087" x2="732.7451" y2="626.5087" gradientTransform="matrix(1 0 0 -1 0 1647.8898)">
		<stop  offset="0" style="stop-color:#FF928E"/>
		<stop  offset="1" style="stop-color:#FEB3B1"/>
	</linearGradient>
	<path class="st54" d="M745.5,875.2l-7.5,51c-0.9,5.5,2.5,6,8,6.4c8.7,0.7,19.9,0.5,23.2-6.7c0.3-0.7,0.5-1.5,0.5-2.3l2.5-42.6
		c0.2-3.4-1.8-6.5-5-7.6l-11.6-4.1c-3.9-1.4-8.3,0.6-9.7,4.6C745.7,874.3,745.6,874.8,745.5,875.2z"/>
	<polygon class="st14" points="602.8,1297.3 586.9,1288.2 625.2,1186.6 634.3,1192.8 	"/>
	
		<linearGradient id="SVGID_50_" gradientUnits="userSpaceOnUse" x1="644.7959" y1="469.781" x2="675.4302" y2="469.781" gradientTransform="matrix(1 0 0 -1 0 1647.8898)">
		<stop  offset="0" style="stop-color:#DAE3FE"/>
		<stop  offset="1" style="stop-color:#E9EFFD"/>
	</linearGradient>
	<path class="st55" d="M645.9,1200.6L645.9,1200.6c0.5,0,0.9-0.4,0.9-0.9c0,0,0,0,0,0c0-0.3-2-29.8,6.3-39.3
		c1.3-1.7,3.3-2.7,5.5-2.8c2.1-0.1,4.1,0.7,5.5,2.2c9,8.4,9.6,37.6,9.6,37.9c0,0.5,0.4,0.9,0.8,0.9c0,0,0,0,0,0
		c0.5,0,0.9-0.4,0.9-0.9c0,0,0,0,0,0c0-1.2-0.5-30.2-10.1-39.1c-1.8-1.8-4.3-2.8-6.8-2.6c-2.6,0.2-5,1.4-6.7,3.4
		c-9,10.2-6.8,40.3-6.7,40.6C645.1,1200.2,645.5,1200.5,645.9,1200.6z"/>
	
		<linearGradient id="SVGID_51_" gradientUnits="userSpaceOnUse" x1="7787.771" y1="1657.465" x2="7811.771" y2="1425.465" gradientTransform="matrix(-1 8.000000e-02 -8.000000e-02 -1 8615.2607 1459.6798)">
		<stop  offset="0" style="stop-color:#FF928E"/>
		<stop  offset="1" style="stop-color:#FEB3B1"/>
	</linearGradient>
	<path class="st56" d="M715.6,981.5c-2.3,3-36.7,44-46.5,89.7s-6.5,76.2-6.5,76.2s10,7.5,6.4,12.8s-2.7,8.9-7.3,9.9
		s-10.3,2.5-9.6-6.6s-10.2-10.9-8.3-16.4s-10.5-152.9,48.9-192.9l0.8-0.6C718.5,962.6,719.2,976.6,715.6,981.5z"/>
	<polygon class="st14" points="681.8,1188.3 634.3,1192.8 602.8,1297.3 671,1299.1 	"/>
	<path class="st2" d="M601.9,1295.7c0.1,0,0.1,0,0.2,0c0.3-0.1,0.5-0.4,0.5-0.8c0,0,0,0,0,0l-3-11.6l24-74.6
		c0.1-0.3-0.1-0.7-0.4-0.8c-0.3-0.1-0.7,0.1-0.8,0.4l-24.1,74.8c0,0.1,0,0.2,0,0.3l3.1,11.8C601.3,1295.5,601.6,1295.7,601.9,1295.7
		z"/>
	<path class="st2" d="M588.1,1288.4c0.1,0,0.2,0,0.3-0.1l8.2-3.9c0.3-0.1,0.4-0.5,0.3-0.8c0,0,0,0,0,0c-0.2-0.3-0.5-0.4-0.8-0.3
		l-8.2,3.9c-0.3,0.1-0.4,0.5-0.3,0.8c0,0,0,0,0,0C587.6,1288.3,587.8,1288.4,588.1,1288.4z"/>
	
		<linearGradient id="SVGID_52_" gradientUnits="userSpaceOnUse" x1="5398.7212" y1="4964.9741" x2="5452.7212" y2="4871.9741" gradientTransform="matrix(-0.99 0.13 -0.13 -0.99 8539.3857 803.7309)">
		<stop  offset="0" style="stop-color:#FF928E"/>
		<stop  offset="1" style="stop-color:#FEB3B1"/>
	</linearGradient>
	<path class="st57" d="M755.2,826.2c0,0,18.8,5.1,34.4,29.2s8.1,37.2-3,40.3s-28.1,5.2-48.3-9S730.9,820.5,755.2,826.2z"/>
	
		<linearGradient id="SVGID_53_" gradientUnits="userSpaceOnUse" x1="5417.8052" y1="4976.0576" x2="5471.8052" y2="4883.0576" gradientTransform="matrix(-0.99 0.13 -0.13 -0.99 8539.3857 803.7309)">
		<stop  offset="0" style="stop-color:#FF928E"/>
		<stop  offset="1" style="stop-color:#FEB3B1"/>
	</linearGradient>
	<path class="st58" d="M745.3,876.1c0,0-9.4-18.5-17.4-9.5s9.8,16.9,16.6,19.3L745.3,876.1z"/>
	
		<linearGradient id="SVGID_54_" gradientUnits="userSpaceOnUse" x1="2392.0759" y1="925.2254" x2="2691.0159" y2="618.0853" gradientTransform="matrix(-1 0 0 -1 3250.3501 1647.8898)">
		<stop  offset="0" style="stop-color:#09005D"/>
		<stop  offset="1" style="stop-color:#1A0F91"/>
	</linearGradient>
	<path class="st59" d="M748.5,871.4c0,0-18.5-35.8,14.8-40.7l8.6,4.4c0,0,9.4-22.5-12-29.8s-50.2,5.7-55.1,33.9s2.5,45,18.4,56
		s19.8-4.4,19.8-4.4s-9.4-11.1-7.1-18s10.6-0.1,10.6-0.1L748.5,871.4z"/>
	<g class="st60">
		
			<linearGradient id="SVGID_55_" gradientUnits="userSpaceOnUse" x1="592.364" y1="665.9534" x2="635.2043" y2="665.9534" gradientTransform="matrix(1 0 0 -1 0 1647.8898)">
			<stop  offset="0" style="stop-color:#DAE3FE"/>
			<stop  offset="1" style="stop-color:#E9EFFD"/>
		</linearGradient>
		<path class="st61" d="M594.9,1018c0,0,0.1,0,0.2,0c0.3-0.1,0.5-0.4,0.4-0.7c0,0,0,0,0,0c-9.3-33.6,16.6-53.2,39.5-70.5
			c0.2-0.2,0.3-0.6,0.1-0.8c-0.2-0.3-0.6-0.3-0.8-0.1c-23.2,17.5-49.4,37.3-39.9,71.7C594.4,1017.9,594.7,1018.1,594.9,1018z"/>
		
			<linearGradient id="SVGID_56_" gradientUnits="userSpaceOnUse" x1="671.85" y1="779.4882" x2="715.0757" y2="779.4882" gradientTransform="matrix(1 0 0 -1 0 1647.8898)">
			<stop  offset="0" style="stop-color:#DAE3FE"/>
			<stop  offset="1" style="stop-color:#E9EFFD"/>
		</linearGradient>
		<path class="st62" d="M672.4,911.6c0.2,0,0.4-0.1,0.5-0.3c5.7-9.2,8.4-20,11-30.4s5.2-20.9,10.8-30.2c4.7-8,10.5-14.2,16.7-20.7
			c1.2-1.3,2.4-2.5,3.6-3.8c0.2-0.2,0.2-0.6,0-0.8c-0.2-0.2-0.6-0.2-0.8,0l-3.6,3.8c-6.2,6.6-12,12.9-16.8,20.9
			c-5.6,9.5-8.3,20.2-10.9,30.5s-5.3,21-10.8,30c-0.2,0.3-0.1,0.6,0.2,0.8C672.2,911.5,672.3,911.6,672.4,911.6z"/>
	</g>
	
		<linearGradient id="SVGID_57_" gradientUnits="userSpaceOnUse" x1="1811.8386" y1="199.801" x2="1561.7587" y2="-72.209" gradientTransform="matrix(-1 0 0 -1 3718.1299 1647.8898)">
		<stop  offset="0" style="stop-color:#09005D"/>
		<stop  offset="1" style="stop-color:#1A0F91"/>
	</linearGradient>
	<path class="st63" d="M1985.3,1468.3c0,0,2.6,14.7,3.9,29.2c0.5,5.5-3.6,10.3-9.1,10.8c-0.1,0-0.3,0-0.4,0
		c-19.3,0.8-60.7,2.4-75.5,1.7c-1.8-0.1-3.2-1.6-3.1-3.4c0-0.4,0.1-0.7,0.2-1.1l0,0c0.7-1.7,2-3.1,3.7-3.9l68.3-31.4L1985.3,1468.3z
		"/>
	
		<linearGradient id="SVGID_58_" gradientUnits="userSpaceOnUse" x1="1730.67" y1="179.5995" x2="1752.88" y2="179.5995" gradientTransform="matrix(-1 0 0 -1 3718.1299 1647.8898)">
		<stop  offset="0" style="stop-color:#FF928E"/>
		<stop  offset="1" style="stop-color:#FEB3B1"/>
	</linearGradient>
	<path class="st64" d="M1987.5,1459.7l-2.1,17.5c0,0-12,5.6-20.1-0.7l5-19.5L1987.5,1459.7z"/>
	
		<linearGradient id="SVGID_59_" gradientUnits="userSpaceOnUse" x1="1690.4369" y1="199.3485" x2="1739.5168" y2="484.4986" gradientTransform="matrix(-1 0 0 -1 3718.1299 1647.8898)">
		<stop  offset="0" style="stop-color:#E1473D"/>
		<stop  offset="1" style="stop-color:#E9605A"/>
	</linearGradient>
	<path class="st65" d="M1985.9,1130c0.9,4.6,4.8,228.5-19.1,328.9c-0.4,1.6,0.4,3.3,2,4c6.2,2.4,12.8,3.8,19.5,4
		c2.7,0.1,5.1-1.6,5.8-4.2c6.8-23.3,39.6-140,43.9-251.4c4.8-124.5,0-4.2,0-4.2l-2.8-77L1985.9,1130z"/>
	
		<linearGradient id="SVGID_60_" gradientUnits="userSpaceOnUse" x1="1755.7292" y1="251.3897" x2="1505.6593" y2="-20.6204" gradientTransform="matrix(-1 0 0 -1 3718.1299 1647.8898)">
		<stop  offset="0" style="stop-color:#09005D"/>
		<stop  offset="1" style="stop-color:#1A0F91"/>
	</linearGradient>
	<path class="st66" d="M2063.9,1476c0,0,4.1,7.4,8.1,27.1c0.7,3.3-1.4,6.5-4.7,7.2c-0.2,0-0.4,0.1-0.6,0.1
		c-6.4,0.6-16.2,1.4-24.1,1.4c-3.4,0-6.1-2.8-6-6.2c0-0.2,0-0.4,0-0.6c0.9-7.2,3.6-19,12-28.1L2063.9,1476z"/>
	
		<linearGradient id="SVGID_61_" gradientUnits="userSpaceOnUse" x1="1650.61" y1="180.7325" x2="1669.7902" y2="180.7325" gradientTransform="matrix(-1 0 0 -1 3718.1299 1647.8898)">
		<stop  offset="0" style="stop-color:#FF928E"/>
		<stop  offset="1" style="stop-color:#FEB3B1"/>
	</linearGradient>
	<path class="st67" d="M2067.5,1453.4l-4.9,26.5c0,0-4.8,3.6-14.3,1l2.3-28.5L2067.5,1453.4z"/>
	
		<linearGradient id="SVGID_62_" gradientUnits="userSpaceOnUse" x1="1634.9283" y1="208.9001" x2="1684.0083" y2="494.0501" gradientTransform="matrix(-1 0 0 -1 3718.1299 1647.8898)">
		<stop  offset="0" style="stop-color:#E1473D"/>
		<stop  offset="1" style="stop-color:#E9605A"/>
	</linearGradient>
	<path class="st68" d="M2080.6,1136.9c19.6,118.2-4.2,292-12.3,326.1c-0.5,2.1-2.2,3.7-4.3,4c-5.1,0.9-10.3,0.7-15.3-0.6
		c-2-0.6-3.4-2.4-3.5-4.5c-1.1-27.5,0.9-196.4-17.4-263.2c-0.9-3.4-3-6.3-5.8-8.4l-35.4-25.2l-2.7-40.7L2080.6,1136.9z"/>
	
		<linearGradient id="SVGID_63_" gradientUnits="userSpaceOnUse" x1="470.9643" y1="-245.2422" x2="736.9643" y2="-57.2422" gradientTransform="matrix(-1 0 0 -1 3718.1299 1647.8898)">
		<stop  offset="0" style="stop-color:#09005D"/>
		<stop  offset="1" style="stop-color:#1A0F91"/>
	</linearGradient>
	<path class="st69" d="M1955.9,913c58.7-1,123.4,15.4,123.4,15.4c17.5,102,3.1,219.8,3.1,219.8c-45.4,11.9-96.7-7.3-96.7-7.3
		c-7.6-42.7-42.8-162.7-42.8-162.7c-28.7-3.6-52.3-11.8-71.7-22.8c14.8-17.2,21.8-39.1,24.9-52
		C1916.8,909.9,1937.8,913.3,1955.9,913z"/>
	
		<linearGradient id="SVGID_64_" gradientUnits="userSpaceOnUse" x1="880.9774" y1="1917.8336" x2="1064.3075" y2="1707.1636" gradientTransform="matrix(-1 0 0 -1 3718.1299 1647.8898)">
		<stop  offset="0" style="stop-color:#FF928E"/>
		<stop  offset="1" style="stop-color:#FEB3B1"/>
	</linearGradient>
	<path class="st70" d="M1782.6,826.6c3-4,8.4-5.5,13.1-3.7c8.6,36.5,53.9,66,100.4,80.5c-3,12.9-10,34.8-24.9,52
		C1794,912,1782.6,826.6,1782.6,826.6z"/>
	
		<linearGradient id="SVGID_65_" gradientUnits="userSpaceOnUse" x1="5918.8076" y1="4557.1846" x2="6102.1479" y2="4346.5142" gradientTransform="matrix(1 0 0 -1 -7373.6499 1647.8898)">
		<stop  offset="0" style="stop-color:#FF928E"/>
		<stop  offset="1" style="stop-color:#FEB3B1"/>
	</linearGradient>
	<path class="st71" d="M1784,828.4c-0.6,1.9,6.4,4.8,10.5-3c0.1-3.8,2.4-19.9,0.2-22.9c-12-16.3-35.2-36.8-35.2-36.8
		c-2.3,1.9-2.6,5.3-0.7,7.7l11.2,11.7c-2.3,4.2-5.2,7.8-6.6,13c-1,3.9-0.4,8.1,1.6,11.6c2,3.6,4.7,8.2,7.2,11.8
		C1774.9,825.4,1779.3,828,1784,828.4z"/>
	
		<linearGradient id="SVGID_66_" gradientUnits="userSpaceOnUse" x1="1725.6866" y1="877.959" x2="1810.3566" y2="817.959" gradientTransform="matrix(1 0 0 -1 0 1647.8898)">
		<stop  offset="0" style="stop-color:#FF928E"/>
		<stop  offset="1" style="stop-color:#FEB3B1"/>
	</linearGradient>
	<path class="st72" d="M1775,792.7l10.2,8.7l3.2,8.7l-9.1,10.1c0,0-3.1-17.2-5.4-20.9S1772.8,793.8,1775,792.7z"/>
	
		<linearGradient id="SVGID_67_" gradientUnits="userSpaceOnUse" x1="425.3163" y1="-180.6452" x2="691.3163" y2="7.3548" gradientTransform="matrix(-1 0 0 -1 3718.1299 1647.8898)">
		<stop  offset="0" style="stop-color:#09005D"/>
		<stop  offset="1" style="stop-color:#1A0F91"/>
	</linearGradient>
	<path class="st73" d="M2056.8,985.2l22.5-56.8c0,0,54.8,37.2,63.8,84.5c-16.1,1.3-31.8,5.7-46.2,12.9
		C2088.6,1007.1,2056.8,985.2,2056.8,985.2z"/>
	
		<linearGradient id="SVGID_68_" gradientUnits="userSpaceOnUse" x1="2005.3788" y1="807.8099" x2="2006.0488" y2="708.4699" gradientTransform="matrix(1 0 0 -1 0 1647.8898)">
		<stop  offset="0" style="stop-color:#FF928E"/>
		<stop  offset="1" style="stop-color:#FEB3B1"/>
	</linearGradient>
	<path class="st74" d="M2015.3,865.4l18.7,54c0.3,0.9-0.1,1.9-0.9,2.3c-5.1,2.8-23.4,11-45.5-3.1c-2.3-1.4-3.9-3.8-4.2-6.5l-6-46.7
		L2015.3,865.4z"/>
	
		<linearGradient id="SVGID_69_" gradientUnits="userSpaceOnUse" x1="2013.1257" y1="838.5226" x2="1966.4557" y2="767.1926" gradientTransform="matrix(1 0 0 -1 0 1647.8898)">
		<stop  offset="0" style="stop-color:#FF928E"/>
		<stop  offset="1" style="stop-color:#FEB3B1"/>
	</linearGradient>
	<path class="st75" d="M1974.7,815.4c0,0-20.5,38.6-17.9,54.2s28,14.5,50.2,1.8l15.5-41.7L1974.7,815.4z"/>
	
		<linearGradient id="SVGID_70_" gradientUnits="userSpaceOnUse" x1="-110.8548" y1="7444.3403" x2="63.6153" y2="7643.5303" gradientTransform="matrix(-0.75 -0.67 0.67 -0.75 -3006.1863 490.1474)">
		<stop  offset="0" style="stop-color:#E1473D"/>
		<stop  offset="1" style="stop-color:#E9605A"/>
	</linearGradient>
	<path class="st76" d="M2006.1,850.9c-0.8-0.3-1.2-1.3-0.8-2.1c0-0.1,0.1-0.2,0.1-0.2c1.6-2.5,4.7-7.6,5.7-12.1c0,0,3.7-2.4-9.4-5.5
		s-32.6-8-36.6-19.1c-4-10.8,6.5-38.1,23.2-16.4c0.5,0.7,1.5,0.8,2.2,0.3c0.1-0.1,0.2-0.2,0.3-0.3c2.8-3.6,10-11,20-6.5
		c9.4,4.2,10.4,11.1,10.3,14.5c0,0.9,0.6,1.6,1.5,1.6c0.1,0,0.2,0,0.4,0c4.7-0.9,16.1-1.7,21.4,10c4.4,9.6,1.5,15-1.1,17.7
		c-0.6,0.6-0.6,1.6,0,2.2c0.2,0.2,0.4,0.3,0.7,0.4c3.1,1,7.1,3.6,6.7,10.9c-0.6,10.1-11.8,9.2-15,8.7c-0.5-0.1-1.1,0.1-1.4,0.5
		c-2.8,3-15.2,16-28.6,17.5c-0.9,0.1-1.7-0.5-1.8-1.4c0-0.2,0-0.5,0.1-0.7l5.8-16.9c0.3-0.8-0.1-1.7-0.9-2L2006.1,850.9z"/>
	
		<linearGradient id="SVGID_71_" gradientUnits="userSpaceOnUse" x1="2032.4707" y1="825.8693" x2="1985.8108" y2="754.5294" gradientTransform="matrix(1 0 0 -1 0 1647.8898)">
		<stop  offset="0" style="stop-color:#FF928E"/>
		<stop  offset="1" style="stop-color:#FEB3B1"/>
	</linearGradient>
	<path class="st77" d="M2003.7,853.3c0,0,14.6-10,15.7-1.6s-13.1,12.2-20.2,9.1L2003.7,853.3z"/>
	
		<linearGradient id="SVGID_72_" gradientUnits="userSpaceOnUse" x1="1885.2117" y1="392.7448" x2="1920.0016" y2="392.7448" gradientTransform="matrix(1 0 0 -1 0 1647.8898)">
		<stop  offset="0" style="stop-color:#FE7062"/>
		<stop  offset="1" style="stop-color:#FF928E"/>
	</linearGradient>
	<path class="st78" d="M1889.3,1330.4c2,0,3.6-1.4,4-3.3l26.6-142.8c0.2-2.3-1.5-4.2-3.7-4.4c-1.9-0.2-3.7,1.1-4.3,2.9l-26.6,142.8
		c-0.4,2.2,1.1,4.4,3.3,4.8C1888.8,1330.4,1889,1330.4,1889.3,1330.4z"/>
	
		<linearGradient id="SVGID_73_" gradientUnits="userSpaceOnUse" x1="1629.9467" y1="392.3848" x2="1974.2887" y2="392.3848" gradientTransform="matrix(1 0 0 -1 0 1647.8898)">
		<stop  offset="0" style="stop-color:#FE7062"/>
		<stop  offset="1" style="stop-color:#FF928E"/>
	</linearGradient>
	<path class="st79" d="M1700.4,1335.7h218.7c4.5-0.2,8-3.9,7.9-8.5c-0.2-4.3-3.6-7.7-7.9-7.9h-213.3l-55.3-127.7h315.6
		c4.5,0,8.2-3.7,8.2-8.2c0-4.5-3.7-8.2-8.2-8.2h-328c-4.5,0-8.2,3.7-8.2,8.2c0,1.1,0.2,2.2,0.7,3.2l62.3,144.1
		C1694.2,1333.8,1697.2,1335.7,1700.4,1335.7z"/>
	
		<linearGradient id="SVGID_74_" gradientUnits="userSpaceOnUse" x1="1706.42" y1="351.9048" x2="2078.24" y2="351.9048" gradientTransform="matrix(1 0 0 -1 0 1647.8898)">
		<stop  offset="0" style="stop-color:#FE7062"/>
		<stop  offset="1" style="stop-color:#FF928E"/>
	</linearGradient>
	<path class="st80" d="M1714.9,1478.7h172.3c3.8,0,7.1-2.5,8.2-6.1l102.6-342.4h71.7c4.7-0.2,8.3-4.2,8.1-8.9
		c-0.2-4.4-3.7-7.9-8.1-8.1h-78c-3.8,0-7.1,2.5-8.2,6.1l-102.6,342.4h-166c-4.7,0.2-8.3,4.2-8.1,8.9
		C1707,1475,1710.5,1478.5,1714.9,1478.7L1714.9,1478.7z"/>
	
		<linearGradient id="SVGID_75_" gradientUnits="userSpaceOnUse" x1="1865.62" y1="156.4762" x2="1908.1819" y2="156.4762" gradientTransform="matrix(1 0 0 -1 -8.029649e-03 1647.8848)">
		<stop  offset="0" style="stop-color:#09005D"/>
		<stop  offset="1" style="stop-color:#1A0F91"/>
	</linearGradient>
	<circle class="st81" cx="1887" cy="1491.4" r="21.3"/>
	
		<linearGradient id="SVGID_76_" gradientUnits="userSpaceOnUse" x1="1872.13" y1="156.3898" x2="1902.87" y2="156.3898" gradientTransform="matrix(1 0 0 -1 0 1647.8898)">
		<stop  offset="0" style="stop-color:#4042E2"/>
		<stop  offset="1" style="stop-color:#4F52FF"/>
	</linearGradient>
	<path class="st82" d="M1872.1,1491.5c0,8.5,6.9,15.4,15.4,15.4s15.4-6.9,15.4-15.4s-6.9-15.4-15.4-15.4c0,0,0,0,0,0
		C1879,1476.1,1872.1,1483,1872.1,1491.5C1872.1,1491.5,1872.1,1491.5,1872.1,1491.5z"/>
	
		<linearGradient id="SVGID_77_" gradientUnits="userSpaceOnUse" x1="1704.64" y1="156.5004" x2="1747.2041" y2="156.5004" gradientTransform="matrix(1 0 0 -1 -1.157794e-02 1647.8801)">
		<stop  offset="0" style="stop-color:#09005D"/>
		<stop  offset="1" style="stop-color:#1A0F91"/>
	</linearGradient>
	<circle class="st83" cx="1726" cy="1491.4" r="21.3"/>
	
		<linearGradient id="SVGID_78_" gradientUnits="userSpaceOnUse" x1="1711.14" y1="156.3898" x2="1741.88" y2="156.3898" gradientTransform="matrix(1 0 0 -1 0 1647.8898)">
		<stop  offset="0" style="stop-color:#4042E2"/>
		<stop  offset="1" style="stop-color:#4F52FF"/>
	</linearGradient>
	<path class="st84" d="M1711.1,1491.5c0,8.5,6.9,15.4,15.4,15.4s15.4-6.9,15.4-15.4s-6.9-15.4-15.4-15.4l0,0
		C1718,1476.1,1711.1,1483,1711.1,1491.5z"/>
	
		<linearGradient id="SVGID_79_" gradientUnits="userSpaceOnUse" x1="1848.839" y1="391.6317" x2="1859.8409" y2="391.6317" gradientTransform="matrix(1 0 0 -1 0 1647.8898)">
		<stop  offset="0" style="stop-color:#FE7062"/>
		<stop  offset="1" style="stop-color:#FF928E"/>
	</linearGradient>
	<path class="st85" d="M1852.9,1331.1c2.2,0,4-1.8,4.1-4l2.8-141.5c0.1-2.3-1.7-4.1-4-4.2c0,0,0,0,0,0c-2.2-0.1-4.1,1.6-4.2,3.8
		c0,0.1,0,0.1,0,0.2l-2.8,141.5c-0.1,2.3,1.7,4.1,4,4.2C1852.8,1331.1,1852.8,1331.1,1852.9,1331.1L1852.9,1331.1z"/>
	
		<linearGradient id="SVGID_80_" gradientUnits="userSpaceOnUse" x1="1807.2999" y1="391.8739" x2="1815.47" y2="391.8739" gradientTransform="matrix(1 0 0 -1 0 1647.8898)">
		<stop  offset="0" style="stop-color:#FE7062"/>
		<stop  offset="1" style="stop-color:#FF928E"/>
	</linearGradient>
	<path class="st86" d="M1811.4,1330.4c2.3,0,4.1-1.8,4.1-4.1v-140.9c-0.1-2.3-2-4-4.3-3.9c-2.1,0.1-3.8,1.8-3.9,3.9v140.8
		C1807.3,1328.6,1809.1,1330.4,1811.4,1330.4z"/>
	
		<linearGradient id="SVGID_81_" gradientUnits="userSpaceOnUse" x1="1757.65" y1="392.2898" x2="1766.7904" y2="392.2898" gradientTransform="matrix(1 0 0 -1 0 1647.8898)">
		<stop  offset="0" style="stop-color:#FE7062"/>
		<stop  offset="1" style="stop-color:#FF928E"/>
	</linearGradient>
	<path class="st87" d="M1762.7,1329.8L1762.7,1329.8c2.3,0,4.1-1.9,4.1-4.1c0,0,0,0,0,0l-1-140.2c0-2.2-1.8-4.1-4.1-4.1l0,0
		c-2.2,0-4.1,1.8-4.1,4.1c0,0,0,0,0,0l1,140.2C1758.6,1328,1760.5,1329.8,1762.7,1329.8z"/>
	
		<linearGradient id="SVGID_82_" gradientUnits="userSpaceOnUse" x1="1700.42" y1="391.7005" x2="1735.17" y2="391.7005" gradientTransform="matrix(1 0 0 -1 0 1647.8898)">
		<stop  offset="0" style="stop-color:#FE7062"/>
		<stop  offset="1" style="stop-color:#FF928E"/>
	</linearGradient>
	<path class="st88" d="M1731.1,1328.6c0.3,0,0.5,0,0.8-0.1c2.2-0.4,3.7-2.6,3.2-4.8l-26.6-136.9c-0.6-2.2-2.9-3.4-5.1-2.8
		c-1.9,0.5-3.2,2.4-2.9,4.4l26.6,136.9C1727.5,1327.2,1729.1,1328.6,1731.1,1328.6z"/>
	
		<linearGradient id="SVGID_83_" gradientUnits="userSpaceOnUse" x1="1649.1116" y1="429.2947" x2="1959.0916" y2="429.2947" gradientTransform="matrix(1 0 0 -1 0 1647.8898)">
		<stop  offset="0" style="stop-color:#FE7062"/>
		<stop  offset="1" style="stop-color:#FF928E"/>
	</linearGradient>
	<path class="st89" d="M1653,1222.7h301.8c2.3-0.1,4-2,3.9-4.3c-0.1-2.1-1.8-3.8-3.9-3.9H1653c-2.3,0.1-4,2-3.9,4.3
		C1649.2,1220.9,1650.9,1222.6,1653,1222.7z"/>
	
		<linearGradient id="SVGID_84_" gradientUnits="userSpaceOnUse" x1="1666.8981" y1="387.7549" x2="1945.0784" y2="387.7549" gradientTransform="matrix(1 0 0 -1 0 1647.8898)">
		<stop  offset="0" style="stop-color:#FE7062"/>
		<stop  offset="1" style="stop-color:#FF928E"/>
	</linearGradient>
	<path class="st90" d="M1671.2,1264.2h270c2.3-0.1,4-2,3.9-4.3c-0.1-2.1-1.8-3.8-3.9-3.9h-270c-2.3-0.1-4.2,1.6-4.3,3.9
		s1.6,4.2,3.9,4.3C1670.9,1264.2,1671.1,1264.2,1671.2,1264.2z"/>
	
		<linearGradient id="SVGID_85_" gradientUnits="userSpaceOnUse" x1="1685.27" y1="349.4598" x2="1934.8999" y2="349.4598" gradientTransform="matrix(1 0 0 -1 0 1647.8898)">
		<stop  offset="0" style="stop-color:#FE7062"/>
		<stop  offset="1" style="stop-color:#FF928E"/>
	</linearGradient>
	<path class="st91" d="M1689.4,1302.5h241.4c2.3,0,4.1-1.8,4.1-4.1c0-2.3-1.8-4.1-4.1-4.1h-241.4c-2.3,0-4.1,1.8-4.1,4.1
		C1685.3,1300.7,1687.1,1302.5,1689.4,1302.5z"/>
	
		<linearGradient id="SVGID_86_" gradientUnits="userSpaceOnUse" x1="963.2833" y1="-225.0129" x2="1069.2833" y2="-91.0129" gradientTransform="matrix(-1 0 0 -1 3718.1299 1647.8898)">
		<stop  offset="0" style="stop-color:#FF928E"/>
		<stop  offset="1" style="stop-color:#FEB3B1"/>
	</linearGradient>
	<path class="st92" d="M2142.8,1013.3c0,0,37.5,85.3-54.1,97.8l-12.5-10.4c0,0,45.8-25,20.8-74.9
		C2097,1025.8,2124,1002.9,2142.8,1013.3z"/>
	
		<linearGradient id="SVGID_87_" gradientUnits="userSpaceOnUse" x1="1027.2423" y1="-275.6121" x2="1133.2423" y2="-141.612" gradientTransform="matrix(-1 0 0 -1 3718.1299 1647.8898)">
		<stop  offset="0" style="stop-color:#FF928E"/>
		<stop  offset="1" style="stop-color:#FEB3B1"/>
	</linearGradient>
	<path class="st93" d="M2076.2,1100.7h-33.3c0,0-20.8,27-18.7,33.3s22.7,1.3,22.7,1.3l10.7-17.9c0,0,31.2,2.1,31.2-6.2
		S2076.2,1100.7,2076.2,1100.7z"/>
	
		<linearGradient id="SVGID_88_" gradientUnits="userSpaceOnUse" x1="1969.0375" y1="844.9409" x2="1974.9674" y2="844.9409" gradientTransform="matrix(1 0 0 -1 0 1647.8898)">
		<stop  offset="0" style="stop-color:#FF928E"/>
		<stop  offset="1" style="stop-color:#FEB3B1"/>
	</linearGradient>
	<path class="st94" d="M1974.4,813.8c-0.1,0-0.2,0-0.3-0.1c-2.8-1.9-4.6-4.9-5-8.2c-0.7-6.7,4.7-12.9,4.9-13.2
		c0.2-0.3,0.5-0.3,0.8-0.1c0.3,0.2,0.3,0.5,0.1,0.8c0,0-0.1,0.1-0.1,0.1c-0.1,0.1-5.3,6.1-4.7,12.4c0.4,3,2,5.7,4.6,7.4
		c0.2,0.2,0.3,0.5,0.1,0.8l0,0C1974.8,813.7,1974.6,813.8,1974.4,813.8z"/>
</g>
</svg>
