<svg xmlns="http://www.w3.org/2000/svg" width="32" height="32" viewBox="0 0 32 32">
  <g id="_006-user" data-name="006-user" opacity="1">
    <g id="Groupe_16" data-name="Groupe 16">
      <path id="Tracé_133" data-name="Tracé 133" d="M16,0A16,16,0,1,0,32,16,16.019,16.019,0,0,0,16,0Zm0,30a13.925,13.925,0,0,1-9.368-3.626,3.989,3.989,0,0,1,.584-.192l4.376-.878A3,3,0,0,0,14,22.36V21a1.007,1.007,0,0,0-.292-.708,8.431,8.431,0,0,1-.762-1.32,7.148,7.148,0,0,0-1.078-1.74,4.8,4.8,0,0,1-1.47-2.174,1.292,1.292,0,0,1,.084-1.048,1.927,1.927,0,0,0,.258-.91l-.014-.772a11.535,11.535,0,0,1,.152-2.868A5.814,5.814,0,0,1,15.98,6a4.986,4.986,0,0,1,2.4.636,4.152,4.152,0,0,0,1.3.376,3.537,3.537,0,0,1,.724.166c.28.3.494.64.512,2.032a.979.979,0,0,0,.04.262,16.265,16.265,0,0,1,.3,3.624,1.93,1.93,0,0,0,.244.894,1.344,1.344,0,0,1,.076,1.066,4.774,4.774,0,0,1-1.454,2.16,7.228,7.228,0,0,0-1.082,1.762,8.272,8.272,0,0,1-.75,1.314A1.007,1.007,0,0,0,18,21v1.36a3,3,0,0,0,2.4,2.94l4.372.878a4.208,4.208,0,0,1,.594.194A13.917,13.917,0,0,1,16,30Zm10.83-5.14a6.047,6.047,0,0,0-1.652-.64l-4.384-.88A1,1,0,0,1,20,22.36V21.354a12.01,12.01,0,0,0,.828-1.472,8,8,0,0,1,.7-1.234,6.539,6.539,0,0,0,2.012-3.186,3.073,3.073,0,0,0-.282-2.36,17.716,17.716,0,0,0-.342-4.042,4.413,4.413,0,0,0-1.042-3.238,3.093,3.093,0,0,0-1.858-.78,3.232,3.232,0,0,1-.682-.162A7.081,7.081,0,0,0,15.958,4,7.9,7.9,0,0,0,9,8.774a11.339,11.339,0,0,0-.274,3.6L8.7,13.1A3.2,3.2,0,0,0,8.44,15.46a6.537,6.537,0,0,0,2.026,3.2,8.864,8.864,0,0,1,.7,1.228A12.039,12.039,0,0,0,12,21.354V22.36a1,1,0,0,1-.8.98l-4.39.882a6.014,6.014,0,0,0-1.642.638,14,14,0,1,1,21.658,0Z" fill="white"/>
    </g>
  </g>
</svg>
