<svg id="search" xmlns="http://www.w3.org/2000/svg" width="24" height="24" viewBox="0 0 24 24">
  <g id="Groupe_10" data-name="Groupe 10" transform="translate(0 0)">
    <g id="Groupe_9" data-name="Groupe 9">
      <path id="Tracé_127" data-name="Tracé 127" d="M10.6.616a10.6,10.6,0,1,0,10.6,10.6A10.611,10.611,0,0,0,10.6.616Zm0,19.455a8.856,8.856,0,1,1,8.861-8.856A8.869,8.869,0,0,1,10.6,20.071Z" transform="translate(0 -0.616)" fill="#f0f4fd"/>
    </g>
  </g>
  <g id="Groupe_12" data-name="Groupe 12" transform="translate(16.649 16.678)">
    <g id="Groupe_11" data-name="Groupe 11">
      <path id="Tracé_128" data-name="Tracé 128" d="M360.564,359.322l-5.635-5.606a.858.858,0,0,0-1.21,1.217l5.635,5.606a.858.858,0,0,0,1.21-1.217Z" transform="translate(-353.466 -353.466)" fill="#f0f4fd"/>
    </g>
  </g>
</svg>
