<svg id="_003-share" data-name="003-share" xmlns="http://www.w3.org/2000/svg" width="33" height="36" viewBox="0 0 33 36">
  <path id="Tracé_1191" data-name="Tracé 1191" d="M324.418,20.875A4.875,4.875,0,1,1,319.543,16,4.875,4.875,0,0,1,324.418,20.875Zm0,0" transform="translate(-292.543 -14.875)" fill="#f0f4fd"/>
  <path id="Tracé_1192" data-name="Tracé 1192" d="M304.668,12a6,6,0,1,1,6-6A6.006,6.006,0,0,1,304.668,12Zm0-9.75A3.75,3.75,0,1,0,308.418,6,3.754,3.754,0,0,0,304.668,2.25Zm0,0" transform="translate(-277.668)" fill="#f0f4fd"/>
  <path id="Tracé_1193" data-name="Tracé 1193" d="M324.418,362.207a4.875,4.875,0,1,1-4.875-4.875A4.875,4.875,0,0,1,324.418,362.207Zm0,0" transform="translate(-292.543 -332.207)" fill="#f0f4fd"/>
  <path id="Tracé_1194" data-name="Tracé 1194" d="M304.668,353.332a6,6,0,1,1,6-6A6.006,6.006,0,0,1,304.668,353.332Zm0-9.75a3.75,3.75,0,1,0,3.75,3.75A3.754,3.754,0,0,0,304.668,343.582Zm0,0" transform="translate(-277.668 -317.332)" fill="#f0f4fd"/>
  <path id="Tracé_1195" data-name="Tracé 1195" d="M25.75,191.543a4.875,4.875,0,1,1-4.875-4.875A4.875,4.875,0,0,1,25.75,191.543Zm0,0" transform="translate(-14.875 -173.543)" fill="#f0f4fd"/>
  <path id="Tracé_1196" data-name="Tracé 1196" d="M6,182.668a6,6,0,1,1,6-6A6.006,6.006,0,0,1,6,182.668Zm0-9.75a3.75,3.75,0,1,0,3.75,3.75A3.754,3.754,0,0,0,6,172.918Zm0,0" transform="translate(0 -158.668)" fill="#f0f4fd"/>
  <path id="Tracé_1197" data-name="Tracé 1197" d="M115.85,101.152a1.5,1.5,0,0,1-.744-2.8l13.918-7.935a1.5,1.5,0,1,1,1.485,2.607l-13.919,7.935A1.49,1.49,0,0,1,115.85,101.152Zm0,0" transform="translate(-106.308 -83.871)" fill="#f0f4fd"/>
  <path id="Tracé_1198" data-name="Tracé 1198" d="M129.788,277.155a1.49,1.49,0,0,1-.741-.2l-13.919-7.935a1.5,1.5,0,0,1,1.485-2.607l13.919,7.935a1.5,1.5,0,0,1-.744,2.8Zm0,0" transform="translate(-106.329 -247.5)" fill="#f0f4fd"/>
</svg>
