<svg xmlns="http://www.w3.org/2000/svg">
    <symbol id="accueil" viewBox="0 0 32 32.003">
        <path d="M31.141 13.92L18.084.863a2.946 2.946 0 00-4.167 0L.869 13.911l-.013.013a2.945 2.945 0 001.96 5.02h.611v9.607A3.452 3.452 0 006.876 32h5.107a.938.938 0 00.938-.938v-7.528a1.575 1.575 0 011.573-1.573h3.013a1.575 1.575 0 011.573 1.573v7.532a.938.938 0 00.938.938h5.107a3.452 3.452 0 003.448-3.448v-9.608h.482a2.947 2.947 0 002.086-5.028zm-1.328 2.839a1.064 1.064 0 01-.757.314h-1.42a.938.938 0 00-.938.938v10.544c0 .867-.706 1.573-5.743 1.573v-6.594a3.452 3.452 0 00-3.448-3.448h-3.013a3.452 3.452 0 00-3.449 3.448v6.594H6.876a1.575 1.575 0 01-1.575-1.573V18.011a.938.938 0 00-.938-.938H2.919a1.07 1.07 0 01-.738-1.827L15.244 2.189a1.07 1.07 0 011.514 0L29.809 15.24l.006.006a1.073 1.073 0 01-.002 1.513zm0 0"/>
    </symbol>
    <symbol id="carte" viewBox="0 0 32 32">
        <path d="M16 0a16 16 0 1016 16A16.018 16.018 0 0016 0zm0 30.192A14.191 14.191 0 1130.192 16 14.207 14.207 0 0116 30.192z"/>
        <path d="M22.389 8.592a1.212 1.212 0 00-.446.089l-8.8 3.484a1.847 1.847 0 00-.977.977l-3.484 8.8a1.088 1.088 0 00.087 1.027 1.015 1.015 0 00.843.439 1.209 1.209 0 00.446-.089l8.8-3.483a1.846 1.846 0 00.978-.978l3.484-8.8a1.088 1.088 0 00-.092-1.027 1.015 1.015 0 00-.839-.439zm-4.221 9.565l-.011.011-7.159 2.834 2.83-7.159.011-.011 7.159-2.834z"/>
    </symbol>
    <symbol id="favoris" viewBox="0 0 35.968 32">
        <path d="M17.984 32a2.109 2.109 0 01-1.39-.522c-1.453-1.271-2.854-2.465-4.09-3.518l-.006-.005a76.066 76.066 0 01-8.93-8.382C1.134 16.636 0 13.851 0 10.809a11.242 11.242 0 012.853-7.677A9.672 9.672 0 0110.048 0 9.047 9.047 0 0115.7 1.951a11.562 11.562 0 012.285 2.386 11.563 11.563 0 012.285-2.386A9.047 9.047 0 0125.92 0a9.672 9.672 0 017.195 3.132 11.242 11.242 0 012.853 7.678c0 3.042-1.133 5.826-3.567 8.763a76.049 76.049 0 01-8.929 8.381c-1.238 1.055-2.641 2.251-4.1 3.524a2.111 2.111 0 01-1.388.522zM10.048 2.107A7.588 7.588 0 004.4 4.56a9.145 9.145 0 00-2.3 6.25c0 2.558.951 4.846 3.083 7.419a74.853 74.853 0 008.674 8.123l.007.005c1.241 1.057 2.647 2.256 4.111 3.536 1.473-1.282 2.881-2.483 4.124-3.542a74.865 74.865 0 008.674-8.122c2.132-2.572 3.082-4.86 3.082-7.419a9.145 9.145 0 00-2.3-6.25 7.588 7.588 0 00-5.635-2.453 6.988 6.988 0 00-4.363 1.51 10.224 10.224 0 00-2.431 2.813 1.33 1.33 0 01-2.285 0 10.214 10.214 0 00-2.431-2.813 6.988 6.988 0 00-4.362-1.51zm0 0"/>
    </symbol>
    <symbol id="mon_compte" viewBox="0 0 32 32">
        <path d="M16 0a16 16 0 1016 16A16.019 16.019 0 0016 0zm0 30a13.925 13.925 0 01-9.368-3.626 3.989 3.989 0 01.584-.192l4.376-.878A3 3 0 0014 22.36V21a1.007 1.007 0 00-.292-.708 8.431 8.431 0 01-.762-1.32 7.148 7.148 0 00-1.078-1.74 4.8 4.8 0 01-1.47-2.174 1.292 1.292 0 01.084-1.048 1.927 1.927 0 00.258-.91l-.014-.772a11.535 11.535 0 01.152-2.868A5.814 5.814 0 0115.98 6a4.986 4.986 0 012.4.636 4.152 4.152 0 001.3.376 3.537 3.537 0 01.724.166c.28.3.494.64.512 2.032a.979.979 0 00.04.262 16.265 16.265 0 01.3 3.624 1.93 1.93 0 00.244.894 1.344 1.344 0 01.076 1.066 4.774 4.774 0 01-1.454 2.16 7.228 7.228 0 00-1.082 1.762 8.272 8.272 0 01-.75 1.314A1.007 1.007 0 0018 21v1.36a3 3 0 002.4 2.94l4.372.878a4.208 4.208 0 01.594.194A13.917 13.917 0 0116 30zm10.83-5.14a6.047 6.047 0 00-1.652-.64l-4.384-.88a1 1 0 01-.794-.98v-1.006a12.01 12.01 0 00.828-1.472 8 8 0 01.7-1.234 6.539 6.539 0 002.012-3.186 3.073 3.073 0 00-.282-2.36 17.716 17.716 0 00-.342-4.042 4.413 4.413 0 00-1.042-3.238 3.093 3.093 0 00-1.858-.78 3.232 3.232 0 01-.682-.162A7.081 7.081 0 0015.958 4 7.9 7.9 0 009 8.774a11.339 11.339 0 00-.274 3.6L8.7 13.1a3.2 3.2 0 00-.26 2.36 6.537 6.537 0 002.026 3.2 8.864 8.864 0 01.7 1.228A12.039 12.039 0 0012 21.354v1.006a1 1 0 01-.8.98l-4.39.882a6.014 6.014 0 00-1.642.638 14 14 0 1121.658 0z"/>
    </symbol>
    <symbol id="loupe" viewBox="0 0 512 512">
      <path d="M225.474 0C101.151 0 0 101.151 0 225.474c0 124.33 101.151 225.474 225.474 225.474 124.33 0 225.474-101.144 225.474-225.474C450.948 101.151 349.804 0 225.474 0zm0 409.323c-101.373 0-183.848-82.475-183.848-183.848S124.101 41.626 225.474 41.626s183.848 82.475 183.848 183.848-82.475 183.849-183.848 183.849z"/>
      <path d="M505.902 476.472L386.574 357.144c-8.131-8.131-21.299-8.131-29.43 0-8.131 8.124-8.131 21.306 0 29.43l119.328 119.328c4.065 4.065 9.387 6.098 14.715 6.098 5.321 0 10.649-2.033 14.715-6.098 8.131-8.124 8.131-21.306 0-29.43z"/>
   </symbol>
    <symbol id="geoloc" viewBox="0 0 477.883 477.883">
      <path d="M468.456 1.808a17.063 17.063 0 00-15.289 0L9.433 223.675c-8.429 4.219-11.842 14.471-7.624 22.9a17.0648 17.0648 0 0012.197 9.151l176.111 32.034 32.034 176.111c1.311 7.219 7.091 12.793 14.353 13.841.803.116 1.613.173 2.423.171 6.469.003 12.383-3.651 15.275-9.438L476.07 24.711c4.222-8.427.813-18.681-7.614-22.903zM246.557 407.38l-24.986-137.353c-1.292-6.936-6.718-12.362-13.653-13.653L70.498 231.32 422.634 55.244 246.557 407.38z"/>
   </symbol>
   <symbol id="filter" viewBox="0 0 24.005 24.606">
       <path d="M22.971 0H1.034a1.03 1.03 0 00-.918.56 1.045 1.045 0 00.08 1.087l8.037 11.321.008.011a2.3 2.3 0 01.451 1.362v9.23a1.026 1.026 0 001.026 1.033 1.057 1.057 0 00.4-.081l4.521-1.723a.978.978 0 00.673-.965v-7.493a2.3 2.3 0 01.451-1.362l.008-.011 8.033-11.323A1.044 1.044 0 0023.89.559 1.031 1.031 0 0022.971 0zm-8.215 12.24a3.556 3.556 0 00-.693 2.1v7.343l-4.122 1.572v-8.913a3.554 3.554 0 00-.693-2.1L1.446 1.249h21.113zm0 0"/>
   </symbol>
    <symbol id="imagebvn" viewBox="0 0 185 185">
      <defs>
         <clipPath id="a">
            <circle cx="92.5" cy="92.5" r="92.5" transform="translate(95 95)" fill="#fff" stroke="#707070"/>
         </clipPath>
      </defs>
      <g transform="translate(-95 -95)" clip-path="url(#a)">
         <path fill="#fff" d="M95 95h185v185H95z"/>
         <g>
            <path fill="#e0e0e0" d="M217.749 134.361h24.848v36.016h-24.848z"/>
            <path fill="#f5f5f5" d="M216.501 134.361h24.848v36.016h-24.848z"/>
            <path fill="#fff" d="M219.583 138.263h18.675v28.217h-18.675z"/>
            <path d="M238.253 166.475v-7.9c0-4.955 0-12.02-.03-20.315l.059.059h-18.67l.069-.069v28.212l-.054-.05h-.119v-28.333h18.8v.064c0 8.314-.025 15.36-.03 20.359v7.724a1.184 1.184 0 01-.03.248z" fill="#e0e0e0"/>
            <path d="M241.439 134.352a4.364 4.364 0 01-.441.644c-.287.382-.7.907-1.164 1.486s-.907 1.07-1.229 1.427a4.736 4.736 0 01-.55.56 5.345 5.345 0 01.5-.619l1.2-1.452 1.194-1.452a4.385 4.385 0 01.49-.594z" fill="#e0e0e0"/>
            <path d="M238.378 166.41a23.285 23.285 0 003.26 4.073" fill="#fff"/>
            <path d="M241.638 170.483a3.467 3.467 0 01-.57-.5 18.246 18.246 0 01-1.229-1.387 17.274 17.274 0 01-1.08-1.486 3.64 3.64 0 01-.382-.669 4.371 4.371 0 01.461.614c.272.386.659.912 1.1 1.486s.882 1.055 1.194 1.407a4.959 4.959 0 01.506.535z" fill="#e0e0e0"/>
            <path d="M216.451 170.374l3.25-4.013" fill="#fff"/>
            <path d="M219.701 166.361a24.764 24.764 0 01-1.571 2.046c-.9 1.11-1.655 1.982-1.68 1.982a24.282 24.282 0 011.571-2.051 25.7 25.7 0 011.68-1.977z" fill="#e0e0e0"/>
            <path d="M216.45 134.351a21.845 21.845 0 011.581 1.888 23.863 23.863 0 011.486 1.982 21.848 21.848 0 01-1.581-1.888 22.217 22.217 0 01-1.486-1.982z" fill="#e0e0e0"/>
            <path fill="#e0e0e0" d="M226.181 143.994h6.253v17.753h-6.253z"/>
            <path d="M193.033 235.285a8.849 8.849 0 00-5.2 4.573 15.608 15.608 0 00-1.486 6.9c-.059 4.593 1.927 9.488 4.236 13.457 4.236-2.844 5.852-8.532 6.491-11.47.991-4.648 0-13.65-4.033-13.457" fill="#f5f5f5"/>
            <path d="M185.155 267.127a7.546 7.546 0 00-1.516-7.432 10 10 0 00-7.036-3.221 4.212 4.212 0 00-3.4 1.036 3.225 3.225 0 00-.461 3.235 6.525 6.525 0 002.1 2.671c3.037 2.477 6.441 4.345 10.316 3.7" fill="#f5f5f5"/>
            <path d="M188.347 278.165a14.916 14.916 0 00-.139-3.032 13.873 13.873 0 00-.753-3.23 30.918 30.918 0 00-1.521-3.751 15.063 15.063 0 00-4.717-5.619 11.055 11.055 0 00-1.982-1.075 2.477 2.477 0 00-.788-.228c-.04.084 1.065.5 2.537 1.6a16.189 16.189 0 014.459 5.559 36.475 36.475 0 011.531 3.676 15.69 15.69 0 01.842 3.122 24.376 24.376 0 00.531 2.978z" fill="#e0e0e0"/>
            <path d="M193.182 242.219a8.716 8.716 0 00-.347 1.486c-.188.991-.441 2.378-.738 4.117-.6 3.468-1.367 8.294-2.091 13.636s-1.234 10.192-1.531 13.715c-.149 1.759-.253 3.181-.307 4.167a8.065 8.065 0 00-.03 1.536 8.838 8.838 0 00.228-1.516c.124-1.075.282-2.477.5-4.152.391-3.508.961-8.349 1.68-13.68s1.432-10.068 1.937-13.65c.238-1.675.431-3.072.58-4.137a8.882 8.882 0 00.119-1.522z" fill="#e0e0e0"/>
            <path d="M190.755 269.595a17.649 17.649 0 0112.679-9.959c1.4-.258 3.121-.208 3.889.991s.094 2.795-.753 3.964a15.072 15.072 0 01-15.826 5.376" fill="#f5f5f5"/>
            <path d="M201.466 263.326a2.479 2.479 0 00-.788.169c-.5.139-1.214.381-2.081.7a19.818 19.818 0 00-6.253 3.686 12.485 12.485 0 00-2.477 3.171 11.916 11.916 0 00-1.135 3.087 12.084 12.084 0 00-.277 2.19 2.4 2.4 0 000 .808c.1 0 .144-1.145.6-2.908a12.327 12.327 0 013.617-5.97 22.327 22.327 0 016.045-3.726 23.046 23.046 0 002.749-1.207z" fill="#e0e0e0"/>
            <path d="M287.817 148.376s-5.193-1.531-7.293 10.4a140 140 0 00-2.269 18.511s-.728 2.591-2.651 1.63-5.188-4.345-7.492-2.849c-2.393 1.551-2.359 4.742-.54 8.884s5.45 13.378 5.787 14.21.218 2.2-1.194 1.764-10.4-5.861-12.734-1.4 4.638 15.142 5.376 16.351.654 1.813.139 2.319-3.369-1.6-6-3.037-5.921-2.641-7.041.025.991 11.654 13.784 23.4l6.273 5.054 7.6-2.794c15.89-6.976 20.81-14.785 20.622-17.674s-3.706-2.834-6.654-2.339-6.332 1.581-6.659.931-.2-1.268.887-2.15 11.138-8.77 10.38-13.71-11.034-2.725-12.516-2.765-1.125-1.382-.56-2.051 7.021-8.235 10.083-11.569 4.127-6.337 2.368-8.582c-1.695-2.165-5.886 0-8.012.268s-1.982-2.4-1.982-2.4a137.482 137.482 0 003.85-18.253c1.868-11.981-3.667-12.189-3.667-12.189" fill="#f5f5f5"/>
            <path d="M285.919 159.152a1.957 1.957 0 01-.025.253l-.1.738c-.1.659-.243 1.615-.421 2.834-.372 2.477-.931 6.025-1.64 10.4-1.417 8.795-3.468 20.924-5.792 34.317s-4.41 25.517-5.871 34.3c-.728 4.385-1.318 7.928-1.724 10.405-.2 1.219-.362 2.17-.5 2.829-.054.312-.094.555-.129.733s-.054.248-.054.248a1.64 1.64 0 01.03-.253c.03-.168.059-.421.1-.738.1-.659.243-1.615.421-2.834.372-2.477.931-6.025 1.64-10.4 1.417-8.795 3.468-20.929 5.8-34.322s4.425-25.512 5.911-34.317c.723-4.385 1.313-7.928 1.724-10.405l.471-2.829.129-.733a2.263 2.263 0 01.03-.226z" fill="#e0e0e0"/>
            <path d="M272.491 180.984a2.6 2.6 0 01.357.461c.218.307.5.758.882 1.318.728 1.125 1.695 2.7 2.725 4.459l2.621 4.524.8 1.363a2.063 2.063 0 01.273.5 2.5 2.5 0 01-.362-.456c-.213-.307-.5-.758-.872-1.323-.718-1.135-1.665-2.725-2.7-4.484l-2.651-4.5c-.317-.535-.59-.991-.808-1.363a2.126 2.126 0 01-.268-.491z" fill="#e0e0e0"/>
            <path d="M280.899 193.561c-.045-.064 3.122-2.195 7.07-4.766s7.174-4.6 7.219-4.539-3.126 2.2-7.07 4.767-7.179 4.592-7.219 4.538z" fill="#e0e0e0"/>
            <path d="M276.411 213.98a2.713 2.713 0 01.56-.2l1.546-.471c1.3-.4 3.107-.956 5.069-1.645s3.726-1.358 5-1.858l1.486-.59a2.243 2.243 0 01.57-.188 2.771 2.771 0 01-.525.282c-.347.168-.847.4-1.486.674-1.249.545-3 1.254-4.955 1.937s-3.785 1.219-5.1 1.571c-.664.173-1.2.307-1.576.391a2.479 2.479 0 01-.589.097z" fill="#e0e0e0"/>
            <path d="M266.303 204.287a2.268 2.268 0 01.436.337c.268.228.654.565 1.12.991.941.847 2.225 2.026 3.632 3.339s2.671 2.517 3.577 3.4c.451.436.813.8 1.06 1.05a2.534 2.534 0 01.367.411 1.942 1.942 0 01-.436-.332c-.273-.228-.654-.57-1.125-.991-.936-.842-2.225-2.022-3.632-3.34s-2.671-2.517-3.572-3.394c-.456-.441-.818-.8-1.065-1.055a2.132 2.132 0 01-.362-.416z" fill="#e0e0e0"/>
            <path d="M260.05 221.819a3.271 3.271 0 01.555.436l1.442 1.263c1.209 1.075 2.864 2.571 4.687 4.241s3.468 3.191 4.633 4.3l1.382 1.328a3.5 3.5 0 01.5.5 3.962 3.962 0 01-.555-.436l-1.442-1.263c-1.209-1.075-2.864-2.576-4.687-4.241s-3.468-3.191-4.628-4.3l-1.4-1.3a3.4 3.4 0 01-.487-.528z" fill="#e0e0e0"/>
            <path d="M272.997 233.523a4.3 4.3 0 01.7-.272l1.942-.669c1.635-.565 3.894-1.353 6.367-2.289s4.687-1.838 6.283-2.5l1.9-.788a4.117 4.117 0 01.709-.258 3.575 3.575 0 01-.664.357c-.436.213-1.07.5-1.863.862-1.581.713-3.79 1.645-6.268 2.581s-4.747 1.709-6.4 2.2c-.827.258-1.486.456-1.982.585a3.781 3.781 0 01-.719.188z" fill="#e0e0e0"/>
            <path d="M112.799 254.284c11.441-6.53 15.157-20.245 15.855-32.815.119-2.1.55-4.281-.277-6.208s-3.032-3.394-4.984-2.685c-1.62.59-2.477 2.334-3.468 3.751a12.308 12.308 0 01-5.336 4.236 4.7 4.7 0 01-4.33 0c-1.714-1.164-1.7-3.676-1.486-5.752q.59-5.827 1.135-11.634a19.476 19.476 0 00-.059-6.233 6.484 6.484 0 00-3.657-4.737c-1.927-.733-4.484.178-5.089 2.18a19.409 19.409 0 00-.292 2.581 2.2 2.2 0 01-1.486 1.947 2.508 2.508 0 01-2.195-1.164 27.132 27.132 0 01-4.281-7.957 38.469 38.469 0 00-3.924-8.16 11.2 11.2 0 00-7.229-4.955c-2.963-.426-6.307 1.11-7.328 3.964s.411 6 2.056 8.542a46.833 46.833 0 008.859 10.083 4.06 4.06 0 011.486 1.888c.322 1.427-1.12 2.685-2.527 3.017-1.6.372-3.27.055-4.905.1s-3.468.595-4.217 2.076c-1.05 2.046.525 4.459 2.14 6.06a39.847 39.847 0 0011.153 7.873 13.313 13.313 0 014.177 2.527c1.135 1.189 1.709 3.126.832 4.524s-2.841 1.696-4.416 1.246a28.317 28.317 0 01-4.4-2.16c-2.76-1.343-6.471-1.486-8.527.818a6.613 6.613 0 00-1.234 5.757 15.474 15.474 0 002.681 5.45 40.139 40.139 0 0015.984 13.571c6.426 2.908 12.506 4.093 19.324 2.289" fill="#f5f5f5"/>
            <path d="M112.114 263.589a92.157 92.157 0 00-1.828-17.461 187.874 187.874 0 00-5.564-20.756l-1.754-5.356c-.575-1.759-1.145-3.5-1.808-5.178a93.1 93.1 0 00-4.355-9.389c-1.531-2.918-3.087-5.634-4.563-8.161s-2.908-4.856-4.3-6.937a74.463 74.463 0 00-7.274-9.236c-.941-1.021-1.695-1.789-2.215-2.3l-.595-.58a1.747 1.747 0 00-.213-.188 1.914 1.914 0 00.183.213l.57.609c.5.53 1.239 1.318 2.16 2.354a78.285 78.285 0 017.16 9.305c1.372 2.066 2.78 4.4 4.246 6.937s3.012 5.252 4.529 8.165a95.268 95.268 0 014.335 9.34c.654 1.665 1.219 3.394 1.789 5.158s1.15 3.548 1.739 5.361a193.136 193.136 0 015.579 20.7 93.744 93.744 0 011.9 17.391" fill="#e0e0e0"/>
            <path d="M101.071 214.731a3.667 3.667 0 00.287-.867c.164-.565.367-1.387.609-2.413.5-2.046 1.055-4.89 1.675-8.032s1.229-5.97 1.744-8c.253-.991.466-1.838.624-2.4a4.416 4.416 0 00.2-.892 3.889 3.889 0 00-.342.847c-.2.555-.456 1.367-.743 2.378-.585 2.017-1.239 4.851-1.858 8l-1.566 8.064c-.193.966-.357 1.784-.5 2.438a4.7 4.7 0 00-.13.877z" fill="#e0e0e0"/>
            <path d="M74.781 207.291a6.241 6.241 0 001.055.223c.684.124 1.67.3 2.879.555 2.428.5 5.752 1.278 9.384 2.314s6.877 2.126 9.206 2.973c1.164.416 2.1.778 2.745 1.026a5.531 5.531 0 001.021.352 5.482 5.482 0 00-.961-.5c-.629-.292-1.551-.694-2.71-1.145-2.309-.922-5.549-2.046-9.2-3.092a93.978 93.978 0 00-9.439-2.215c-1.219-.218-2.215-.352-2.9-.431a5.335 5.335 0 00-1.08-.06z" fill="#e0e0e0"/>
            <path d="M110.125 245.556a1.273 1.273 0 00.213-.312l.55-.927c.5-.8 1.12-1.982 1.9-3.468 1.571-2.943 3.617-7.08 5.807-11.678s4.192-8.75 5.7-11.723l1.794-3.518.5-.961a1.64 1.64 0 00.144-.347 1.485 1.485 0 00-.213.307l-.545.927c-.471.808-1.12 1.982-1.908 3.468-1.571 2.948-3.612 7.085-5.807 11.683s-4.192 8.745-5.7 11.723l-1.796 3.526-.5.961a1.359 1.359 0 00-.144.347z" fill="#e0e0e0"/>
            <path d="M75.504 230.85a1.339 1.339 0 00.342.178l.991.441 3.691 1.586c3.121 1.333 7.432 3.231 12.139 5.331s9.037 3.964 12.189 5.232c1.571.639 2.849 1.14 3.741 1.486l1.026.377a1.667 1.667 0 00.367.1 1.233 1.233 0 00-.337-.178l-.991-.441-3.711-1.6c-3.121-1.338-7.432-3.235-12.139-5.336s-9.042-3.964-12.189-5.232c-1.571-.634-2.849-1.14-3.741-1.486l-1.026-.372a1.551 1.551 0 00-.352-.089z" fill="#e0e0e0"/>
            <path d="M147.977 104.618v40.9H89.244l-2.121-40.613z" fill="#e0e0e0"/>
            <path fill="#fff" d="M87.123 145.431v-40.52h58.734v40.52z"/>
            <path d="M146.139 145.708H86.845v-41.08h59.294zm-58.734-.56h58.174v-39.965H87.405z" fill="#e0e0e0"/>
            <path fill="#fff" d="M93.485 109.94h46.01v30.452h-46.01z"/>
            <path d="M139.499 109.939h-3.388l-9.483.035-33.117.065.134-.134v30.452l-.149-.144 46.015.03-.119.114c.03-9.265.05-16.846.064-22.153 0-2.646 0-4.712.03-6.129v-.045c0 1.407 0 3.468.03 6.1 0 5.307.035 12.932.059 22.227v.119h-.114l-46.015.03h-.145v-30.735h.129l33.2.069 9.454.035h3.117z" fill="#e0e0e0"/>
            <path d="M87.114 104.792a5.143 5.143 0 01.991.654c.6.436 1.422 1.05 2.3 1.759s1.66 1.372 2.21 1.873a4.7 4.7 0 01.837.862 36.174 36.174 0 01-3.231-2.512 35.943 35.943 0 01-3.107-2.636z" fill="#e0e0e0"/>
            <path d="M146.081 104.906a28.311 28.311 0 01-3.092 2.631 28.191 28.191 0 01-3.27 2.4 29.043 29.043 0 013.107-2.631 28.411 28.411 0 013.255-2.4z" fill="#e0e0e0"/>
            <path d="M146.031 145.487l-6.545-5.311" fill="#fff"/>
            <path d="M139.485 140.175a32.1 32.1 0 013.364 2.542 30.292 30.292 0 013.181 2.77 31.281 31.281 0 01-3.364-2.542 27.417 27.417 0 01-3.181-2.77z" fill="#e0e0e0"/>
            <path d="M87.113 145.483a28.087 28.087 0 013.062-2.606 28.423 28.423 0 013.238-2.379 27.715 27.715 0 01-3.057 2.606 28.427 28.427 0 01-3.243 2.379z" fill="#e0e0e0"/>
            <path fill="#e0e0e0" d="M102.829 129.63v-10.197h28.951v10.197z"/>
            <path fill="#e0e0e0" d="M252.93 95.115h31.403v45.519H252.93z"/>
            <path fill="#f5f5f5" d="M251.359 95.115h31.403v45.519h-31.403z"/>
            <path fill="#fff" d="M255.259 100.045h23.6v35.659h-23.6z"/>
            <path d="M278.863 135.705v-9.969c0-6.288-.025-15.2-.04-25.681l.079.079h-23.643l.089-.084v35.674l-.069-.069 17.178.04h.045l-17.223.035h-.064V99.961h23.783v.079c0 10.509-.025 19.428-.035 25.73 0 3.136 0 5.624-.025 7.328v2.433a.392.392 0 00-.075.174z" fill="#e0e0e0"/>
            <path d="M282.852 95.115a5.006 5.006 0 01-.56.813c-.367.5-.882 1.154-1.486 1.873s-1.145 1.353-1.556 1.8a5.527 5.527 0 01-.674.7 5.617 5.617 0 01.6-.783l1.511-1.833c.57-.7 1.09-1.328 1.511-1.838a5.8 5.8 0 01.654-.738z" fill="#e0e0e0"/>
            <path d="M278.982 135.636a29.432 29.432 0 004.117 5.148" fill="#fff"/>
            <path d="M283.099 140.784a4.723 4.723 0 01-.718-.654 21.641 21.641 0 01-1.556-1.749 23.366 23.366 0 01-1.363-1.9 4.8 4.8 0 01-.5-.842 6.206 6.206 0 01.58.778c.347.5.832 1.15 1.4 1.858s1.11 1.333 1.511 1.774a6.794 6.794 0 01.644.738z" fill="#e0e0e0"/>
            <path d="M251.206 140.646l4.112-5.074" fill="#fff"/>
            <path d="M255.319 135.572a30.444 30.444 0 01-1.982 2.591 31.326 31.326 0 01-2.126 2.477 58.129 58.129 0 014.108-5.069z" fill="#e0e0e0"/>
            <path d="M251.205 95.115a28.832 28.832 0 011.982 2.388 29.158 29.158 0 011.863 2.477 27.744 27.744 0 01-1.982-2.385 29.148 29.148 0 01-1.863-2.48z" fill="#e0e0e0"/>
            <path fill="#e0e0e0" d="M263.608 107.284h7.903v22.435h-7.903z"/>
            <g>
               <path d="M290.958 280.866c0 .074-48.434.129-108.158.129s-108.168-.035-108.168-.129 48.419-.129 108.168-.129 108.158.079 108.158.129z" fill="#263238"/>
            </g>
            <g>
               <path d="M230.395 195.149a8.557 8.557 0 01-2.552 8.374c-1.511 1.338-3.468 2.111-4.856 3.582a7.536 7.536 0 00-1.511 7.274 9.617 9.617 0 005.069 5.619 11.252 11.252 0 0010.207-.347c3.83-2.165 6.06-6.511 6.625-10.876s-.322-8.785-1.486-13.031" fill="#263238"/>
               <path d="M278.7 272.121c3.964-.649 7.68.56 11.6 1.427a6.937 6.937 0 003.216.173 4.615 4.615 0 003.171-3.825 6.263 6.263 0 00-.991-4.34 4.166 4.166 0 00-1.358-1.353 4.721 4.721 0 00-1.9-.5 13.481 13.481 0 00-6.986 1.318 20.6 20.6 0 00-5.8 4.2c-.832.832-.585 1.789-.951 2.908" fill="#263238"/>
               <path d="M198.338 208.145a30.719 30.719 0 01.228-11.4 14.964 14.964 0 011.982-5.178 3.32 3.32 0 011.452-1.363 2.527 2.527 0 012.581.609 4.315 4.315 0 011.189 3.34 10.587 10.587 0 01-.882 3.528 41.255 41.255 0 01-6.565 10.455" fill="#263238"/>
               <path d="M275.137 222.469c.9.639 20.81 43.533 20.81 43.533a8.458 8.458 0 00-5.079-.5l-1.08.287a18.077 18.077 0 00-5.426 2.477l-5.683 3.845a1.625 1.625 0 01-.808-1.253v-.164l-15.439-26.5z" fill="#020b5d"/>
               <path d="M200.365 154.183l5.311 30.189c1.709 4.063 21.642 28.678 21.642 28.678l-6.59 21.177-26.181-35.8a13.68 13.68 0 01-3.686-9.6l1.021-32.256z" fill="#ffbe9d"/>
               <path d="M228.632 208.319l13.67 1.036 11.921 1.848s20.914 5.495 20.914 7.784c0 .763-5.708 18.942-8.919 29.833a75.7 75.7 0 00-1.922 8.046l10.841 24h-51.445v-22s-3.468-28.9-2.859-32.85 7.799-17.697 7.799-17.697z" fill="#020b5d"/>
               <path d="M193.879 141.984a60.521 60.521 0 01.941-9.166c.074-.431.253-.951.684-.991.535-.069.808.619.877 1.154a32.3 32.3 0 01-.451 10.955" fill="#eb996e"/>
               <path d="M199.973 205.911c5.866-5.242 6.065-14.324 5.564-21.553a2.423 2.423 0 01.228-1.551c.56-.8 1.922-.5 2.477.307a4.647 4.647 0 01.466 2.829c.3-.822 1.591-.818 2.195-.183a3.942 3.942 0 01.778 2.477l.193 2.418 17.139 16.351s.471-1.486 1.729-.629a7.384 7.384 0 012.071 2.666l-12.075 26.35-22.41-27.251a9.1 9.1 0 011.645-2.231z" fill="#020b5d"/>
               <path d="M223.231 224.149a22.723 22.723 0 00-3.934 7.665 13.973 13.973 0 00.253 8.532 11.832 11.832 0 009.082 7.323" fill="#020b5d"/>
               <path d="M278.7 272.121l-.649 8.745h12.7l2.973-15.484a15.994 15.994 0 00-10.737 3.364z" fill="#ffbe9d"/>
               <path d="M205.944 203.973a4.245 4.245 0 01.277-.7c.2-.436.466-1.08.768-1.883s.624-1.774.927-2.864a34.251 34.251 0 00.748-3.612 33.6 33.6 0 00.312-3.672c0-1.135 0-2.155-.069-3.013s-.134-1.546-.2-2.022a4.782 4.782 0 01-.069-.748 3.757 3.757 0 01.168.733 19.974 19.974 0 01.282 2.022 27.68 27.68 0 01.124 3.032 28.68 28.68 0 01-1.07 7.338 27.229 27.229 0 01-.991 2.869c-.327.8-.619 1.437-.847 1.863a4.957 4.957 0 01-.36.657z" fill="#263238"/>
               <path d="M209.675 199.372a12.248 12.248 0 01.555-1.249 18.492 18.492 0 001.486-6.347 12.156 12.156 0 01.079-1.364 5.128 5.128 0 01.109 1.367 15.092 15.092 0 01-1.486 6.416 4.9 4.9 0 01-.743 1.177z" fill="#263238"/>
               <path d="M229.801 213.075c-.04-.025.169-.347.287-.931a4.914 4.914 0 00-.129-2.294 17.2 17.2 0 00-.857-2.19 3.751 3.751 0 01-.347-.932 4.456 4.456 0 01.5.852 11.354 11.354 0 01.946 2.2 4.494 4.494 0 01.054 2.408 1.768 1.768 0 01-.454.887z" fill="#263238"/>
               <path d="M226.823 247.977a1.019 1.019 0 01-.218-.124l-.585-.387c-.5-.342-1.234-.842-2.1-1.521a17.967 17.967 0 01-2.78-2.661 10.662 10.662 0 01-2.15-4.187 13.164 13.164 0 01-.287-4.707 18.58 18.58 0 01.847-3.751 24.5 24.5 0 01.946-2.413c.129-.277.228-.5.3-.634a1.1 1.1 0 01.124-.218 8.4 8.4 0 01-.332.892c-.223.565-.545 1.387-.867 2.428a19.671 19.671 0 00-.783 3.721 13.251 13.251 0 00.3 4.618 10.574 10.574 0 002.086 4.1 18.83 18.83 0 002.71 2.666c.842.694 1.551 1.214 2.041 1.586l.555.426c.133.102.198.156.193.166z" fill="#263238"/>
               <path d="M254.892 252.877a.848.848 0 01-.218.079c-.149.04-.362.114-.644.168a13.089 13.089 0 01-2.428.292 13.64 13.64 0 01-12.917-8.17 12.822 12.822 0 01-.778-2.319c-.069-.282-.094-.5-.124-.654a1.034 1.034 0 01-.025-.233 6.767 6.767 0 01.248.857 13.873 13.873 0 0013.592 10.337 14.953 14.953 0 002.413-.208 8.477 8.477 0 01.881-.149z" fill="#263238"/>
               <path d="M262.775 262.534c-.069 0 .585-2.76 1.486-6.119s1.645-6.07 1.709-6.05-.585 2.755-1.462 6.114-1.664 6.055-1.733 6.055z" fill="#263238"/>
               <path d="M269.687 256.692c-.059.035-2.051-3.221-4.459-7.274s-4.291-7.368-4.226-7.4 2.051 3.216 4.459 7.269 4.31 7.365 4.226 7.405z" fill="#263238"/>
               <path d="M288.709 264.713c0 .05-.723.109-1.853.4a14.614 14.614 0 00-1.937.639 16.138 16.138 0 00-2.22 1.149 15.7 15.7 0 00-1.982 1.511 14.552 14.552 0 00-1.412 1.486c-.743.9-1.11 1.526-1.154 1.486a2.2 2.2 0 01.233-.456 9.207 9.207 0 01.778-1.159 13.261 13.261 0 011.392-1.536 14.335 14.335 0 012.012-1.556 14.588 14.588 0 012.269-1.15 12.605 12.605 0 011.982-.6 8.962 8.962 0 011.377-.208 1.8 1.8 0 01.515-.006z" fill="#263238"/>
               <path d="M291.136 261.731c0 .055-.8-.045-2.071.064a13.241 13.241 0 00-8.681 4.35c-.847.951-1.244 1.645-1.288 1.62a2.27 2.27 0 01.263-.5 4.793 4.793 0 01.357-.55 8.7 8.7 0 01.53-.694 12.042 12.042 0 011.615-1.6 13.879 13.879 0 012.339-1.516 13.659 13.659 0 012.606-.961 11.962 11.962 0 012.249-.342 8.613 8.613 0 01.867 0 5.872 5.872 0 01.659.04 2.215 2.215 0 01.555.079z" fill="#263238"/>
               <g>
                  <path d="M238.289 243.096c-1.164 2.21-.193 4.905.872 7.17a13.045 13.045 0 003.255 4.757 6.937 6.937 0 0010.083-1.407 15.652 15.652 0 01-14.448-10.222" opacity=".3"/>
               </g>
               <g>
                  <path d="M261.035 242.016c-.892 2.126-.218 5.034.713 7.14s1.922 4.459 1.174 6.644a2.8 2.8 0 00-.292 1.249c.05.426.5.837.9.639a.991.991 0 00.4-.614q1.055-3.181 2.116-6.357" opacity=".3"/>
               </g>
               <path d="M214.164 214.026a59.133 59.133 0 011.254-7.868 29.318 29.318 0 01-.5 3.964 30.257 30.257 0 01-.754 3.904z" fill="#fafafa"/>
               <path d="M208.946 212.932c-.064.04-.917-1.15-2.1-2.517s-2.22-2.393-2.17-2.448a12.229 12.229 0 012.368 2.279 12.69 12.69 0 011.902 2.686z" fill="#fafafa"/>
               <path d="M213.426 200.168a4.271 4.271 0 01-.56.892c-.377.53-.927 1.239-1.566 1.982s-1.254 1.412-1.714 1.868a4.009 4.009 0 01-.788.694c-.055-.049 1.031-1.224 2.3-2.73a34.162 34.162 0 012.328-2.706z" fill="#fafafa"/>
               <path d="M211.677 193.926c-.074.03-.357-.6-.9-1.229s-1.13-.991-1.09-1.065a2.418 2.418 0 011.283.9 2.478 2.478 0 01.707 1.394z" fill="#fafafa"/>
               <path d="M207.158 197.779a3.558 3.558 0 01-1.288.332 3.417 3.417 0 01-1.328.079 6.937 6.937 0 012.616-.411z" fill="#fafafa"/>
               <path d="M218.559 203.279a13.527 13.527 0 00-.163-2.3 13.147 13.147 0 00-.808-2.165 3.89 3.89 0 011.055 2.111 3.964 3.964 0 01-.084 2.354z" fill="#fafafa"/>
               <path d="M224.648 209.83a11.6 11.6 0 00-3.592-3.622 6.263 6.263 0 013.592 3.622z" fill="#fafafa"/>
               <path d="M214.872 221.194a5.946 5.946 0 01-4.543-.154c.025-.074.991.238 2.264.272s2.26-.19 2.279-.118z" fill="#fafafa"/>
               <path d="M219.461 223.549c-.069-.03.317-1.169.639-2.616s.466-2.646.54-2.636a8.357 8.357 0 01-.287 2.69 8.453 8.453 0 01-.892 2.562z" fill="#fafafa"/>
               <path d="M229.484 223.931a17.653 17.653 0 01-2.165-2.18 18.509 18.509 0 01-1.982-2.358 18.089 18.089 0 012.16 2.185 19.136 19.136 0 011.987 2.353z" fill="#fafafa"/>
               <path d="M234.151 235.51a9.467 9.467 0 01-1.615-1.486 9.684 9.684 0 01-1.427-1.665 9.466 9.466 0 011.615 1.487 8.977 8.977 0 011.427 1.664z" fill="#fafafa"/>
               <path d="M225.476 236.615a7.2 7.2 0 01-1.982 1.486 7.01 7.01 0 01-2.289.991c0-.069.991-.5 2.16-1.194s2.061-1.342 2.111-1.283z" fill="#fafafa"/>
               <path d="M229.469 247.63c-.074 0 .223-1.318.372-2.948s.1-2.973.178-2.973a9.516 9.516 0 01.079 2.973 9.377 9.377 0 01-.629 2.948z" fill="#fafafa"/>
               <path d="M244.487 238.677a8.328 8.328 0 01-2.145-1.888 8.122 8.122 0 01-1.581-2.373c.064-.045.743 1.031 1.774 2.2s2.006 1.996 1.952 2.061z" fill="#fafafa"/>
               <path d="M249.972 243.353c-.059-.045.694-1.075 1.536-2.4s1.462-2.433 1.526-2.4a10.625 10.625 0 01-1.313 2.537 10.336 10.336 0 01-1.749 2.259z" fill="#fafafa"/>
               <path d="M249.169 231.913a25.93 25.93 0 01-4.955-1.338 13.643 13.643 0 012.517.545 12.686 12.686 0 012.438.793z" fill="#fafafa"/>
               <path d="M245.171 252.039a10.51 10.51 0 010-2.349 11.1 11.1 0 01.268-2.334 10.351 10.351 0 010 2.349 10.9 10.9 0 01-.268 2.334z" fill="#fafafa"/>
               <path d="M248.629 258.932a19.91 19.91 0 00.624-2.443 19.162 19.162 0 00.04-2.522 5.946 5.946 0 01-.664 4.955z" fill="#fafafa"/>
               <path d="M239.666 257.41a7.646 7.646 0 01.951-4.955c.069.03-.386 1.075-.644 2.448s-.234 2.502-.307 2.507z" fill="#fafafa"/>
               <path d="M231.488 260.904a27.752 27.752 0 01-2.329-1.808 28.8 28.8 0 01-2.294-1.848 12.031 12.031 0 012.477 1.645 12.59 12.59 0 012.145 2.012z" fill="#fafafa"/>
               <path d="M237.025 251.182a42.786 42.786 0 01-5.946 3.146 22.243 22.243 0 012.933-1.7 21.633 21.633 0 013.013-1.446z" fill="#fafafa"/>
               <path d="M254.224 272.998a2.237 2.237 0 01-.322.079c-.213.04-.525.119-.931.174a19.885 19.885 0 01-3.468.223 21.407 21.407 0 01-18.655-11.654 19.607 19.607 0 01-1.328-3.226c-.134-.391-.2-.7-.258-.912a1.564 1.564 0 01-.064-.327 1.815 1.815 0 01.114.312c.074.2.154.5.3.9a22.447 22.447 0 004.311 7.388 21.761 21.761 0 0015.583 7.338 22.527 22.527 0 003.468-.139c.411-.04.723-.1.936-.124a1.393 1.393 0 01.314-.032z" fill="#263238"/>
               <path d="M239.418 270.43a3.85 3.85 0 01.233-2.344 3.811 3.811 0 011.368-1.918 12.192 12.192 0 00-1.125 2.012 12.576 12.576 0 00-.476 2.25z" fill="#fafafa"/>
               <path d="M235.341 268.727a8.654 8.654 0 00-1.288 1.229 9.056 9.056 0 00-.813 1.581 3.037 3.037 0 012.101-2.81z" fill="#fafafa"/>
               <path d="M251.022 278.061a5.073 5.073 0 01-3.964-2.477 8.918 8.918 0 003.964 2.477z" fill="#fafafa"/>
               <path d="M253.46 264.337a3.9 3.9 0 01-2.69 3.171 10.589 10.589 0 001.605-1.363 10.244 10.244 0 001.085-1.808z" fill="#fafafa"/>
               <path d="M260.392 274.569c-.059-.049.595-.877 1.2-2.017s.927-2.145.991-2.121a7.621 7.621 0 01-2.2 4.137z" fill="#fafafa"/>
               <path d="M269.553 275.911c.03.074-.872.431-1.779 1.179s-1.452 1.551-1.516 1.486a4.018 4.018 0 011.353-1.709 3.964 3.964 0 011.942-.956z" fill="#fafafa"/>
               <path d="M262.567 264.184c-.079.025-.5-1.422-1.422-3.027s-1.917-2.735-1.853-2.785a3.092 3.092 0 01.709.694 12.3 12.3 0 012.339 4.152 3.28 3.28 0 01.228.966z" fill="#fafafa"/>
               <path d="M263.935 249.433a23.013 23.013 0 01-4.757 1.095 23.21 23.21 0 014.757-1.095z" fill="#fafafa"/>
               <path d="M259.719 245.024a10.9 10.9 0 01-1.516-1.744 10.757 10.757 0 01-1.313-1.9 9.955 9.955 0 011.516 1.739 10.084 10.084 0 011.313 1.9z" fill="#fafafa"/>
               <path d="M270.183 242.378a11.539 11.539 0 01-4.638-1.1 20.2 20.2 0 012.324.54 19.591 19.591 0 012.314.56z" fill="#fafafa"/>
               <path d="M277.615 242.243a19.193 19.193 0 01.758-2.061 17.545 17.545 0 01.758-2.066 6.475 6.475 0 01-.5 2.155 6.309 6.309 0 01-1.016 1.972z" fill="#fafafa"/>
               <path d="M275.92 252.312a7.431 7.431 0 01-3.964-2.349c.049-.059.832.624 1.917 1.263s2.072 1.011 2.047 1.086z" fill="#fafafa"/>
               <path d="M280.741 252.005a17.962 17.962 0 01.545-2.943 17.659 17.659 0 01.783-2.879 34.5 34.5 0 01-1.343 5.827z" fill="#fafafa"/>
               <path d="M276.718 263.262a30.28 30.28 0 01-3.3-4.514 15.474 15.474 0 011.754 2.18 15.184 15.184 0 011.546 2.334z" fill="#fafafa"/>
               <path d="M283.595 258.956c-.069.035-.52-.862-1.234-1.863s-1.4-1.729-1.348-1.784a5.758 5.758 0 011.561 1.635 5.589 5.589 0 011.021 2.012z" fill="#fafafa"/>
               <path d="M290.046 257.99a24.579 24.579 0 01-1.586-2.076 25.8 25.8 0 01-1.586-2.071 13.429 13.429 0 013.172 4.147z" fill="#fafafa"/>
               <path d="M288.515 262.268a4.776 4.776 0 00-.59-1.69 4.88 4.88 0 00-1.323-1.209c0-.03.228 0 .54.154a2.676 2.676 0 01.991.912 2.72 2.72 0 01.441 1.278c.05.325-.012.555-.059.555z" fill="#fafafa"/>
               <path d="M283.501 268.127c-.04 0-.025-.134-.064-.307a1.016 1.016 0 00-.342-.57.991.991 0 00-.634-.193c-.178 0-.292.045-.312 0s.074-.134.287-.193a.941.941 0 011.179.922c-.005.237-.084.351-.114.341z" fill="#fafafa"/>
               <path d="M231.952 277.497a7.14 7.14 0 01-4.083-4.063 12.07 12.07 0 004.083 4.083z" fill="#fafafa"/>
               <path d="M200.414 154.519c-.8-7.536-2.24-14.626-2.631-22.014a1.337 1.337 0 00-.352-1.021.922.922 0 00-1.283.372 2.815 2.815 0 00-.248 1.486 34.1 34.1 0 01-1.982 11.53c-.847 2.4-1.982 4.707-2.616 7.17s.56 3.3 1.67 5.594" fill="#ffbe9d"/>
               <path d="M192.987 157.626a6.9 6.9 0 01-2.621-6.525 19.643 19.643 0 011.576-4.221 7.16 7.16 0 00.679-4.39 7.394 7.394 0 01-.4-1.68c0-.575.372-1.219.946-1.244a1.407 1.407 0 011.075.649c.966 1.194 1.739 4.682 1.254 7.288" fill="#ffbe9d"/>
               <path d="M195.499 147.503s.05-.4.079-1.125a13.5 13.5 0 00-.253-3.042 11.012 11.012 0 00-.595-2.017 4.086 4.086 0 00-.555-.991 1.412 1.412 0 00-.927-.629.892.892 0 00-.827.694 2.1 2.1 0 00.079 1.273 6.606 6.606 0 01.347 1.4 5.613 5.613 0 01-.055 1.486c-.347 2.012-1.417 3.637-1.982 5.247a7.11 7.11 0 00-.441 2.349 6.873 6.873 0 00.307 2.061 7.071 7.071 0 001.486 2.631c.5.53.818.763.8.788a1.309 1.309 0 01-.248-.164 5.505 5.505 0 01-.629-.56 6.779 6.779 0 01-1.586-2.641 6.857 6.857 0 01-.347-2.116 7.263 7.263 0 01.431-2.428c.545-1.645 1.6-3.27 1.927-5.207a5.134 5.134 0 00.055-1.427 6.292 6.292 0 00-.332-1.363 2.324 2.324 0 01-.069-1.422 1.377 1.377 0 01.391-.609.912.912 0 01.684-.243 1.62 1.62 0 011.13.7 4.332 4.332 0 01.575 1.07 10.4 10.4 0 01.575 2.061 12.237 12.237 0 01.173 3.082 6.163 6.163 0 01-.109.832 1.126 1.126 0 01-.084.31z" fill="#eb996e"/>
               <path d="M260.272 187.742a3.419 3.419 0 003.057 2.646 4.291 4.291 0 003.731-1.833 5.782 5.782 0 00.927-4.142 5.685 5.685 0 00-3.681-4.712 4.107 4.107 0 00-5.069 2.517l-2.319 3.236z" fill="#263238"/>
               <path d="M257.533 181.384a13.492 13.492 0 00-12.124-15.112 13.763 13.763 0 00-14.661 11.817 140.614 140.614 0 00-1.729 14.864c.089 6.937 4.137 9.622 5.782 10.4a9.086 9.086 0 001.823.451.045.045 0 01.035.055l-1.536 7.928c-.7 5.207 2.21 9.855 7.407 10.613s9.3-3.24 10.093-8.453z" fill="#ffbe9d"/>
               <path d="M231.941 182.137c.114.164 1.026-.327 2.2-.154s1.942.887 2.091.758c.074-.055-.03-.327-.362-.654a3.032 3.032 0 00-1.65-.788 2.933 2.933 0 00-1.779.3c-.407.226-.559.464-.5.538z" fill="#263238"/>
               <path d="M242.366 184.397c.114.164 1.031-.327 2.2-.154s1.947.887 2.1.758c.069-.054-.03-.327-.367-.659a3.027 3.027 0 00-1.645-.783 2.928 2.928 0 00-1.779.3c-.405.222-.563.464-.509.538z" fill="#263238"/>
               <path d="M238.313 189.936a7.89 7.89 0 00-1.853-.619c-.3-.074-.57-.178-.59-.387a1.541 1.541 0 01.327-.857l1.219-2.15a40.294 40.294 0 002.854-5.673 39.468 39.468 0 00-3.3 5.45l-1.184 2.165a1.809 1.809 0 00-.327 1.154.778.778 0 00.431.5 2.139 2.139 0 00.5.144 7.715 7.715 0 001.932.277z" fill="#263238"/>
               <path d="M236.668 203.859s4.459 1.031 10.628-1.546c0 0-2.656 5.723-11.039 3.686z" fill="#eb996e"/>
               <path d="M238.397 192.835a2.136 2.136 0 011.982-.5 1.982 1.982 0 011.229.912 1.224 1.224 0 01-.114 1.407 1.417 1.417 0 01-1.59.163 4.4 4.4 0 01-1.367-1.11 1.255 1.255 0 01-.287-.4.387.387 0 01.069-.436" fill="#eb996e"/>
               <path d="M241.643 191.249c-.188-.04-.377 1.234-1.6 1.982s-2.557.406-2.591.585c-.03.079.268.292.837.391a3.21 3.21 0 002.15-.416 2.8 2.8 0 001.259-1.67c.128-.53.034-.867-.055-.872z" fill="#263238"/>
               <path d="M243.174 180.586c.069.337 1.263.357 2.611.723s2.413.9 2.636.644c.1-.124-.049-.451-.451-.827a4.717 4.717 0 00-4-1.041c-.543.125-.82.338-.796.501z" fill="#263238"/>
               <path d="M233.125 178.526c.163.3 1.016.139 1.982.268s1.769.436 1.982.188c.1-.124 0-.411-.312-.714a2.894 2.894 0 00-3.211-.367c-.361.224-.515.481-.441.625z" fill="#263238"/>
               <path d="M229.39 176.538c1.432 2.185 5.98.832 8.725-.669a6.53 6.53 0 008.919-1.843c1.571 1.982 4.767 1.338 5.946-.917s.5-5.361-1.09-7.333a10.173 10.173 0 00-6.243-3.394 14.513 14.513 0 00-14.711 6.06c-1.511 2.284-2.418 5.361-1.521 8.1" fill="#263238"/>
               <path d="M244.521 163.161a23.808 23.808 0 00-3.325.188 12.09 12.09 0 00-6.877 3.7 14.984 14.984 0 00-3.28 7.165 19.827 19.827 0 00-.173 3.32 3.037 3.037 0 01-.183-.892 10.291 10.291 0 01.04-2.477 14.433 14.433 0 013.28-7.432 11.891 11.891 0 017.175-3.721 10.55 10.55 0 012.477-.04 2.908 2.908 0 01.866.189z" fill="#455a64"/>
               <path d="M237.119 173.348a2.249 2.249 0 01-.109-.778 7.685 7.685 0 01.223-2.135 8.795 8.795 0 0111.039-6.5 8.041 8.041 0 011.982.842 2.152 2.152 0 01.629.5 16.2 16.2 0 00-2.686-.991 8.775 8.775 0 00-10.653 6.273 15.482 15.482 0 00-.425 2.789z" fill="#455a64"/>
               <path d="M250.255 170.97a25.893 25.893 0 00-.922 5.946 8.755 8.755 0 001.779 5.619c1.913 2.3 5.1 3.008 8.047 3.567a23.287 23.287 0 001.372-12.387 10.308 10.308 0 00-2.418-5.569 6.734 6.734 0 00-8.175-.991" fill="#263238"/>
               <path d="M251.89 180.562a9.686 9.686 0 00-.451 5.45 35.7 35.7 0 01.713 5.48 6.355 6.355 0 01-2.051 4.955 8.724 8.724 0 00-1.229.991 1.283 1.283 0 00-.258 1.452c.277.446 1.115.436 1.234-.074l-.074.129a.817.817 0 00.694 1.234 3.711 3.711 0 002.646-1.3 8.107 8.107 0 001.571-3.964c.763-4.375.614-8.919 1.823-13.185" fill="#263238"/>
               <path d="M235.088 209.294a10.658 10.658 0 0014.235 7.561c2.567-.991 4.638-2.923 6.634-4.811a15.543 15.543 0 01-14.4 18.065c-3.285.2-6.813-.8-8.879-3.364a9.96 9.96 0 01-1.982-6.441 23.467 23.467 0 011.3-6.738c.585-1.873 1.511-3.964 3.4-4.484" fill="#020b5d"/>
               <path d="M258.594 186.23a7.5 7.5 0 013.424 5.495 51.844 51.844 0 01.282 6.684 10.54 10.54 0 001.932 6.292c1.486 1.843 3.84 2.715 5.946 3.84a19.686 19.686 0 019.81 11.768 14.97 14.97 0 01-3.662 14.542c-3.468 3.3-8.473 4.459-13.249 4.459-3.4 0-7.145-.733-9.27-3.394s-1.982-6.392-1.239-9.672 2.106-6.466 2.16-9.83a17.514 17.514 0 01-2.616 5.817c-.352.5-.951 1.041-1.486.753s-.372-1.214-.094-1.833c4.1-9.132 2.676-27.539 5.108-37.621" fill="#263238"/>
               <path d="M255.214 185.195c.124-.04 4.915-.946 4.3 3.79s-5.242 3.141-5.232 3.008.932-6.798.932-6.798z" fill="#ffbe9d"/>
               <path d="M255.957 190.387a1.874 1.874 0 00.208.149.838.838 0 00.614.094 2.064 2.064 0 001.184-1.709 2.811 2.811 0 00-.079-1.214.956.956 0 00-.54-.713.426.426 0 00-.5.164c-.079.124-.064.223-.089.228s-.089-.094-.03-.282a.53.53 0 01.228-.273.624.624 0 01.5-.064 1.175 1.175 0 01.768.847 2.864 2.864 0 01.114 1.358 2.146 2.146 0 01-1.486 1.888.882.882 0 01-.738-.223c-.159-.136-.169-.245-.154-.25z" fill="#eb996e"/>
               <path d="M230.192 219.501a11.7 11.7 0 01.8-1.462 19.725 19.725 0 001.709-3.612 8.919 8.919 0 00.426-3.924 15.327 15.327 0 00-.377-1.61 1.337 1.337 0 01.213.4 5.263 5.263 0 01.347 1.184 8.424 8.424 0 01-.362 4.028 16.64 16.64 0 01-1.8 3.627c-.277.436-.5.783-.679 1.016a2.513 2.513 0 01-.277.353z" fill="#263238"/>
               <path d="M232.606 214.037c-.069 0-.2-.406-.629-.689s-.852-.282-.862-.357.1-.084.3-.089a1.244 1.244 0 01.713.233 1.3 1.3 0 01.466.59c.061.183.047.302.012.312z" fill="#fafafa"/>
               <path d="M235.668 214.026a9.322 9.322 0 00-1.219-1.145 8.2 8.2 0 00-1.536-.664 2.225 2.225 0 011.675.451 2.3 2.3 0 011.08 1.358z" fill="#fafafa"/>
               <path d="M237.59 224.079a8.227 8.227 0 01.287-2.022 8.136 8.136 0 01.54-1.982 8.256 8.256 0 01-.287 2.027 8.145 8.145 0 01-.54 1.977z" fill="#fafafa"/>
               <path d="M245.319 225.596a18.091 18.091 0 01.134-4.266 17.408 17.408 0 01-.134 4.266z" fill="#fafafa"/>
            </g>
            <g>
               <path d="M86.771 247.615l-7.64 33.271 16.157.05 7.462-29.258z" fill="#b78876"/>
               <path d="M166.117 206.738c-1.536-2.056-3.3-4.033-4.108-6.471-.391-1.179-.545-2.428-.961-3.6a4.371 4.371 0 00-2.334-2.75 2.371 2.371 0 00-2.794.832l-5.544 16.217 3.2 12.456a56.833 56.833 0 0010.167-2.913c2.983-1.343 4.955-3.493 5.163-6.758.14-2.559-1.253-4.952-2.789-7.013z" fill="#263238"/>
               <path d="M115.663 203.874s-19.274 8.388-21.682 12.174-10.336 30.778-10.336 30.778l20.315 5.946-.347 28.1h49.8l-.411-49.548-6.243-27.38s-11-.718-12.02-1.218-19.076 1.148-19.076 1.148z" fill="#020b5d"/>
               <path d="M184.157 135.196c.159-1.135-.639-2.383-.064-3.379a2.814 2.814 0 011.541-1.045 2.477 2.477 0 01.951-.223.837.837 0 01.778.5 1.06 1.06 0 01-.382 1.026 3.022 3.022 0 00-.748.862 5.173 5.173 0 00.183 2.438 43.064 43.064 0 011.64 5.3" fill="#b78876"/>
               <path d="M180.089 135.583c.069-1.719 1.486-8.492 1.536-10.212a3.416 3.416 0 012.056 2.794c.218 1.2.1 2.433.312 3.632a13.226 13.226 0 001.957 4.459 16.081 16.081 0 012.106 4.4c.382 1.586 1.818 5.708.7 6.9" fill="#b78876"/>
               <path d="M179.768 147.177l-6.892 32.741c-.243 1.486-26.121 24.055-26.121 24.055l5.108 20.409 33.692-32.964a13.7 13.7 0 003.691-9.607l-.575-30.72z" fill="#b78876"/>
               <path d="M178.585 135.791l1.179 11.4 8.919 3.924s.109-.808.5-4.757c.421-4.35-4.256-6.218-6.342-9.414-.892-1.372-.659-3.9-1.348-7.031-.079-.362-.575-2.552-.842-3.726a2.646 2.646 0 00-1.07-1.61c-.406-.268-.862-.4-1.194 0s.198 11.214.198 11.214z" fill="#b78876"/>
               <path d="M184.157 149.07a3.59 3.59 0 00.857-3.667 9.35 9.35 0 00-2.106-3.349 13.289 13.289 0 01-2.324-3.221c-.377-.852-.555-1.794-.991-2.631a2.706 2.706 0 00-2.106-1.64c.748 4.712.728 7.432 2.259 12.595" fill="#b78876"/>
               <path d="M178.41 139.943s-.035-.129-.089-.377-.149-.659-.238-1.08c-.213-.991-.5-2.254-.788-3.706l-.03-.139h.144a2.309 2.309 0 011.665.624 5 5 0 011.4 2.383 12.351 12.351 0 00.778 2.056 6.34 6.34 0 00.872 1.2 1.8 1.8 0 01.3.471 3.65 3.65 0 01-.377-.406 5.628 5.628 0 01-.951-1.179 11.683 11.683 0 01-.852-2.076 4.9 4.9 0 00-1.338-2.269 2.106 2.106 0 00-1.486-.57l.119-.149a37.265 37.265 0 01.871 5.217z" fill="#7c5142"/>
               <path d="M182.423 137.045a42.686 42.686 0 01-.822-4.648 43.184 43.184 0 01-.57-4.687 41.535 41.535 0 01.822 4.653 43.178 43.178 0 01.57 4.682z" fill="#7c5142"/>
               <path d="M185.265 137.431a.556.556 0 01.064.173h-.074a26.678 26.678 0 01-.9-3.24c-.213-.956-.367-1.828-.461-2.477a3.844 3.844 0 01-.089-1.036c.074 0 .377 1.541.8 3.468.342 1.541.659 2.839.723 3.275h-.074c-.007-.104-.007-.163.011-.163z" fill="#7c5142"/>
               <path d="M187.021 143.708c-.04 0-.218-.258-.575-.639a5.574 5.574 0 00-3.592-1.734 5.949 5.949 0 01-.857-.055 1.983 1.983 0 01.862-.129 4.876 4.876 0 013.721 1.8 1.942 1.942 0 01.441.758z" fill="#7c5142"/>
               <path d="M180.575 148.078a6.746 6.746 0 01-.59-1.348 29.9 29.9 0 01-1.021-3.4 29.421 29.421 0 01-.624-3.468 7.193 7.193 0 01-.089-1.486 10.011 10.011 0 01.268 1.442c.149.887.377 2.116.694 3.468s.674 2.537.946 3.4a10.448 10.448 0 01.416 1.392z" fill="#7c5142"/>
               <path d="M140.704 204.564a3.141 3.141 0 014.221-.991c3.637-2.973 7.358-5.857 10.995-8.815-1.189 5.946-1.982 14.235.679 19.675 0 0 3.354 6.233 8.7 5.282l-4.766 4.667-7.516 6.971" fill="#020b5d"/>
               <path d="M139.525 207.337a4.013 4.013 0 01.7-2.235 4.058 4.058 0 011.665-1.655 8.686 8.686 0 00-2.365 3.89z" fill="#263238"/>
               <path d="M143.453 211.001a3.057 3.057 0 01-.416-1.08 6.986 6.986 0 01.956-5.406 3.1 3.1 0 01.763-.877c.035.03-.253.367-.6.991a7.878 7.878 0 00-.936 2.552 8.006 8.006 0 000 2.72 10.9 10.9 0 01.233 1.1z" fill="#263238"/>
               <path d="M161.662 223.728a4.022 4.022 0 01-1.184.5 6.584 6.584 0 01-3.468-.1 8.354 8.354 0 01-4.172-2.973 14.041 14.041 0 01-2.477-5.8 43.775 43.775 0 01-.595-11.455c.114-1.486.277-2.646.416-3.468.064-.406.124-.718.168-.931a1.634 1.634 0 01.079-.322 1.385 1.385 0 01-.03.332l-.119.936c-.1.813-.243 1.982-.332 3.468a45.925 45.925 0 00.664 11.4 13.992 13.992 0 002.4 5.663 8.186 8.186 0 004.038 2.973 6.669 6.669 0 003.394.183 9.512 9.512 0 001.218-.406z" fill="#fafafa"/>
               <path d="M104.054 261.132c-.069 0-.129-7.046-.129-15.731s.059-15.731.129-15.731.129 7.041.129 15.731-.055 15.731-.129 15.731z" fill="#263238"/>
               <path d="M103.657 224.233c-.054 0-.04-.7-.282-1.8a9.972 9.972 0 00-.619-1.863 11.193 11.193 0 00-1.224-2.061 11.32 11.32 0 00-1.67-1.724 10.24 10.24 0 00-1.63-1.09c-.991-.52-1.68-.694-1.665-.743a1.733 1.733 0 01.5.1 3.742 3.742 0 01.55.183 5.41 5.41 0 01.709.3 9.092 9.092 0 011.675 1.06 11.128 11.128 0 011.719 1.754 10.535 10.535 0 011.239 2.126 9.166 9.166 0 01.6 1.922 6.051 6.051 0 01.1.763 4.23 4.23 0 01.03.58 2.135 2.135 0 01-.032.493z" fill="#263238"/>
               <path d="M137.592 203.656a2.3 2.3 0 01.084.421 10.339 10.339 0 01.129 1.214 12.635 12.635 0 01-.619 4.435 13.011 13.011 0 01-3.592 5.559 12.788 12.788 0 01-15.266 1.169 13 13 0 01-4.38-4.955 12.679 12.679 0 01-1.273-4.291 11.216 11.216 0 01-.054-1.219 2.537 2.537 0 010-.426 2.541 2.541 0 01.035.421 12.044 12.044 0 00.1 1.209 13.09 13.09 0 001.338 4.221 12.932 12.932 0 004.345 4.851 12.635 12.635 0 0014.973-1.125 12.928 12.928 0 003.577-5.45 13.264 13.264 0 00.694-4.375 8.442 8.442 0 00-.084-1.209 1.3 1.3 0 01-.007-.45z" fill="#263238"/>
               <path d="M103.629 246.641c0 .069-4.117-1.224-9.142-2.884s-9.082-3.062-9.057-3.131 4.112 1.224 9.142 2.884 9.076 3.064 9.057 3.131z" fill="#fafafa"/>
               <path d="M152.517 239.764c0 .074-10.925.178-24.4.233s-24.407.045-24.407 0 10.925-.178 24.407-.233 24.4-.067 24.4 0z" fill="#fafafa"/>
               <path d="M152.764 244.082c0 .069-10.985.129-24.526.129s-24.531-.059-24.531-.129 10.98-.129 24.531-.129 24.526.055 24.526.129z" fill="#fafafa"/>
               <path d="M146.035 249.324a2.256 2.256 0 01-.139.4c-.109.277-.258.654-.441 1.13l-.327.813c-.129.3-.282.609-.441.951-.327.674-.664 1.457-1.135 2.279l-.713 1.3c-.248.451-.545.9-.832 1.372-.565.956-1.259 1.917-1.982 2.943a48.836 48.836 0 01-11.55 11.327c-1.041.694-2.017 1.372-2.973 1.918-.5.277-.932.565-1.387.808l-1.328.684c-.827.451-1.62.778-2.3 1.09-.342.149-.659.3-.956.421l-.822.312-1.135.421a2.172 2.172 0 01-.406.129 2.571 2.571 0 01.386-.178l1.12-.466.808-.332c.3-.129.609-.282.946-.441.674-.322 1.457-.659 2.274-1.12l1.3-.694c.451-.248.9-.54 1.377-.818.956-.55 1.922-1.234 2.973-1.927a50.177 50.177 0 0011.5-11.272c.718-1.016 1.417-1.982 1.982-2.918.292-.471.595-.912.847-1.358l.718-1.288c.5-.808.827-1.586 1.164-2.254.163-.337.327-.644.461-.936s.243-.56.347-.8c.2-.466.367-.832.5-1.11a4.079 4.079 0 01.164-.386z" fill="#263238"/>
               <g>
                  <path d="M144.023 253.615a27.523 27.523 0 01-11.708 8.884c-2.344.9-4.8 1.521-7.065 2.6a10.851 10.851 0 00-5.45 4.989c-.788 1.774-.406 4.459 1.486 4.846a4.018 4.018 0 002.155-.332c9.687-3.513 16.053-12.387 20.552-20.983" opacity=".3"/>
               </g>
               <path d="M109.375 165.46c-2.091 1.64-2.23 4.707-2.126 7.363s.134 5.678-1.8 7.511c-1.586 1.511-4.36 2.071-4.816 4.217a2.477 2.477 0 004 2.453 4.343 4.343 0 001.065 4.955c1.432 1.125 3.934.59 4.459-1.135a2.19 2.19 0 104.261.991" fill="#263238"/>
               <path d="M139.717 184.69a2.641 2.641 0 104.955-1.794c-.411-1.031-1.486-1.808-1.511-2.913-.064-1.338 1.343-2.225 2.576-2.745s2.681-1.214 2.874-2.537-.912-2.339-1.833-3.245-1.808-2.284-1.159-3.4c.332-.57.991-.877 1.417-1.377a2.9 2.9 0 00-.535-3.919 5.416 5.416 0 00-4.152-.991 35.731 35.731 0 00-4.261 1.07 17.535 17.535 0 01-13.873-2.477" fill="#263238"/>
               <path d="M110.797 175.677l5.1 29.55a9.508 9.508 0 0011.044 7.759 9.513 9.513 0 007.8-10.207c-.233-2.621-.431-4.791-.431-4.791s7.4-1.9 6.763-9.414c-.312-3.637-1.556-11.074-2.765-17.793a14.062 14.062 0 00-15.211-11.5l-.723.069a13.967 13.967 0 00-11.574 16.326z" fill="#b78876"/>
               <path d="M136.725 175.632a1.07 1.07 0 01-.927 1.184 1.026 1.026 0 01-1.2-.857 1.07 1.07 0 01.927-1.184 1.026 1.026 0 011.2.857z" fill="#263238"/>
               <path d="M137.052 174.606c-.119.149-.991-.372-2.145-.258s-1.947.778-2.086.649c-.064-.059.045-.322.386-.629a2.944 2.944 0 011.655-.689 2.854 2.854 0 011.724.377c.382.238.526.481.466.55z" fill="#263238"/>
               <path d="M125.428 176.955a1.08 1.08 0 01-.931 1.179 1.031 1.031 0 01-1.2-.857 1.08 1.08 0 01.927-1.184 1.036 1.036 0 011.2.862z" fill="#263238"/>
               <path d="M125.72 175.924c-.119.154-.991-.367-2.145-.253s-1.942.778-2.086.649c-.064-.059.045-.322.386-.629a2.973 2.973 0 011.655-.689 2.819 2.819 0 011.724.377c.382.238.506.481.466.545z" fill="#263238"/>
               <path d="M130.75 184.085a7.568 7.568 0 011.838-.525c.292-.059.57-.144.6-.352a1.556 1.556 0 00-.282-.852l-1.1-2.16a38.92 38.92 0 01-2.527-5.683 39.244 39.244 0 012.973 5.45l1.055 2.18a1.7 1.7 0 01.263 1.14.738.738 0 01-.441.5 2.224 2.224 0 01-.5.119 7.817 7.817 0 01-1.888.188z" fill="#263238"/>
               <path d="M125.577 171.361c-.084.327-1.249.287-2.586.585s-2.4.773-2.606.5c-.094-.124.064-.441.5-.788a4.459 4.459 0 011.883-.872 4.4 4.4 0 012.076.045c.495.163.768.386.733.53z" fill="#263238"/>
               <path d="M136.304 171.302c-.178.282-.991.089-1.982.168s-1.749.352-1.982.094c-.094-.124 0-.4.337-.684a2.73 2.73 0 011.551-.585 2.7 2.7 0 011.61.376c.401.239.54.494.466.631z" fill="#263238"/>
               <path d="M118.149 166.639l-.04.04a5.946 5.946 0 00-1.823 4.033v.154c-.084 2.175.178 4.35.074 6.52a9.735 9.735 0 01-2.076 6.05c-.59.669-1.7 1.2-2.3.54a1.838 1.838 0 01-.367-.956c-.9-5.133-2.765-9.587-3.28-15a4.563 4.563 0 011.531-3.894c1.05-.927 2.353-1.9 3.671-1.427s3.176 2.671 4.251 3.572" fill="#263238"/>
               <path d="M113.661 178.828c-.134-.04-5.312-1.021-4.648 4.1s5.668 3.4 5.658 3.25-1.01-7.35-1.01-7.35z" fill="#b78876"/>
               <path d="M112.878 184.442a1.355 1.355 0 01-.223.159.877.877 0 01-.664.1 2.233 2.233 0 01-1.278-1.848 2.972 2.972 0 01.084-1.313 1.05 1.05 0 01.585-.773.461.461 0 01.555.178c.089.134.069.243.1.248s.1-.1.03-.307a.58.58 0 00-.243-.3.684.684 0 00-.5-.064 1.273 1.273 0 00-.832.917 3.117 3.117 0 00-.124 1.486 2.342 2.342 0 001.59 2.041.946.946 0 00.8-.243.529.529 0 00.12-.281z" fill="#7c5142"/>
               <path d="M113.433 163.508c-1.486-1.932 1.714-5.222 4.172-6.268s5.921-.139 8.527.451c1.64.377 3.3.956 4.955.723a11.4 11.4 0 003.176-1.145 8.339 8.339 0 013.221-.991 3.112 3.112 0 012.874 1.452 1.958 1.958 0 01-1.045 2.75 2.537 2.537 0 111.13 4.608c.679-.624 1.888.183 1.888 1.1a2.688 2.688 0 01-1.571 2.121 9.661 9.661 0 01-6.867.56c-2.289-.53-4.459-1.486-6.738-2.081s-6.1-1.665-8.23-.669c-1.566.728-2.507 2.794-3.468 2.477a3.146 3.146 0 01-1.848-2.15 9.1 9.1 0 01-.188-2.933" fill="#263238"/>
               <path d="M113.725 179.705a44.8 44.8 0 00.931 8.1 15.137 15.137 0 003.671 7.16c2.477 2.542 5.728 4.955 9.246 5.554a16.222 16.222 0 0011.664-2.477 5.563 5.563 0 002.1-5.262 3.9 3.9 0 002.23-3.27c.079-1.387-.768-3.121-1.863-3.3.822-.139 1.06-1.447.748-2.185a2.012 2.012 0 00-2.22-.8 5.728 5.728 0 00-2.215 1.14 7.813 7.813 0 01-2.145 1.278c-2.656.862-5.346-1.486-8.136-1.372-2.522.1-4.766 2.195-7.269 1.843a5.039 5.039 0 01-3.369-2.344c-.773-1.184-.436-5.559-.738-6.937" fill="#263238"/>
               <g>
                  <path d="M133.966 191.503a4.734 4.734 0 01-.614-.188 3.29 3.29 0 00-2.864.52c-.317.228-.5.411-.5.387a1.23 1.23 0 01.4-.5 2.973 2.973 0 013.027-.545c.372.128.566.301.551.326z" fill="#455a64" opacity=".6"/>
               </g>
               <path d="M128.54 185.809c.188-.03.312 1.224 1.486 1.982s2.477.52 2.507.694c.025.074-.273.273-.837.342a3.127 3.127 0 01-2.086-.5 2.72 2.72 0 01-1.15-1.695c-.113-.5.001-.823.08-.823z" fill="#fff"/>
               <path d="M124.814 199.677a1.33 1.33 0 01.322.119c.213.079.525.188.936.3a16.7 16.7 0 003.567.56 15.734 15.734 0 002.477-.05 13.868 13.868 0 002.8-.545 11.4 11.4 0 002.854-1.3 8.662 8.662 0 002.477-2.249 5.148 5.148 0 00.991-3.716v-.1l.089-.04a4.019 4.019 0 001.552-1.279 4.527 4.527 0 00.5-.832 3.008 3.008 0 00.218-.9 3.533 3.533 0 00-1.189-3l-.074-.059.059-.074a2.081 2.081 0 00.307-2.036 1.982 1.982 0 00-1.14-1.12 2.18 2.18 0 00-1.036-.144c-.243.03-.362.074-.367.059a1.254 1.254 0 01.362-.109 2.16 2.16 0 012.319 1.254 2.259 2.259 0 01-.3 2.215v-.134a3.741 3.741 0 011.3 3.166 3.266 3.266 0 01-.233.991 5.151 5.151 0 01-.52.882 4.2 4.2 0 01-1.645 1.363l.074-.149a5.326 5.326 0 01-.991 3.924 8.888 8.888 0 01-2.552 2.314 11.151 11.151 0 01-2.918 1.313 13.666 13.666 0 01-2.849.535 15.966 15.966 0 01-2.522 0 15.625 15.625 0 01-3.582-.649 8.071 8.071 0 01-.927-.352 1.836 1.836 0 01-.359-.158z" fill="#455a64"/>
               <path d="M102.354 186.605a.782.782 0 01-.263-.129 1.486 1.486 0 01-.5-.654 2.224 2.224 0 01-.1-1.318 2.661 2.661 0 01.991-1.452 6.619 6.619 0 011.883-.991 12.2 12.2 0 002.19-.932 4.281 4.281 0 001.65-1.942 7.1 7.1 0 00.585-2.725c.04-1.937-.406-3.776-.456-5.485a7.218 7.218 0 011.026-4.375 4.123 4.123 0 012.477-1.7 2.8 2.8 0 01.832-.04 2.033 2.033 0 01.287.055 4.422 4.422 0 00-1.1.084 4.1 4.1 0 00-2.373 1.7 6.96 6.96 0 00-.936 4.261c.089 1.675.5 3.513.5 5.5a7.353 7.353 0 01-.629 2.824 4.5 4.5 0 01-1.759 2.041 11.711 11.711 0 01-2.254.931 6.516 6.516 0 00-1.838.922 2.507 2.507 0 00-.956 1.338 2.116 2.116 0 00.054 1.249 1.65 1.65 0 00.689.838z" fill="#455a64"/>
               <path d="M139.5 160.396a1.128 1.128 0 01.223-.1 1.658 1.658 0 01.292-.1 2.479 2.479 0 01.411-.084 3.067 3.067 0 012.527.907 4.107 4.107 0 01.768 3.072 5.039 5.039 0 01-2.031 3.354 7.783 7.783 0 01-4.311 1.486 17.283 17.283 0 01-5-.535 22.673 22.673 0 01-7.264-3.216 22.825 22.825 0 00-2.973-1.729 8.126 8.126 0 00-2.874-.733 8.582 8.582 0 00-4.217.783c-.927.436-1.368.813-1.387.783a6.086 6.086 0 011.343-.877 8.547 8.547 0 014.271-.872 8.274 8.274 0 012.973.718 23.053 23.053 0 013.017 1.729 22.838 22.838 0 007.194 3.161 17.213 17.213 0 004.925.555 7.645 7.645 0 004.187-1.427 4.886 4.886 0 001.982-3.2 3.964 3.964 0 00-.689-2.973 3.017 3.017 0 00-2.4-.927 6.437 6.437 0 00-.967.225z" fill="#455a64"/>
               <path d="M136.873 156.031a2.9 2.9 0 01-.233 1.135 4.831 4.831 0 01-2.121 2.314 6.075 6.075 0 01-2.066.743 8.726 8.726 0 01-2.517 0 33.9 33.9 0 01-5.52-1.516 11.284 11.284 0 00-5.564-.59 7.352 7.352 0 00-3.909 2.279 7.635 7.635 0 00-1.581 2.656c-.228.7-.273 1.115-.3 1.11a1.219 1.219 0 010-.3 5.672 5.672 0 01.183-.842 7.318 7.318 0 011.541-2.75 7.432 7.432 0 013.994-2.388 11.356 11.356 0 015.688.575 34.948 34.948 0 005.474 1.524 8.489 8.489 0 002.453 0 5.946 5.946 0 002.012-.689 4.836 4.836 0 002.116-2.195 7.06 7.06 0 00.35-1.066z" fill="#455a64"/>
            </g>
            <g fill="#263238">
               <path d="M174.747 124.467c-.045.054-2.829-2.21-6.223-5.059s-6.1-5.227-6.055-5.262 2.829 2.21 6.223 5.064 6.105 5.207 6.055 5.257z"/>
               <path d="M188.878 121.073c-.069 0-.352-4.4-.624-9.835s-.441-9.845-.372-9.85.352 4.4.629 9.84.436 9.845.367 9.845z"/>
               <path d="M179.88 117.927c-.069 0-.936-2.477-1.942-5.614s-1.764-5.668-1.695-5.688.936 2.477 1.942 5.609 1.76 5.673 1.695 5.693z"/>
               <path d="M171.859 129.114a34.2 34.2 0 01-3.82-1.61 33.2 33.2 0 01-3.716-1.848 34.19 34.19 0 013.82 1.61 33.69 33.69 0 013.716 1.848z"/>
               <path d="M158.832 123.422c0 .069-.421.079-.922 0s-.9-.168-.887-.238.421-.079.917 0 .892.169.892.238z"/>
               <path d="M176.566 103.424c-.074 0-.129-.4-.129-.9s.054-.907.129-.907.129.406.129.907-.06.9-.129.9z"/>
               <path d="M206.395 110.42c.054.05-2.235 2.671-5.1 5.857s-5.237 5.733-5.3 5.683 2.235-2.666 5.1-5.857 5.254-5.727 5.3-5.683z"/>
               <path d="M210.04 106.818c.05.05-.213.4-.59.773s-.718.634-.768.585.213-.4.59-.768.719-.659.768-.59z"/>
               <path d="M218.869 119.503a4.516 4.516 0 01-.674.4c-.441.243-1.085.585-1.888.991-1.61.813-3.865 1.873-6.4 2.928s-4.88 1.9-6.595 2.477c-.852.282-1.546.5-2.031.639a3.965 3.965 0 01-.758.193 4.686 4.686 0 01.728-.287l1.982-.718c1.695-.609 4.018-1.486 6.555-2.527s4.791-2.086 6.441-2.854l1.923-.912a5.349 5.349 0 01.717-.33z"/>
               <path d="M211.625 131.701a6.753 6.753 0 01-1.318.431c-.823.228-1.982.5-3.26.718s-2.477.347-3.315.406a6.369 6.369 0 01-1.382.025 9.167 9.167 0 011.367-.208c.842-.1 2.007-.263 3.285-.5s2.433-.456 3.265-.634a7.482 7.482 0 011.358-.238z"/>
               <path d="M218.211 130.483a7.969 7.969 0 01-2.854 0 7.967 7.967 0 012.854 0z"/>
            </g>
            <g>
               <path d="M180.959 253.615a5.277 5.277 0 013.468 2.22 9.281 9.281 0 011.486 3.929 16.418 16.418 0 01-1.278 8.3c-2.75-1.293-4.216-4.494-4.856-6.169-.991-2.641-1.244-8.037 1.154-8.284" fill="#020b5d"/>
               <path d="M188.714 271.879a4.484 4.484 0 01-.1-4.509 5.946 5.946 0 013.657-2.8 2.517 2.517 0 012.116.149 1.922 1.922 0 01.694 1.818 3.925 3.925 0 01-.862 1.828c-1.437 1.853-3.161 3.379-5.5 3.518" fill="#020b5d"/>
               <path d="M188.02 280.42a2.078 2.078 0 01-.094-.565c-.035-.367-.084-.9-.119-1.561a19.467 19.467 0 01.312-5.153 9.766 9.766 0 012.344-4.593 6.325 6.325 0 011.219-.991 1.615 1.615 0 01.5-.258 12.665 12.665 0 00-1.576 1.4 10.147 10.147 0 00-2.2 4.509 22.083 22.083 0 00-.4 5.084 17.666 17.666 0 01.014 2.128z" fill="#263238"/>
               <path d="M181.614 257.723a5.944 5.944 0 01.347.882c.2.575.5 1.407.823 2.443.679 2.071 1.566 4.955 2.477 8.151s1.645 6.119 2.15 8.24c.253 1.06.446 1.918.57 2.517a5.574 5.574 0 01.168.931 5.24 5.24 0 01-.282-.9c-.173-.644-.4-1.486-.664-2.477-.56-2.106-1.338-5.014-2.24-8.21s-1.754-6.085-2.378-8.17l-.728-2.477a5.767 5.767 0 01-.243-.93z" fill="#263238"/>
               <path d="M185.052 274.425a10.514 10.514 0 00-7.511-5.946 2.215 2.215 0 00-2.324.575 2.166 2.166 0 00.436 2.349 8.973 8.973 0 009.414 3.29" fill="#020b5d"/>
               <path d="M178.453 270.853a1.9 1.9 0 01.55.059 4.4 4.4 0 01.629.134 7.627 7.627 0 01.822.243 11.093 11.093 0 012.022.946 11.674 11.674 0 013.9 3.781 11.021 11.021 0 01.991 1.982 7.113 7.113 0 01.273.813 4.319 4.319 0 01.159.629 1.722 1.722 0 01.069.545c-.054 0-.208-.758-.7-1.9a12.386 12.386 0 00-1.045-1.918 13.445 13.445 0 00-1.709-2.051 13.663 13.663 0 00-2.1-1.645 12.6 12.6 0 00-1.952-.991c-1.146-.439-1.919-.568-1.909-.627z" fill="#263238"/>
            </g>
         </g>
      </g>
   </symbol>
    <symbol id="vaguefavoris" viewBox="0 0 2022.2 1343.5">
        <path d="M2021.4 216.8s-118.6 272.8-608.8 275c-134.2.6-165.3 47.5-239.3 210.9s-614 178.6-757.6 152.6c-312.8-56.7-51.7 209.3-51.7 209.3l-253.3-.9L114.3-7.1 2022.1-.6l-.7 217.4z" fill="#bfd1f7"/>
        <path d="M0 0v625.4l-.2 536.9c284.9-3.4 575.6-63.7 657-279.7 47.3-125.6 189.1-322.7 368-335.2s451.2-151.9 476.9-295.5c26.8-150.3 129.7-220 229.4-251.9" fill="#eaeffc"/>
    </symbol>
    <symbol id="star" viewBox="0 0 20.127 19.198">
      <defs>
        <linearGradient id="linear-gradient" x1="0.325" y1="0.903" x2="0.689" y2="-0.041" gradientUnits="objectBoundingBox">
          <stop offset="0" stop-color="#fe7062"/>
          <stop offset="1" stop-color="#ff928e"/>
        </linearGradient>
      </defs>
      <path id="toile" d="M1214.82,1032.293a.763.763,0,0,0-.421-1.3l-6.034-.884-2.7-5.465a.766.766,0,0,0-.683-.424.756.756,0,0,0-.681.424l-2.522,5.105a.761.761,0,0,1-.572.415l-5.636.819a.76.76,0,0,0-.421,1.3l4.078,3.974a.762.762,0,0,1,.218.674l-.963,5.6a.763.763,0,0,0,1.1.8l5.041-2.651a.767.767,0,0,1,.707,0l5.041,2.651a.763.763,0,0,0,1.1-.8l-.964-5.6a.762.762,0,0,1,.218-.674Z" transform="translate(-1194.922 -1024.22)" fill="url(#linear-gradient)"/>
   </symbol>

</svg>
