<svg id="Groupe_102" data-name="Groupe 102" xmlns="http://www.w3.org/2000/svg" width="23.054" height="24" viewBox="0 0 23.054 24">
  <path id="Tracé_1403" data-name="Tracé 1403" d="M23.466,2.6c-.058-.054-.178-.145-.261-.206C21.7,1.26,19.388-.1,17.155.006,13.418.178,8.45,5.222,7.017,6.764s-6.1,6.865-6,10.6a6.3,6.3,0,0,0,.39,1.962,12.823,12.823,0,0,0,2.415,3.877s.164.193.244.268a2.224,2.224,0,0,0,.9.454A2.131,2.131,0,0,0,5.542,24a2.31,2.31,0,0,0,.766-.123,2.231,2.231,0,0,0,.864-.516c.138-.149,2.778-3.518,2.793-3.54l.017-.026a2.334,2.334,0,0,0,.326-.567,2.259,2.259,0,0,0,.023-1.584,2.145,2.145,0,0,0-.555-.847L8.536,15.639a1.122,1.122,0,0,1-.254-.382,1.027,1.027,0,0,1-.019-.161l7.221-7.771a.139.139,0,0,1,.047-.033l.028.011a2.683,2.683,0,0,1,.423.33l1.24,1.146a2.242,2.242,0,0,0,2.456.371,2.662,2.662,0,0,0,.592-.413l.056-.045c.026-.022,3.138-2.859,3.255-2.986a2.34,2.34,0,0,0,.485-1.518,2.273,2.273,0,0,0-.274-1.17A2.073,2.073,0,0,0,23.466,2.6Zm-.9,2.14c-.161.159-2.989,2.741-3.137,2.876l-.115.1a1.223,1.223,0,0,1-.253.183.817.817,0,0,1-.893-.14L16.93,6.607a3.441,3.441,0,0,0-.825-.59,1.479,1.479,0,0,0-.594-.127,1.5,1.5,0,0,0-1.049.48L7.169,14.219a1.431,1.431,0,0,0-.263,1.291,2.375,2.375,0,0,0,.675,1.15l1.242,1.16a.753.753,0,0,1,.191.3.871.871,0,0,1-.009.6.962.962,0,0,1-.139.233.873.873,0,0,0-.052.073c-.25.323-2.527,3.22-2.659,3.377a1.2,1.2,0,0,1-.335.165.957.957,0,0,1-.277.035.726.726,0,0,1-.182-.018,1.41,1.41,0,0,1-.339-.133c-.045-.045-.123-.139-.137-.155a11.469,11.469,0,0,1-2.162-3.441,4.9,4.9,0,0,1-.308-1.525C2.345,14.778,5.4,10.556,8.041,7.716S14.667,1.52,17.22,1.4c1.84-.086,3.821,1.111,5.128,2.1l.05.038c.03.022.086.062.11.082a.877.877,0,0,1,.091.129,1.011,1.011,0,0,1,.07.375A2.1,2.1,0,0,1,22.57,4.741Z" transform="translate(-1.016 0)" fill="#f0f4fd"/>
</svg>
