<svg id="placeholder" xmlns="http://www.w3.org/2000/svg" width="24" height="32" viewBox="0 0 24 32">
  <path id="Shape" d="M12,0A12.012,12.012,0,0,0,0,12c0,8.318,10.832,19.246,11.292,19.708a1,1,0,0,0,1.416,0C13.168,31.246,24,20.318,24,12A12.012,12.012,0,0,0,12,0Z" fill="#d0021b"/>
  <g id="_014-steak" data-name="014-steak" transform="translate(4 5)">
    <path id="Shape-2" data-name="Shape" d="M3.5,13A3.5,3.5,0,0,1,0,9.5v-6A3.5,3.5,0,0,1,3.5,0h2A3.513,3.513,0,0,1,8.3,1.4L9.5,3a2.511,2.511,0,0,0,2,1h1A3.5,3.5,0,0,1,16,7.5v2A3.5,3.5,0,0,1,12.5,13Z" fill="#fff"/>
    <path id="Shape-3" data-name="Shape" d="M5.8,5.456A13.082,13.082,0,0,0,.513,4H.5C.488,4,.477,3.991.464,3.99a.461.461,0,0,1-.17-.047.409.409,0,0,1-.086-.054A.517.517,0,0,1,.1,3.779c-.011-.016-.03-.023-.04-.041a.087.087,0,0,1-.007-.022A.553.553,0,0,1,.03,3.639.466.466,0,0,1,0,3.53c0-.005,0-.01,0-.016a.457.457,0,0,1,.012-.07.589.589,0,0,1,.018-.1.672.672,0,0,1,.044-.084.478.478,0,0,1,.052-.081.578.578,0,0,1,.08-.068.45.45,0,0,1,.055-.046C1.95,2.143,2.923,1.216,3,.449A.46.46,0,0,1,3.039.333c.005-.014.007-.03.014-.044A.5.5,0,0,1,3.459.012C3.479.009,3.5,0,3.515,0s.012,0,.018,0,.012,0,.018,0a.448.448,0,0,1,.076.025.545.545,0,0,1,.1.03A.459.459,0,0,1,3.8.111a.547.547,0,0,1,.075.062.522.522,0,0,1,.05.08.438.438,0,0,1,.044.084.456.456,0,0,1,.017.1A.472.472,0,0,1,4,.515c-.053,1.76.567,2.863,2.288,4.076.014.011.023.026.036.038a.473.473,0,0,1,.068.073.485.485,0,0,1,.049.079.627.627,0,0,1,.034.089.553.553,0,0,1,.015.093.408.408,0,0,1,0,.094.477.477,0,0,1-.023.1.4.4,0,0,1-.012.049c0,.012-.016.015-.022.025a.37.37,0,0,1-.025.058.47.47,0,0,1-.1.085.438.438,0,0,1-.062.054A.494.494,0,0,1,6,5.5.487.487,0,0,1,5.8,5.456Z" transform="translate(2 2.5)" fill="#fff"/>
  </g>
</svg>
