<?xml version="1.0" encoding="UTF-8"?>
<svg width="25px" height="35px" viewBox="0 0 25 35" version="1.1" xmlns="http://www.w3.org/2000/svg" xmlns:xlink="http://www.w3.org/1999/xlink">
    <!-- Generator: Sketch 48.2 (47327) - http://www.bohemiancoding.com/sketch -->
    <title>boucherie</title>
    <desc>Created with Sketch.</desc>
    <defs>
        <ellipse id="path-1" cx="12.5" cy="33.5" rx="6.5" ry="1"></ellipse>
        <filter x="-11.5%" y="-75.0%" width="123.1%" height="250.0%" filterUnits="objectBoundingBox" id="filter-2">
            <feOffset dx="0" dy="0" in="SourceAlpha" result="shadowOffsetOuter1"></feOffset>
            <feGaussianBlur stdDeviation="0.5" in="shadowOffsetOuter1" result="shadowBlurOuter1"></feGaussianBlur>
            <feColorMatrix values="0 0 0 0 0   0 0 0 0 0   0 0 0 0 0  0 0 0 0.2 0" type="matrix" in="shadowBlurOuter1"></feColorMatrix>
        </filter>
    </defs>
    <g id="Page-1" stroke="none" stroke-width="1" fill="none" fill-rule="evenodd">
        <g id="boucherie">
            <g id="Oval-2" fill="black" fill-opacity="1">
                <use filter="url(#filter-2)" xlink:href="#path-1"></use>
            </g>
            <g id="placeholder" transform="translate(0.500000, 1.500000)" fill-rule="nonzero">
                <path d="M12,0 C5.382,0 0,5.382 0,12 C0,20.318 10.832,31.246 11.292,31.708 C11.488,31.902 11.744,32 12,32 C12.256,32 12.512,31.902 12.708,31.708 C13.168,31.246 24,20.318 24,12 C24,5.382 18.618,0 12,0 Z" id="Shape" fill="#D0021B"></path>
                <g id="014-steak" transform="translate(4.000000, 5.000000)" fill="#FFFFFF">
                    <path d="M12.5,4 L11.5,4 C10.717,4 9.97,3.626 9.5,3 L8.3,1.4 C7.643,0.523 6.596,0 5.5,0 L3.5,0 C1.57,0 0,1.57 0,3.5 L0,7.5 L0,9.5 C0,11.43 1.57,13 3.5,13 L12.5,13 C14.43,13 16,11.43 16,9.5 L16,7.5 C16,5.57 14.43,4 12.5,4 Z M12.5,12 L3.5,12 C2.29,12 1.28,11.136 1.05,9.993 C1.682,10.614 2.546,11 3.5,11 L12.5,11 C13.454,11 14.318,10.614 14.95,9.993 C14.72,11.136 13.71,12 12.5,12 Z M12.5,10 L3.5,10 C2.122,10 1,8.878 1,7.5 L1,3.5 C1,2.122 2.122,1 3.5,1 L5.5,1 C6.283,1 7.03,1.374 7.5,2 L8.7,3.6 C9.357,4.477 10.404,5 11.5,5 L12.5,5 C13.878,5 15,6.122 15,7.5 C15,8.878 13.878,10 12.5,10 Z" id="Shape"></path>
                    <path d="M8.492,7.463 C8.489,7.431 8.484,7.401 8.476,7.37 C8.467,7.339 8.456,7.31 8.442,7.281 C8.428,7.253 8.412,7.227 8.393,7.202 C8.373,7.175 8.35,7.152 8.324,7.129 C8.311,7.117 8.303,7.102 8.288,7.091 C6.567,5.878 5.947,4.774 6,3.015 C6.001,2.987 5.99,2.963 5.986,2.936 C5.982,2.902 5.98,2.868 5.969,2.837 C5.959,2.806 5.941,2.781 5.925,2.753 C5.909,2.725 5.895,2.697 5.874,2.673 C5.852,2.648 5.826,2.631 5.8,2.611 C5.775,2.592 5.753,2.571 5.724,2.557 C5.694,2.542 5.661,2.536 5.628,2.527 C5.602,2.519 5.579,2.505 5.551,2.502 C5.545,2.502 5.539,2.505 5.533,2.504 C5.527,2.504 5.521,2.5 5.515,2.5 C5.496,2.501 5.478,2.509 5.459,2.512 C5.283,2.529 5.129,2.631 5.053,2.789 C5.046,2.803 5.045,2.819 5.039,2.833 C5.025,2.871 5.007,2.907 5.002,2.949 C4.923,3.716 3.95,4.643 2.261,5.561 C2.239,5.573 2.225,5.592 2.206,5.607 C2.178,5.628 2.149,5.648 2.126,5.674 C2.104,5.699 2.09,5.727 2.074,5.755 C2.058,5.783 2.041,5.808 2.03,5.839 C2.019,5.873 2.016,5.908 2.012,5.943 C2.009,5.967 1.999,5.989 2,6.014 C2,6.02 2.004,6.024 2.004,6.03 C2.006,6.067 2.019,6.103 2.03,6.139 C2.038,6.165 2.042,6.192 2.054,6.216 C2.057,6.223 2.057,6.231 2.061,6.238 C2.071,6.256 2.09,6.263 2.101,6.279 C2.132,6.321 2.166,6.358 2.208,6.389 C2.236,6.41 2.262,6.429 2.294,6.443 C2.347,6.47 2.404,6.484 2.464,6.49 C2.477,6.491 2.488,6.5 2.5,6.5 C2.502,6.5 2.504,6.499 2.506,6.499 C2.509,6.499 2.511,6.5 2.513,6.5 C3.783,6.454 5.564,6.956 7.795,7.956 C7.862,7.986 7.931,8 8,8 C8.088,8 8.171,7.972 8.248,7.928 C8.272,7.914 8.288,7.892 8.31,7.874 C8.344,7.846 8.382,7.826 8.409,7.788 C8.422,7.77 8.424,7.749 8.434,7.73 C8.439,7.72 8.451,7.716 8.456,7.705 C8.463,7.689 8.462,7.672 8.467,7.655 C8.478,7.622 8.486,7.59 8.49,7.556 C8.494,7.524 8.494,7.494 8.492,7.463 Z M4.014,5.655 C4.487,5.322 4.874,4.987 5.179,4.652 C5.319,5.187 5.545,5.679 5.87,6.143 C5.203,5.923 4.581,5.757 4.014,5.655 Z" id="Shape"></path>
                </g>
            </g>
        </g>
    </g>
</svg>