<svg id="placeholder" xmlns="http://www.w3.org/2000/svg" width="24" height="32" viewBox="0 0 24 32">
  <path id="Shape" d="M12,0A12.012,12.012,0,0,0,0,12c0,8.318,10.832,19.246,11.292,19.708a1,1,0,0,0,1.416,0C13.168,31.246,24,20.318,24,12A12.012,12.012,0,0,0,12,0Z" fill="#bd10e0"/>
  <g id="_021-mask" data-name="021-mask" transform="translate(4 4.5)">
    <path id="Shape-2" data-name="Shape" d="M4.93,11.321A6.268,6.268,0,0,1,0,5.223V2.044a1,1,0,0,1,.5-.87c2.714-1.565,5.722-1.565,8.944,0a1.009,1.009,0,0,1,.56.9V5.223a6.269,6.269,0,0,1-4.93,6.1.341.341,0,0,1-.14,0Z" transform="translate(0 0.005)" fill="#fff" stroke="#fff" stroke-miterlimit="10" stroke-width="0.4"/>
    <path id="Shape-3" data-name="Shape" d="M1.667,1.333a.333.333,0,0,1-.332-.3C1.311.762,1.147.667,1,.667s-.311.1-.335.362A.333.333,0,1,1,0,.971a1,1,0,0,1,2,0,.333.333,0,0,1-.3.361Z" transform="translate(2 2.667)" fill="#fff" stroke="#fff" stroke-miterlimit="10" stroke-width="0.4"/>
    <path id="Shape-4" data-name="Shape" d="M1.667,1.333a.333.333,0,0,1-.332-.3C1.311.762,1.147.667,1,.667s-.311.1-.335.362A.333.333,0,1,1,0,.971a1,1,0,0,1,2,0,.333.333,0,0,1-.3.361Z" transform="translate(6 2.667)" fill="#fff" stroke="#fff" stroke-miterlimit="10" stroke-width="0.4"/>
    <path id="Shape-5" data-name="Shape" d="M2.333,2A3,3,0,0,1,.067.534.333.333,0,1,1,.6.134c1.195,1.593,2.272,1.593,3.467,0a.333.333,0,1,1,.533.4A3,3,0,0,1,2.333,2Z" transform="translate(2.667 6.666)" fill="#fff" stroke="#fff" stroke-miterlimit="10" stroke-width="0.4"/>
    <path id="Shape-6" data-name="Shape" d="M4.407,11.28a.307.307,0,0,1-.069-.007A6.233,6.233,0,0,1,.033,7.89a.333.333,0,1,1,.6-.288,5.565,5.565,0,0,0,3.773,3A5.6,5.6,0,0,0,8.74,5.173V2.026a.341.341,0,0,0-.189-.3A10.444,10.444,0,0,0,5.04.664.333.333,0,0,1,4.742.3.338.338,0,0,1,5.107,0,11.091,11.091,0,0,1,8.846,1.126a1.015,1.015,0,0,1,.561.9V5.173a6.264,6.264,0,0,1-4.931,6.1.345.345,0,0,1-.069.007Z" transform="translate(6.593 4.72)" fill="#fff" stroke="#fff" stroke-miterlimit="10" stroke-width="0.4"/>
    <path id="Shape-7" data-name="Shape" d="M1,1.334A1,1,0,0,1,0,.363.333.333,0,0,1,.3,0a.328.328,0,0,1,.361.3C.689.572.853.668,1,.668s.311-.1.335-.362A.324.324,0,0,1,1.7,0,.333.333,0,0,1,2,.363a1,1,0,0,1-1,.971Z" transform="translate(12 7.332)" fill="#fff" stroke="#fff" stroke-miterlimit="10" stroke-width="0.4"/>
    <path id="Shape-8" data-name="Shape" d="M4.333,1.993a.332.332,0,0,1-.267-.133C2.872.267,1.795.267.6,1.86a.333.333,0,0,1-.533-.4C1.526-.487,3.14-.487,4.6,1.46a.333.333,0,0,1-.267.533Z" transform="translate(8.667 11.34)" fill="#fff" stroke="#fff" stroke-miterlimit="10" stroke-width="0.4"/>
  </g>
</svg>
