<?xml version="1.0" encoding="UTF-8"?>
<svg width="25px" height="35px" viewBox="0 0 25 35" version="1.1" xmlns="http://www.w3.org/2000/svg" xmlns:xlink="http://www.w3.org/1999/xlink">
    <!-- Generator: Sketch 48.2 (47327) - http://www.bohemiancoding.com/sketch -->
    <title>culture</title>
    <desc>Created with Sketch.</desc>
    <defs>
        <ellipse id="path-1" cx="12.5" cy="33.5" rx="6.5" ry="1"></ellipse>
        <filter x="-11.5%" y="-75.0%" width="123.1%" height="250.0%" filterUnits="objectBoundingBox" id="filter-2">
            <feOffset dx="0" dy="0" in="SourceAlpha" result="shadowOffsetOuter1"></feOffset>
            <feGaussianBlur stdDeviation="0.5" in="shadowOffsetOuter1" result="shadowBlurOuter1"></feGaussianBlur>
            <feColorMatrix values="0 0 0 0 0   0 0 0 0 0   0 0 0 0 0  0 0 0 0.2 0" type="matrix" in="shadowBlurOuter1"></feColorMatrix>
        </filter>
    </defs>
    <g id="Page-1" stroke="none" stroke-width="1" fill="none" fill-rule="evenodd">
        <g id="culture">
            <g id="Oval-2" fill="black" fill-opacity="1">
                <use filter="url(#filter-2)" xlink:href="#path-1"></use>
            </g>
            <g id="placeholder" transform="translate(0.500000, 1.500000)" fill-rule="nonzero">
                <path d="M12,0 C5.382,0 0,5.382 0,12 C0,20.318 10.832,31.246 11.292,31.708 C11.488,31.902 11.744,32 12,32 C12.256,32 12.512,31.902 12.708,31.708 C13.168,31.246 24,20.318 24,12 C24,5.382 18.618,0 12,0 Z" id="Shape" fill="#BD10E0"></path>
                <g id="021-mask" transform="translate(4.000000, 4.500000)" fill="#FFFFFF" stroke="#FFFFFF" stroke-width="0.4">
                    <path d="M5,11.3333333 C4.97666667,11.3333333 4.95333333,11.3306667 4.93,11.326 C2.07333333,10.714 0,8.14933333 0,5.22733333 L0,2.04866667 C0,1.68866667 0.19,1.35533333 0.496,1.17866667 C3.20933333,-0.386666667 6.218,-0.386666667 9.44,1.17866667 C9.78,1.34466667 10,1.69866667 10,2.08133333 L10,5.22733333 C10,8.14866667 7.92666667,10.7133333 5.07,11.3253333 C5.04666667,11.3306667 5.02333333,11.3333333 5,11.3333333 Z M4.778,0.660666667 C3.40533333,0.660666667 2.096,1.026 0.829333333,1.75666667 C0.730666667,1.81333333 0.666666667,1.92866667 0.666666667,2.04866667 L0.666666667,5.22733333 C0.666666667,7.81266667 2.48466667,10.0853333 5,10.658 C7.51533333,10.0846667 9.33333333,7.812 9.33333333,5.22733333 L9.33333333,2.08133333 C9.33333333,1.952 9.26066667,1.83333333 9.14866667,1.77866667 C7.61466667,1.03333333 6.164,0.660666667 4.778,0.660666667 Z" id="Shape"></path>
                    <path d="M3.66666667,4 C3.49533333,4 3.34933333,3.86933333 3.33466667,3.69533333 C3.31133333,3.42866667 3.14666667,3.33333333 3,3.33333333 C2.85333333,3.33333333 2.68866667,3.42866667 2.66533333,3.69533333 C2.64933333,3.87866667 2.49,4.016 2.30466667,3.99866667 C2.12133333,3.98333333 1.98533333,3.82133333 2.00133333,3.638 C2.05866667,2.97066667 2.55933333,2.66666667 3,2.66666667 C3.44066667,2.66666667 3.94133333,2.97066667 3.99866667,3.638 C4.01466667,3.82133333 3.87866667,3.98333333 3.69533333,3.99866667 C3.68533333,4 3.676,4 3.66666667,4 Z" id="Shape"></path>
                    <path d="M7.66666667,4 C7.49533333,4 7.35,3.86933333 7.33466667,3.69533333 C7.31133333,3.42866667 7.14666667,3.33333333 7,3.33333333 C6.85333333,3.33333333 6.68866667,3.42866667 6.66533333,3.69533333 C6.64933333,3.87866667 6.48933333,4.016 6.30466667,3.99866667 C6.12133333,3.98333333 5.98533333,3.82133333 6.00133333,3.638 C6.05866667,2.97066667 6.55933333,2.66666667 7,2.66666667 C7.44066667,2.66666667 7.94133333,2.97066667 7.99866667,3.638 C8.01466667,3.82133333 7.87866667,3.98333333 7.69533333,3.99866667 C7.68533333,4 7.676,4 7.66666667,4 Z" id="Shape"></path>
                    <path d="M5,8.66666667 C4.226,8.66666667 3.46333333,8.17333333 2.73333333,7.2 C2.62266667,7.05266667 2.65266667,6.844 2.8,6.73333333 C2.94666667,6.622 3.156,6.652 3.26666667,6.8 C4.46133333,8.39266667 5.53866667,8.39266667 6.73333333,6.8 C6.844,6.652 7.05266667,6.62266667 7.2,6.73333333 C7.34733333,6.844 7.37733333,7.05266667 7.26666667,7.2 C6.53666667,8.17333333 5.774,8.66666667 5,8.66666667 Z" id="Shape"></path>
                    <path d="M11,16 C10.9766667,16 10.954,15.998 10.9306667,15.9926667 C9.06,15.5966667 7.45066667,14.332 6.626,12.6106667 C6.546,12.4446667 6.61666667,12.246 6.78266667,12.166 C6.948,12.0853333 7.14666667,12.1566667 7.22733333,12.3226667 C7.95333333,13.8373333 9.36,14.9553333 11,15.3253333 C13.5153333,14.7546667 15.3333333,12.4813333 15.3333333,9.89333333 L15.3333333,6.74666667 C15.3333333,6.62066667 15.2593333,6.502 15.144,6.44466667 C13.9393333,5.85533333 12.7573333,5.49866667 11.6326667,5.38466667 C11.4493333,5.366 11.316,5.20266667 11.3346667,5.01933333 C11.3533333,4.83666667 11.5173333,4.708 11.7,4.72133333 C12.9033333,4.84266667 14.1613333,5.22133333 15.4393333,5.84666667 C15.7813333,6.018 16,6.37066667 16,6.74666667 L16,9.89333333 C16,12.8186667 13.9266667,15.3833333 11.0693333,15.9926667 C11.0466667,15.9973333 11.0233333,16 11,16 Z" id="Shape"></path>
                    <path d="M13,8.66666667 C12.5593333,8.66666667 12.0586667,8.36266667 12.0013333,7.69533333 C11.9853333,7.512 12.1213333,7.35 12.3046667,7.33466667 C12.4893333,7.312 12.6493333,7.45466667 12.6653333,7.638 C12.6886667,7.90466667 12.8533333,8 13,8 C13.1466667,8 13.3113333,7.90466667 13.3346667,7.638 C13.35,7.45466667 13.504,7.312 13.6953333,7.33466667 C13.8786667,7.35 14.0146667,7.512 13.9986667,7.69533333 C13.9413333,8.36266667 13.4406667,8.66666667 13,8.66666667 Z" id="Shape"></path>
                    <path d="M13,13.3333333 C12.8986667,13.3333333 12.7986667,13.2873333 12.7333333,13.2 C11.5386667,11.6073333 10.4613333,11.6073333 9.26666667,13.2 C9.156,13.348 8.94733333,13.3766667 8.8,13.2666667 C8.65266667,13.156 8.62266667,12.9473333 8.73333333,12.8 C10.1926667,10.8533333 11.8066667,10.8533333 13.2666667,12.8 C13.3773333,12.9473333 13.3473333,13.156 13.2,13.2666667 C13.14,13.3113333 13.07,13.3333333 13,13.3333333 Z" id="Shape"></path>
                </g>
            </g>
        </g>
    </g>
</svg>