<?xml version="1.0" encoding="UTF-8"?>
<svg width="25px" height="35px" viewBox="0 0 25 35" version="1.1" xmlns="http://www.w3.org/2000/svg" xmlns:xlink="http://www.w3.org/1999/xlink">
    <!-- Generator: Sketch 48.2 (47327) - http://www.bohemiancoding.com/sketch -->
    <title>debit_boissons</title>
    <desc>Created with Sketch.</desc>
    <defs>
        <ellipse id="path-1" cx="12.5" cy="33.5" rx="6.5" ry="1"></ellipse>
        <filter x="-11.5%" y="-75.0%" width="123.1%" height="250.0%" filterUnits="objectBoundingBox" id="filter-2">
            <feOffset dx="0" dy="0" in="SourceAlpha" result="shadowOffsetOuter1"></feOffset>
            <feGaussianBlur stdDeviation="0.5" in="shadowOffsetOuter1" result="shadowBlurOuter1"></feGaussianBlur>
            <feColorMatrix values="0 0 0 0 0   0 0 0 0 0   0 0 0 0 0  0 0 0 0.2 0" type="matrix" in="shadowBlurOuter1"></feColorMatrix>
        </filter>
    </defs>
    <g id="Page-1" stroke="none" stroke-width="1" fill="none" fill-rule="evenodd">
        <g id="debit_boissons">
            <g id="Oval-2" fill="black" fill-opacity="1">
                <use filter="url(#filter-2)" xlink:href="#path-1"></use>
            </g>
            <g id="placeholder" transform="translate(0.500000, 1.500000)" fill-rule="nonzero">
                <path d="M12,0 C5.382,0 0,5.382 0,12 C0,20.318 10.832,31.246 11.292,31.708 C11.488,31.902 11.744,32 12,32 C12.256,32 12.512,31.902 12.708,31.708 C13.168,31.246 24,20.318 24,12 C24,5.382 18.618,0 12,0 Z" id="Shape" fill="#F8E71C"></path>
                <g id="020-beer-mug" transform="translate(4.500000, 3.000000)" fill="#FFFFFF">
                    <path d="M14.3448276,6.62068966 L12.6896552,6.62068966 L12.6896552,6.05241379 C13.0317241,5.59227586 13.2413793,5.02951724 13.2413793,4.4137931 C13.2413793,2.89324138 12.0033103,1.65517241 10.4827586,1.65517241 C10.0491034,1.65517241 9.63089655,1.75558621 9.25682759,1.94317241 C8.90813793,0.818758621 7.85875862,0 6.62068966,0 C5.38262069,0 4.33324138,0.818758621 3.98455172,1.94317241 C3.61048276,1.75558621 3.19227586,1.65517241 2.75862069,1.65517241 C1.23806897,1.65517241 0,2.89324138 0,4.4137931 C0,5.02951724 0.209655172,5.59227586 0.551724138,6.05241379 L0.551724138,15.4482759 C0.551724138,16.6653793 1.54151724,17.6551724 2.75862069,17.6551724 L10.4827586,17.6551724 C11.6998621,17.6551724 12.6896552,16.6653793 12.6896552,15.4482759 L12.6896552,14.3448276 L14.3448276,14.3448276 C15.2573793,14.3448276 16,13.6022069 16,12.6896552 L16,8.27586207 C16,7.36331034 15.2573793,6.62068966 14.3448276,6.62068966 Z M11.5862069,15.4482759 C11.5862069,16.0562759 11.0907586,16.5517241 10.4827586,16.5517241 L2.75862069,16.5517241 C2.15062069,16.5517241 1.65517241,16.0562759 1.65517241,15.4482759 L1.65517241,6.93848276 C1.99393103,7.08744828 2.3657931,7.17241379 2.75862069,7.17241379 L2.75862069,8.27586207 C2.75862069,8.9942069 3.22096552,9.60110345 3.86206897,9.82951724 L3.86206897,13.7931034 C3.86206897,14.0976552 4.10924138,14.3448276 4.4137931,14.3448276 C4.71834483,14.3448276 4.96551724,14.0976552 4.96551724,13.7931034 L4.96551724,9.82951724 C5.60662069,9.60110345 6.06896552,8.9942069 6.06896552,8.27586207 L6.06896552,7.49241379 C7.1017931,7.94924138 8.40606897,7.6822069 9.18841379,6.8502069 C9.58013793,7.06206897 10.0193103,7.17241379 10.4827586,7.17241379 C10.8755862,7.17241379 11.2474483,7.08744828 11.5862069,6.93848276 L11.5862069,15.4482759 Z M10.4827586,6.06896552 C10.0877241,6.06896552 9.72358621,5.93544828 9.43006897,5.68275862 C9.30868966,5.57793103 9.14537931,5.5337931 8.98648276,5.55586207 C8.82758621,5.58124138 8.68744828,5.67393103 8.60137931,5.81075862 C8.03310345,6.72662069 6.61737931,6.84689655 5.93655172,6.05241379 C5.78537931,5.87586207 5.54262069,5.81296552 5.32634483,5.89351724 C5.10896552,5.97406897 4.96551724,6.18041379 4.96551724,6.41103448 L4.96551724,8.27586207 C4.96551724,8.58041379 4.71834483,8.82758621 4.4137931,8.82758621 C4.10924138,8.82758621 3.86206897,8.58041379 3.86206897,8.27586207 L3.86206897,6.54344828 C3.86206897,6.368 3.7782069,6.20248276 3.63696552,6.09875862 C3.54096552,6.02813793 3.4262069,5.99172414 3.31034483,5.99172414 C3.25517241,5.99172414 3.2,5.99944828 3.14703448,6.016 C3.03448276,6.05131034 2.90427586,6.06896552 2.75862069,6.06896552 C1.84606897,6.06896552 1.10344828,5.32634483 1.10344828,4.4137931 C1.10344828,3.50124138 1.84606897,2.75862069 2.75862069,2.75862069 C3.24303448,2.75862069 3.69544828,2.96827586 4.00110345,3.33351724 C4.16,3.52441379 4.42482759,3.584 4.65213793,3.48027586 C4.87834483,3.37765517 5.00855172,3.136 4.96882759,2.89103448 C4.96331034,2.85131034 4.96551724,2.80496552 4.96551724,2.75862069 C4.96551724,1.84606897 5.70813793,1.10344828 6.62068966,1.10344828 C7.53324138,1.10344828 8.27586207,1.84606897 8.27586207,2.75862069 C8.27586207,2.80496552 8.27806897,2.85131034 8.27255172,2.89103448 C8.23282759,3.136 8.36303448,3.37765517 8.58813793,3.48027586 C8.81655172,3.58510345 9.08137931,3.52441379 9.23917241,3.33351724 C9.54593103,2.96827586 9.99834483,2.75862069 10.4827586,2.75862069 C11.3953103,2.75862069 12.137931,3.50124138 12.137931,4.4137931 C12.137931,5.32634483 11.3953103,6.06896552 10.4827586,6.06896552 Z M14.8965517,12.6896552 C14.8965517,12.9942069 14.6493793,13.2413793 14.3448276,13.2413793 L12.6896552,13.2413793 L12.6896552,7.72413793 L14.3448276,7.72413793 C14.6493793,7.72413793 14.8965517,7.97131034 14.8965517,8.27586207 L14.8965517,12.6896552 Z" id="Shape"></path>
                    <path d="M8.82758621,8.82758621 C8.52303448,8.82758621 8.27586207,9.07475862 8.27586207,9.37931034 L8.27586207,13.7931034 C8.27586207,14.0976552 8.52303448,14.3448276 8.82758621,14.3448276 C9.13213793,14.3448276 9.37931034,14.0976552 9.37931034,13.7931034 L9.37931034,9.37931034 C9.37931034,9.07475862 9.13213793,8.82758621 8.82758621,8.82758621 Z" id="Shape"></path>
                </g>
            </g>
        </g>
    </g>
</svg>