<svg id="placeholder" xmlns="http://www.w3.org/2000/svg" width="24" height="32" viewBox="0 0 24 32">
  <path id="Shape" d="M12,0A12.012,12.012,0,0,0,0,12c0,8.318,10.832,19.246,11.292,19.708a1,1,0,0,0,1.416,0C13.168,31.246,24,20.318,24,12A12.012,12.012,0,0,0,12,0Z" fill="#f8e71c"/>
  <g id="_020-beer-mug" data-name="020-beer-mug" transform="translate(4.5 3)">
    <path id="Shape-2" data-name="Shape" d="M2.759,17.655A2.209,2.209,0,0,1,.552,15.449v-9.4A2.752,2.752,0,0,1,3.984,1.943a2.76,2.76,0,0,1,5.272,0A2.75,2.75,0,0,1,12.69,6.053V6.62h1.655A1.657,1.657,0,0,1,16,8.276V12.69a1.657,1.657,0,0,1-1.655,1.655H12.69v1.1a2.209,2.209,0,0,1-2.207,2.207Z" fill="#fff"/>
    <path id="Shape-3" data-name="Shape" d="M.552,0A.552.552,0,0,0,0,.552V4.966a.552.552,0,1,0,1.1,0V.552A.552.552,0,0,0,.552,0Z" transform="translate(8.276 8.828)" fill="#fff"/>
  </g>
</svg>
