<svg id="placeholder" xmlns="http://www.w3.org/2000/svg" width="24" height="32" viewBox="0 0 24 32">
  <path id="Shape" d="M12,0A12.012,12.012,0,0,0,0,12c0,8.318,10.832,19.246,11.292,19.708a1,1,0,0,0,1.416,0C13.168,31.246,24,20.318,24,12A12.012,12.012,0,0,0,12,0Z" fill="#7ed321"/>
  <g id="_015-fruits" data-name="015-fruits" transform="translate(4 4)">
    <path id="Shape-2" data-name="Shape" d="M5.276,13.333C2.318,13.333,0,11.333,0,8.78A4.35,4.35,0,0,1,.912,6.125h0a.458.458,0,0,1,.042-.051l0,0A6.216,6.216,0,0,0,2.281,2.713,2.864,2.864,0,0,1,5.276,0a2.862,2.862,0,0,1,3,2.7,5.786,5.786,0,0,0,1.01,2.9.333.333,0,1,1-.563.356A6.4,6.4,0,0,1,7.606,2.713,2.2,2.2,0,0,0,5.276.667,2.2,2.2,0,0,0,2.947,2.7,6.83,6.83,0,0,1,1.479,6.483c-.006.009-.02.026-.032.041l0,.006A3.685,3.685,0,0,0,.667,8.78c0,2.179,2.025,3.887,4.609,3.887a5.185,5.185,0,0,0,2.849-.813.333.333,0,1,1,.364.559A5.852,5.852,0,0,1,5.276,13.333Z" transform="translate(0 2.667)" fill="#fff" stroke="#fff" stroke-miterlimit="10" stroke-width="0.3"/>
    <path id="Shape-3" data-name="Shape" d="M.333,3.333A.333.333,0,0,1,0,3,3,3,0,0,1,3,0h.333a.333.333,0,1,1,0,.667H3A2.336,2.336,0,0,0,.667,3,.333.333,0,0,1,.333,3.333Z" transform="translate(5)" fill="#fff" stroke="#fff" stroke-miterlimit="10" stroke-width="0.3"/>
    <path id="Shape-4" data-name="Shape" d="M.333,3.333A.333.333,0,0,1,0,3,3,3,0,0,1,3,0h.333a.333.333,0,1,1,0,.667H3A2.336,2.336,0,0,0,.667,3,.333.333,0,0,1,.333,3.333Z" transform="translate(11 5.333)" fill="#fff" stroke="#fff" stroke-miterlimit="10" stroke-width="0.3"/>
    <path id="Shape-5" data-name="Shape" d="M4.666,7.746A3.011,3.011,0,0,1,3.452,8C1.54,8,0,5.349,0,3.154,0,1.179,1.291,0,3.452,0A3.025,3.025,0,0,1,4.667.254,3.028,3.028,0,0,1,5.881,0C8.042,0,9.333,1.179,9.333,3.154,9.333,5.349,7.793,8,5.881,8A3.035,3.035,0,0,1,4.666,7.746Z" transform="translate(6.667 8)" fill="#fff" stroke="#fff" stroke-miterlimit="10" stroke-width="0.3"/>
  </g>
</svg>
