<?xml version="1.0" encoding="UTF-8"?>
<svg width="25px" height="35px" viewBox="0 0 25 35" version="1.1" xmlns="http://www.w3.org/2000/svg" xmlns:xlink="http://www.w3.org/1999/xlink">
    <!-- Generator: Sketch 48.2 (47327) - http://www.bohemiancoding.com/sketch -->
    <title>fruits_legumes</title>
    <desc>Created with Sketch.</desc>
    <defs>
        <ellipse id="path-1" cx="12.5" cy="33.5" rx="6.5" ry="1"></ellipse>
        <filter x="-11.5%" y="-75.0%" width="123.1%" height="250.0%" filterUnits="objectBoundingBox" id="filter-2">
            <feOffset dx="0" dy="0" in="SourceAlpha" result="shadowOffsetOuter1"></feOffset>
            <feGaussianBlur stdDeviation="0.5" in="shadowOffsetOuter1" result="shadowBlurOuter1"></feGaussianBlur>
            <feColorMatrix values="0 0 0 0 0   0 0 0 0 0   0 0 0 0 0  0 0 0 0.2 0" type="matrix" in="shadowBlurOuter1"></feColorMatrix>
        </filter>
    </defs>
    <g id="Page-1" stroke="none" stroke-width="1" fill="none" fill-rule="evenodd">
        <g id="fruits_legumes">
            <g id="Oval-2" fill="black" fill-opacity="1">
                <use filter="url(#filter-2)" xlink:href="#path-1"></use>
            </g>
            <g id="placeholder" transform="translate(0.500000, 1.500000)" fill-rule="nonzero">
                <path d="M12,0 C5.382,0 0,5.382 0,12 C0,20.318 10.832,31.246 11.292,31.708 C11.488,31.902 11.744,32 12,32 C12.256,32 12.512,31.902 12.708,31.708 C13.168,31.246 24,20.318 24,12 C24,5.382 18.618,0 12,0 Z" id="Shape" fill="#7ED321"></path>
                <g id="015-fruits" transform="translate(4.000000, 4.000000)" fill="#FFFFFF" stroke="#FFFFFF" stroke-width="0.3">
                    <path d="M5.276,16 C2.318,16 0,14 0,11.4466667 C0,10.4913333 0.315333333,9.57333333 0.912,8.79133333 L0.912666667,8.792 C0.926666667,8.77266667 0.942,8.75333333 0.954666667,8.74066667 L0.956666667,8.74333333 C2.244,6.94 2.28066667,5.536 2.28066667,5.38 C2.28066667,3.878 3.62466667,2.66666667 5.276,2.66666667 C6.92866667,2.66666667 8.272,3.878 8.272,5.36666667 C8.272,5.51133333 8.30066667,6.70933333 9.282,8.262 C9.38,8.41733333 9.334,8.62333333 9.17866667,8.722 C9.02333333,8.81866667 8.81733333,8.77466667 8.71866667,8.618 C7.65933333,6.942 7.606,5.62666667 7.606,5.38 C7.60533333,4.24533333 6.56066667,3.33333333 5.276,3.33333333 C3.992,3.33333333 2.94733333,4.24533333 2.94733333,5.36666667 C2.94733333,5.56066667 2.906,7.198 1.47866667,9.15 C1.47266667,9.15866667 1.45866667,9.176 1.44666667,9.19066667 C1.44466667,9.19266667 1.44333333,9.19466667 1.442,9.19666667 C0.934666667,9.86066667 0.666666667,10.6393333 0.666666667,11.4466667 C0.666666667,13.626 2.69133333,15.3333333 5.276,15.3333333 C6.32533333,15.3333333 7.31133333,15.0526667 8.12533333,14.5206667 C8.28,14.4213333 8.48666667,14.464 8.58666667,14.618 C8.68666667,14.772 8.644,14.9786667 8.48933333,15.0793333 C7.56733333,15.6813333 6.456,16 5.276,16 Z" id="Shape"></path>
                    <path d="M5.33333333,3.33333333 C5.14933333,3.33333333 5,3.184 5,3 C5,1.346 6.346,0 8,0 L8.33333333,0 C8.51733333,0 8.66666667,0.149333333 8.66666667,0.333333333 C8.66666667,0.517333333 8.51733333,0.666666667 8.33333333,0.666666667 L8,0.666666667 C6.71333333,0.666666667 5.66666667,1.71333333 5.66666667,3 C5.66666667,3.184 5.51733333,3.33333333 5.33333333,3.33333333 Z" id="Shape"></path>
                    <path d="M11.3333333,8.66666667 C11.1493333,8.66666667 11,8.51733333 11,8.33333333 C11,6.67933333 12.346,5.33333333 14,5.33333333 L14.3333333,5.33333333 C14.5173333,5.33333333 14.6666667,5.48266667 14.6666667,5.66666667 C14.6666667,5.85066667 14.5173333,6 14.3333333,6 L14,6 C12.7133333,6 11.6666667,7.04666667 11.6666667,8.33333333 C11.6666667,8.51733333 11.5173333,8.66666667 11.3333333,8.66666667 Z" id="Shape"></path>
                    <path d="M12.5473333,16 C12.128,16 11.7206667,15.9146667 11.3326667,15.746 C10.9466667,15.9146667 10.5393333,16 10.1193333,16 C8.20666667,16 6.66666667,13.3486667 6.66666667,11.1533333 C6.66666667,9.17866667 7.95733333,8 10.1193333,8 C10.5386667,8 10.946,8.08533333 11.3333333,8.254 C11.7206667,8.08533333 12.128,8 12.5473333,8 C14.7093333,8 16,9.17933333 16,11.1533333 C16,13.3486667 14.46,16 12.5473333,16 Z M11.332,15.0446667 C11.3826667,15.0446667 11.4333333,15.0566667 11.4806667,15.0793333 C11.8193333,15.248 12.1786667,15.3333333 12.5473333,15.3333333 C14.0473333,15.3333333 15.3333333,13.0353333 15.3333333,11.1533333 C15.3333333,8.98933333 13.588,8.66666667 12.5473333,8.66666667 C12.178,8.66666667 11.8193333,8.752 11.4813333,8.92 C11.3873333,8.96666667 11.278,8.96666667 11.1846667,8.92 C10.8473333,8.752 10.488,8.66666667 10.1193333,8.66666667 C9.07866667,8.66666667 7.33333333,8.98933333 7.33333333,11.1533333 C7.33333333,13.0346667 8.61933333,15.3333333 10.1193333,15.3333333 C10.4893333,15.3333333 10.8473333,15.248 11.1833333,15.08 C11.23,15.0566667 11.2813333,15.0446667 11.332,15.0446667 Z" id="Shape"></path>
                </g>
            </g>
        </g>
    </g>
</svg>