<?xml version="1.0" encoding="UTF-8"?>
<svg width="25px" height="35px" viewBox="0 0 25 35" version="1.1" xmlns="http://www.w3.org/2000/svg" xmlns:xlink="http://www.w3.org/1999/xlink">
    <!-- Generator: Sketch 48.2 (47327) - http://www.bohemiancoding.com/sketch -->
    <title>magasin</title>
    <desc>Created with Sketch.</desc>
    <defs>
        <ellipse id="path-1" cx="12.5" cy="33.5" rx="6.5" ry="1"></ellipse>
        <filter x="-11.5%" y="-75.0%" width="123.1%" height="250.0%" filterUnits="objectBoundingBox" id="filter-2">
            <feOffset dx="0" dy="0" in="SourceAlpha" result="shadowOffsetOuter1"></feOffset>
            <feGaussianBlur stdDeviation="0.5" in="shadowOffsetOuter1" result="shadowBlurOuter1"></feGaussianBlur>
            <feColorMatrix values="0 0 0 0 0   0 0 0 0 0   0 0 0 0 0  0 0 0 0.2 0" type="matrix" in="shadowBlurOuter1"></feColorMatrix>
        </filter>
    </defs>
    <g id="Page-1" stroke="none" stroke-width="1" fill="none" fill-rule="evenodd">
        <g id="magasin">
            <g id="Oval-2" fill="black" fill-opacity="1">
                <use filter="url(#filter-2)" xlink:href="#path-1"></use>
            </g>
            <g id="placeholder" transform="translate(0.500000, 1.500000)" fill-rule="nonzero">
                <path d="M12,0 C5.382,0 0,5.382 0,12 C0,20.318 10.832,31.246 11.292,31.708 C11.488,31.902 11.744,32 12,32 C12.256,32 12.512,31.902 12.708,31.708 C13.168,31.246 24,20.318 24,12 C24,5.382 18.618,0 12,0 Z" id="Shape" fill="#4A90E2"></path>
                <g id="018-store" transform="translate(3.500000, 5.000000)" fill="#FFFFFF">
                    <path d="M6.90625,7.4375 L3.71875,7.4375 C3.4255,7.4375 3.1875,7.6755 3.1875,7.96875 L3.1875,10.09375 C3.1875,10.387 3.4255,10.625 3.71875,10.625 L6.90625,10.625 C7.1995,10.625 7.4375,10.387 7.4375,10.09375 L7.4375,7.96875 C7.4375,7.6755 7.1995,7.4375 6.90625,7.4375 Z M6.375,9.5625 L4.25,9.5625 L4.25,8.5 L6.375,8.5 L6.375,9.5625 Z" id="Shape"></path>
                    <path d="M16.9011875,3.9408125 L14.2449375,0.2220625 C14.1450625,0.082875 13.9835625,0 13.8125,0 L3.1875,0 C3.0164375,0 2.8549375,0.082875 2.7550625,0.2220625 L0.0988125,3.9408125 C0.034,4.031125 0,4.1395 0,4.25 C0,5.0330625 0.4303125,5.7109375 1.0625,6.079625 L1.0625,12.21875 C1.0625,12.512 1.3005,12.75 1.59375,12.75 L10.09375,12.75 C10.387,12.75 10.625,12.512 10.625,12.21875 L10.625,8.5 L12.75,8.5 L12.75,12.21875 C12.75,12.512 12.988,12.75 13.28125,12.75 L15.40625,12.75 C15.6995,12.75 15.9375,12.512 15.9375,12.21875 L15.9375,6.079625 C16.5696875,5.7109375 17,5.0330625 17,4.25 C17,4.1395 16.966,4.031125 16.9011875,3.9408125 Z M14.875,11.6875 L13.8125,11.6875 L13.8125,7.96875 C13.8125,7.6755 13.5745,7.4375 13.28125,7.4375 L10.09375,7.4375 C9.8005,7.4375 9.5625,7.6755 9.5625,7.96875 L9.5625,11.6875 L2.125,11.6875 L2.125,6.375 C2.7593125,6.375 3.3288125,6.0955625 3.71875,5.6535625 C4.1086875,6.0955625 4.6781875,6.375 5.3125,6.375 C5.9468125,6.375 6.5163125,6.0955625 6.90625,5.6535625 C7.2961875,6.0955625 7.8656875,6.375 8.5,6.375 C9.1343125,6.375 9.7038125,6.0955625 10.09375,5.6535625 C10.4836875,6.0955625 11.0531875,6.375 11.6875,6.375 C12.3218125,6.375 12.8913125,6.0955625 13.28125,5.6535625 C13.6711875,6.0955625 14.2406875,6.375 14.875,6.375 L14.875,11.6875 Z M14.875,5.3125 C14.2885,5.3125 13.8125,4.8354375 13.8125,4.25 C13.8125,3.95675 13.5745,3.71875 13.28125,3.71875 C12.988,3.71875 12.75,3.95675 12.75,4.25 C12.75,4.8354375 12.274,5.3125 11.6875,5.3125 C11.101,5.3125 10.625,4.8354375 10.625,4.25 C10.625,3.95675 10.387,3.71875 10.09375,3.71875 C9.8005,3.71875 9.5625,3.95675 9.5625,4.25 C9.5625,4.8354375 9.0865,5.3125 8.5,5.3125 C7.9135,5.3125 7.4375,4.8354375 7.4375,4.25 C7.4375,3.95675 7.1995,3.71875 6.90625,3.71875 C6.613,3.71875 6.375,3.95675 6.375,4.25 C6.375,4.8354375 5.899,5.3125 5.3125,5.3125 C4.726,5.3125 4.25,4.8354375 4.25,4.25 C4.25,3.95675 4.012,3.71875 3.71875,3.71875 C3.4255,3.71875 3.1875,3.95675 3.1875,4.25 C3.1875,4.8354375 2.7115,5.3125 2.125,5.3125 C1.591625,5.3125 1.1485625,4.91725 1.0741875,4.405125 L3.4605625,1.0625 L13.5394375,1.0625 L15.9258125,4.405125 C15.8514375,4.91725 15.408375,5.3125 14.875,5.3125 Z" id="Shape"></path>
                </g>
            </g>
        </g>
    </g>
</svg>