<svg id="placeholder" xmlns="http://www.w3.org/2000/svg" width="24" height="32" viewBox="0 0 24 32">
  <path id="Shape" d="M12,0A12.012,12.012,0,0,0,0,12c0,8.318,10.832,19.246,11.292,19.708a1,1,0,0,0,1.416,0C13.168,31.246,24,20.318,24,12A12.012,12.012,0,0,0,12,0Z" fill="#4a90e2"/>
  <g id="_018-store" data-name="018-store" transform="translate(3.5 5)">
    <path id="Shape-2" data-name="Shape" d="M.531,3.188A.532.532,0,0,1,0,2.656V.531A.531.531,0,0,1,.531,0H3.719A.531.531,0,0,1,4.25.531V2.656a.532.532,0,0,1-.531.532Z" transform="translate(3.188 7.438)" fill="#fff"/>
    <path id="Shape-3" data-name="Shape" d="M13.281,12.75a.532.532,0,0,1-.531-.532V8.5H10.625v3.719a.532.532,0,0,1-.532.532h-8.5a.532.532,0,0,1-.531-.532V6.08A2.118,2.118,0,0,1,0,4.25a.528.528,0,0,1,.1-.309L2.755.222A.534.534,0,0,1,3.188,0H13.812a.534.534,0,0,1,.433.222L16.9,3.941a.528.528,0,0,1,.1.309,2.118,2.118,0,0,1-1.063,1.83v6.139a.532.532,0,0,1-.531.532Z" fill="#fff"/>
  </g>
</svg>
