<svg id="placeholder" xmlns="http://www.w3.org/2000/svg" width="24" height="32" viewBox="0 0 24 32">
  <path id="Shape" d="M12,0A12.012,12.012,0,0,0,0,12c0,8.318,10.832,19.246,11.292,19.708a1,1,0,0,0,1.416,0C13.168,31.246,24,20.318,24,12A12.012,12.012,0,0,0,12,0Z" fill="#50e3c2"/>
  <g id="_022-hanger" data-name="022-hanger" transform="translate(4 4.5)">
    <path id="Shape-2" data-name="Shape" d="M.5,8A.5.5,0,0,1,0,7.5v-1a.5.5,0,0,1,.188-.391l7.5-6a.5.5,0,0,1,.625,0l7.5,6A.5.5,0,0,1,16,6.5v1a.5.5,0,0,1-.5.5Z" transform="translate(0 5.5)" fill="#fff" stroke="#fff" stroke-miterlimit="10" stroke-width="0.1"/>
    <path id="Shape-3" data-name="Shape" d="M2.5,0A2.5,2.5,0,0,0,0,2.5a.5.5,0,0,0,1,0A1.5,1.5,0,1,1,2.5,4a.5.5,0,0,0,0,1,2.5,2.5,0,0,0,0-5Z" transform="translate(5.5)" fill="#fff" stroke="#fff" stroke-miterlimit="10" stroke-width="0.1"/>
    <path id="Shape-4" data-name="Shape" d="M.5,0A.5.5,0,0,0,0,.5v1a.5.5,0,0,0,1,0V.5A.5.5,0,0,0,.5,0Z" transform="translate(7.5 4)" fill="#fff" stroke="#fff" stroke-miterlimit="10" stroke-width="0.1"/>
  </g>
</svg>
