<svg id="placeholder" xmlns="http://www.w3.org/2000/svg" width="24" height="32" viewBox="0 0 24 32">
  <path id="Shape" d="M12,0A12.012,12.012,0,0,0,0,12c0,8.318,10.832,19.246,11.292,19.708a1,1,0,0,0,1.416,0C13.168,31.246,24,20.318,24,12A12.012,12.012,0,0,0,12,0Z" fill="#f5a623"/>
  <g id="_017-restaurant" data-name="017-restaurant" transform="translate(6 4)">
    <path id="Shape-2" data-name="Shape" d="M1.66,17.4a1.777,1.777,0,0,1-.47-1.33l.578-8.1A2.928,2.928,0,0,1,.033,4.847L.712.319A.375.375,0,0,1,1.083,0H1.1a.375.375,0,0,1,.36.343l.328,3.931c.021.243.451.243.471,0L2.581.343a.374.374,0,0,1,.745,0l.328,3.931c.021.243.451.243.472,0L4.453.343A.373.373,0,0,1,4.813,0h.013A.374.374,0,0,1,5.2.319l.679,4.529A2.928,2.928,0,0,1,4.14,7.973l.578,8.1A1.769,1.769,0,0,1,1.66,17.4Z" transform="translate(0.008 0)" fill="#fff" stroke="#fff" stroke-miterlimit="10" stroke-width="0.2"/>
    <path id="Shape-3" data-name="Shape" d="M.612,17.374a1.8,1.8,0,0,1-.454-1.384L.75,10.068a.376.376,0,0,1,.108-.228l.479-.479A6.558,6.558,0,0,1,0,4.865,5.2,5.2,0,0,1,3.244.021a.376.376,0,0,1,.5.353V16.168A1.8,1.8,0,0,1,.612,17.374Z" transform="translate(7.828 0)" fill="#fff" stroke="#fff" stroke-miterlimit="10" stroke-width="0.2"/>
  </g>
</svg>
