<?xml version="1.0" encoding="UTF-8"?>
<svg width="25px" height="35px" viewBox="0 0 25 35" version="1.1" xmlns="http://www.w3.org/2000/svg" xmlns:xlink="http://www.w3.org/1999/xlink">
    <!-- Generator: Sketch 48.2 (47327) - http://www.bohemiancoding.com/sketch -->
    <title>restaurant</title>
    <desc>Created with Sketch.</desc>
    <defs>
        <ellipse id="path-1" cx="12.5" cy="33.5" rx="6.5" ry="1"></ellipse>
        <filter x="-11.5%" y="-75.0%" width="123.1%" height="250.0%" filterUnits="objectBoundingBox" id="filter-2">
            <feOffset dx="0" dy="0" in="SourceAlpha" result="shadowOffsetOuter1"></feOffset>
            <feGaussianBlur stdDeviation="0.5" in="shadowOffsetOuter1" result="shadowBlurOuter1"></feGaussianBlur>
            <feColorMatrix values="0 0 0 0 0   0 0 0 0 0   0 0 0 0 0  0 0 0 0.2 0" type="matrix" in="shadowBlurOuter1"></feColorMatrix>
        </filter>
    </defs>
    <g id="Page-1" stroke="none" stroke-width="1" fill="none" fill-rule="evenodd">
        <g id="restaurant">
            <g id="Oval-2" fill="black" fill-opacity="1">
                <use filter="url(#filter-2)" xlink:href="#path-1"></use>
            </g>
            <g id="placeholder" transform="translate(0.500000, 1.500000)" fill-rule="nonzero">
                <path d="M12,0 C5.382,0 0,5.382 0,12 C0,20.318 10.832,31.246 11.292,31.708 C11.488,31.902 11.744,32 12,32 C12.256,32 12.512,31.902 12.708,31.708 C13.168,31.246 24,20.318 24,12 C24,5.382 18.618,0 12,0 Z" id="Shape" fill="#F5A623"></path>
                <g id="017-restaurant" transform="translate(6.000000, 4.000000)" fill="#FFFFFF" stroke="#FFFFFF" stroke-width="0.2">
                    <path d="M5.88273684,4.84768421 L5.20382456,0.319052632 C5.17687719,0.134912281 5.01894737,0.000175438596 4.83403509,0.000175438596 C4.8302807,0.000175438596 4.82578947,0.000175438596 4.82129825,0.000175438596 C4.63192982,0.0061754386 4.47698246,0.153614035 4.46126316,0.343017544 L4.13340351,4.27435088 C4.11319298,4.51687719 3.68277193,4.51687719 3.6625614,4.27435088 L3.33470175,0.342982456 C3.31898246,0.149122807 3.1565614,0.000140350877 2.96192982,0.000140350877 C2.76729825,0.000140350877 2.60487719,0.149087719 2.58989474,0.342982456 L2.26203509,4.27431579 C2.24182456,4.51684211 1.81140351,4.51684211 1.79119298,4.27431579 L1.46336842,0.342982456 C1.44764912,0.154350877 1.29270175,0.00687719298 1.10333333,0.000140350877 C1.09884211,0.000140350877 1.09435088,0.000140350877 1.09059649,0.000140350877 C0.905719298,0.000140350877 0.747754386,0.134877193 0.720070175,0.319017544 L0.0411578947,4.84768421 C-0.157964912,6.17484211 0.562140351,7.44361404 1.7762807,7.97357895 L1.19842105,16.0727719 C1.164,16.5600702 1.33466667,17.044386 1.66775439,17.4021754 C2.00010526,17.7599649 2.47168421,17.9650877 2.96347368,17.9650877 C3.4522807,17.9650877 3.92385965,17.76 4.25694737,17.4021754 C4.59003509,17.044386 4.76070175,16.5600702 4.7262807,16.0727719 L4.14842105,7.97357895 C5.36249123,7.44438596 6.08259649,6.17484211 5.88273684,4.84768421 Z M3.63863158,7.36652632 C3.47470175,7.41968421 3.36842105,7.57761404 3.38038596,7.74901754 L3.9777193,16.1258947 C3.99866667,16.4103509 3.90287719,16.682807 3.70824561,16.8916491 C3.32049123,17.3085965 2.60638596,17.3130877 2.21417544,16.8916491 C2.02031579,16.682807 1.92449123,16.4110877 1.94470175,16.1258947 L2.54277193,7.74824561 C2.554,7.57684211 2.44845614,7.41887719 2.28452632,7.36575439 C1.25452632,7.03266667 0.622035088,6.01989474 0.781473684,4.95845614 L0.984315789,3.60659649 L1.04494737,4.33715789 C1.08687719,4.84315789 1.51803509,5.23989474 2.0262807,5.23989474 C2.45670175,5.23989474 2.8317193,4.9554386 2.96196491,4.56021053 C3.09221053,4.9554386 3.46722807,5.23989474 3.89764912,5.23989474 C4.40515789,5.23989474 4.83705263,4.84315789 4.87898246,4.33789474 L4.93961404,3.60733333 L5.14245614,4.95919298 C5.30185965,6.02066667 4.66936842,7.0334386 3.63863158,7.36652632 Z" id="Shape"></path>
                    <path d="M11.4121754,0.0682807018 C11.3133684,-0.00207017544 11.1861053,-0.0185614035 11.0715789,0.021122807 C11.0394035,0.0323508772 7.82817544,1.21203509 7.82817544,4.86491228 C7.82817544,7.49452632 8.68301754,8.82242105 9.16505263,9.36136842 L8.686,9.84042105 C8.62463158,9.90178947 8.58645614,9.98189474 8.57821053,10.0679649 L7.98610526,15.9896491 C7.93445614,16.4934035 8.10063158,16.9979298 8.44045614,17.3736842 C8.7802807,17.7494386 9.26610526,17.9650175 9.77284211,17.9650175 C10.7638947,17.9650175 11.5700702,17.1588421 11.5708421,16.1677895 L11.5708421,0.373684211 C11.5708772,0.252421053 11.5117544,0.138631579 11.4121754,0.0682807018 Z M10.8208421,16.1685965 C10.8208421,16.7464561 10.3507719,17.2165614 9.77287719,17.2165614 C9.47347368,17.2165614 9.19726316,17.0937895 8.99589474,16.8714737 C8.79452632,16.6491579 8.70021053,16.3624561 8.73017544,16.0645614 L9.30880702,10.2761053 L9.9622807,9.62189474 C10.0393684,9.54480702 10.0775439,9.43701754 10.0693333,9.32845614 C10.0610877,9.21992982 10.0049474,9.11887719 9.91736842,9.05375439 C9.90389474,9.04403509 8.57522807,8.02375439 8.57522807,4.86568421 C8.57522807,2.5534386 10.0266316,1.41568421 10.8208421,0.966561404 L10.8208421,16.1685965 Z" id="Shape"></path>
                </g>
            </g>
        </g>
    </g>
</svg>